<?xml version="1.0" encoding="utf-8" standalone="no"?>
<!DOCTYPE svg PUBLIC "-//W3C//DTD SVG 1.1//EN"
  "http://www.w3.org/Graphics/SVG/1.1/DTD/svg11.dtd">
<svg xmlns:xlink="http://www.w3.org/1999/xlink" width="1000.380312pt" height="351.561875pt" viewBox="0 0 1000.380312 351.561875" xmlns="http://www.w3.org/2000/svg" version="1.1">
 <metadata>
  <rdf:RDF xmlns:dc="http://purl.org/dc/elements/1.1/" xmlns:cc="http://creativecommons.org/ns#" xmlns:rdf="http://www.w3.org/1999/02/22-rdf-syntax-ns#">
   <cc:Work>
    <dc:type rdf:resource="http://purl.org/dc/dcmitype/StillImage"/>
    <dc:date>2025-12-14T19:22:36.056751</dc:date>
    <dc:format>image/svg+xml</dc:format>
    <dc:creator>
     <cc:Agent>
      <dc:title>Matplotlib v3.8.4, https://matplotlib.org/</dc:title>
     </cc:Agent>
    </dc:creator>
   </cc:Work>
  </rdf:RDF>
 </metadata>
 <defs>
  <style type="text/css">*{stroke-linejoin: round; stroke-linecap: butt}</style>
 </defs>
 <g id="figure_1">
  <g id="patch_1">
   <path d="M 0 351.561875 
L 1000.380312 351.561875 
L 1000.380312 0 
L 0 0 
z
" style="fill: #ffffff"/>
  </g>
  <g id="axes_1">
   <g id="patch_2">
    <path d="M 42.620313 314.005625 
L 993.180313 314.005625 
L 993.180313 33.933625 
L 42.620313 33.933625 
z
" style="fill: #ffffff"/>
   </g>
   <g id="matplotlib.axis_1">
    <g id="xtick_1">
     <g id="line2d_1">
      <path d="M 85.827585 314.005625 
L 85.827585 33.933625 
" clip-path="url(#pc13ea32cc0)" style="fill: none; stroke: #b0b0b0; stroke-opacity: 0.3; stroke-width: 0.8; stroke-linecap: square"/>
     </g>
     <g id="line2d_2">
      <defs>
       <path id="m3c9710ef26" d="M 0 0 
L 0 3.5 
" style="stroke: #000000; stroke-width: 0.8"/>
      </defs>
      <g>
       <use xlink:href="#m3c9710ef26" x="85.827585" y="314.005625" style="stroke: #000000; stroke-width: 0.8"/>
      </g>
     </g>
     <g id="text_1">
      <!-- 0 -->
      <g transform="translate(82.646335 328.604063) scale(0.1 -0.1)">
       <defs>
        <path id="DejaVuSans-30" d="M 2034 4250 
Q 1547 4250 1301 3770 
Q 1056 3291 1056 2328 
Q 1056 1369 1301 889 
Q 1547 409 2034 409 
Q 2525 409 2770 889 
Q 3016 1369 3016 2328 
Q 3016 3291 2770 3770 
Q 2525 4250 2034 4250 
z
M 2034 4750 
Q 2819 4750 3233 4129 
Q 3647 3509 3647 2328 
Q 3647 1150 3233 529 
Q 2819 -91 2034 -91 
Q 1250 -91 836 529 
Q 422 1150 422 2328 
Q 422 3509 836 4129 
Q 1250 4750 2034 4750 
z
" transform="scale(0.015625)"/>
       </defs>
       <use xlink:href="#DejaVuSans-30"/>
      </g>
     </g>
    </g>
    <g id="xtick_2">
     <g id="line2d_3">
      <path d="M 258.656676 314.005625 
L 258.656676 33.933625 
" clip-path="url(#pc13ea32cc0)" style="fill: none; stroke: #b0b0b0; stroke-opacity: 0.3; stroke-width: 0.8; stroke-linecap: square"/>
     </g>
     <g id="line2d_4">
      <g>
       <use xlink:href="#m3c9710ef26" x="258.656676" y="314.005625" style="stroke: #000000; stroke-width: 0.8"/>
      </g>
     </g>
     <g id="text_2">
      <!-- 20 -->
      <g transform="translate(252.294176 328.604063) scale(0.1 -0.1)">
       <defs>
        <path id="DejaVuSans-32" d="M 1228 531 
L 3431 531 
L 3431 0 
L 469 0 
L 469 531 
Q 828 903 1448 1529 
Q 2069 2156 2228 2338 
Q 2531 2678 2651 2914 
Q 2772 3150 2772 3378 
Q 2772 3750 2511 3984 
Q 2250 4219 1831 4219 
Q 1534 4219 1204 4116 
Q 875 4013 500 3803 
L 500 4441 
Q 881 4594 1212 4672 
Q 1544 4750 1819 4750 
Q 2544 4750 2975 4387 
Q 3406 4025 3406 3419 
Q 3406 3131 3298 2873 
Q 3191 2616 2906 2266 
Q 2828 2175 2409 1742 
Q 1991 1309 1228 531 
z
" transform="scale(0.015625)"/>
       </defs>
       <use xlink:href="#DejaVuSans-32"/>
       <use xlink:href="#DejaVuSans-30" x="63.623047"/>
      </g>
     </g>
    </g>
    <g id="xtick_3">
     <g id="line2d_5">
      <path d="M 431.485767 314.005625 
L 431.485767 33.933625 
" clip-path="url(#pc13ea32cc0)" style="fill: none; stroke: #b0b0b0; stroke-opacity: 0.3; stroke-width: 0.8; stroke-linecap: square"/>
     </g>
     <g id="line2d_6">
      <g>
       <use xlink:href="#m3c9710ef26" x="431.485767" y="314.005625" style="stroke: #000000; stroke-width: 0.8"/>
      </g>
     </g>
     <g id="text_3">
      <!-- 40 -->
      <g transform="translate(425.123267 328.604063) scale(0.1 -0.1)">
       <defs>
        <path id="DejaVuSans-34" d="M 2419 4116 
L 825 1625 
L 2419 1625 
L 2419 4116 
z
M 2253 4666 
L 3047 4666 
L 3047 1625 
L 3713 1625 
L 3713 1100 
L 3047 1100 
L 3047 0 
L 2419 0 
L 2419 1100 
L 313 1100 
L 313 1709 
L 2253 4666 
z
" transform="scale(0.015625)"/>
       </defs>
       <use xlink:href="#DejaVuSans-34"/>
       <use xlink:href="#DejaVuSans-30" x="63.623047"/>
      </g>
     </g>
    </g>
    <g id="xtick_4">
     <g id="line2d_7">
      <path d="M 604.314858 314.005625 
L 604.314858 33.933625 
" clip-path="url(#pc13ea32cc0)" style="fill: none; stroke: #b0b0b0; stroke-opacity: 0.3; stroke-width: 0.8; stroke-linecap: square"/>
     </g>
     <g id="line2d_8">
      <g>
       <use xlink:href="#m3c9710ef26" x="604.314858" y="314.005625" style="stroke: #000000; stroke-width: 0.8"/>
      </g>
     </g>
     <g id="text_4">
      <!-- 60 -->
      <g transform="translate(597.952358 328.604063) scale(0.1 -0.1)">
       <defs>
        <path id="DejaVuSans-36" d="M 2113 2584 
Q 1688 2584 1439 2293 
Q 1191 2003 1191 1497 
Q 1191 994 1439 701 
Q 1688 409 2113 409 
Q 2538 409 2786 701 
Q 3034 994 3034 1497 
Q 3034 2003 2786 2293 
Q 2538 2584 2113 2584 
z
M 3366 4563 
L 3366 3988 
Q 3128 4100 2886 4159 
Q 2644 4219 2406 4219 
Q 1781 4219 1451 3797 
Q 1122 3375 1075 2522 
Q 1259 2794 1537 2939 
Q 1816 3084 2150 3084 
Q 2853 3084 3261 2657 
Q 3669 2231 3669 1497 
Q 3669 778 3244 343 
Q 2819 -91 2113 -91 
Q 1303 -91 875 529 
Q 447 1150 447 2328 
Q 447 3434 972 4092 
Q 1497 4750 2381 4750 
Q 2619 4750 2861 4703 
Q 3103 4656 3366 4563 
z
" transform="scale(0.015625)"/>
       </defs>
       <use xlink:href="#DejaVuSans-36"/>
       <use xlink:href="#DejaVuSans-30" x="63.623047"/>
      </g>
     </g>
    </g>
    <g id="xtick_5">
     <g id="line2d_9">
      <path d="M 777.143949 314.005625 
L 777.143949 33.933625 
" clip-path="url(#pc13ea32cc0)" style="fill: none; stroke: #b0b0b0; stroke-opacity: 0.3; stroke-width: 0.8; stroke-linecap: square"/>
     </g>
     <g id="line2d_10">
      <g>
       <use xlink:href="#m3c9710ef26" x="777.143949" y="314.005625" style="stroke: #000000; stroke-width: 0.8"/>
      </g>
     </g>
     <g id="text_5">
      <!-- 80 -->
      <g transform="translate(770.781449 328.604063) scale(0.1 -0.1)">
       <defs>
        <path id="DejaVuSans-38" d="M 2034 2216 
Q 1584 2216 1326 1975 
Q 1069 1734 1069 1313 
Q 1069 891 1326 650 
Q 1584 409 2034 409 
Q 2484 409 2743 651 
Q 3003 894 3003 1313 
Q 3003 1734 2745 1975 
Q 2488 2216 2034 2216 
z
M 1403 2484 
Q 997 2584 770 2862 
Q 544 3141 544 3541 
Q 544 4100 942 4425 
Q 1341 4750 2034 4750 
Q 2731 4750 3128 4425 
Q 3525 4100 3525 3541 
Q 3525 3141 3298 2862 
Q 3072 2584 2669 2484 
Q 3125 2378 3379 2068 
Q 3634 1759 3634 1313 
Q 3634 634 3220 271 
Q 2806 -91 2034 -91 
Q 1263 -91 848 271 
Q 434 634 434 1313 
Q 434 1759 690 2068 
Q 947 2378 1403 2484 
z
M 1172 3481 
Q 1172 3119 1398 2916 
Q 1625 2713 2034 2713 
Q 2441 2713 2670 2916 
Q 2900 3119 2900 3481 
Q 2900 3844 2670 4047 
Q 2441 4250 2034 4250 
Q 1625 4250 1398 4047 
Q 1172 3844 1172 3481 
z
" transform="scale(0.015625)"/>
       </defs>
       <use xlink:href="#DejaVuSans-38"/>
       <use xlink:href="#DejaVuSans-30" x="63.623047"/>
      </g>
     </g>
    </g>
    <g id="xtick_6">
     <g id="line2d_11">
      <path d="M 949.97304 314.005625 
L 949.97304 33.933625 
" clip-path="url(#pc13ea32cc0)" style="fill: none; stroke: #b0b0b0; stroke-opacity: 0.3; stroke-width: 0.8; stroke-linecap: square"/>
     </g>
     <g id="line2d_12">
      <g>
       <use xlink:href="#m3c9710ef26" x="949.97304" y="314.005625" style="stroke: #000000; stroke-width: 0.8"/>
      </g>
     </g>
     <g id="text_6">
      <!-- 100 -->
      <g transform="translate(940.42929 328.604063) scale(0.1 -0.1)">
       <defs>
        <path id="DejaVuSans-31" d="M 794 531 
L 1825 531 
L 1825 4091 
L 703 3866 
L 703 4441 
L 1819 4666 
L 2450 4666 
L 2450 531 
L 3481 531 
L 3481 0 
L 794 0 
L 794 531 
z
" transform="scale(0.015625)"/>
       </defs>
       <use xlink:href="#DejaVuSans-31"/>
       <use xlink:href="#DejaVuSans-30" x="63.623047"/>
       <use xlink:href="#DejaVuSans-30" x="127.246094"/>
      </g>
     </g>
    </g>
    <g id="text_7">
     <!-- Time -->
     <g transform="translate(505.666719 342.282188) scale(0.1 -0.1)">
      <defs>
       <path id="DejaVuSans-54" d="M -19 4666 
L 3928 4666 
L 3928 4134 
L 2272 4134 
L 2272 0 
L 1638 0 
L 1638 4134 
L -19 4134 
L -19 4666 
z
" transform="scale(0.015625)"/>
       <path id="DejaVuSans-69" d="M 603 3500 
L 1178 3500 
L 1178 0 
L 603 0 
L 603 3500 
z
M 603 4863 
L 1178 4863 
L 1178 4134 
L 603 4134 
L 603 4863 
z
" transform="scale(0.015625)"/>
       <path id="DejaVuSans-6d" d="M 3328 2828 
Q 3544 3216 3844 3400 
Q 4144 3584 4550 3584 
Q 5097 3584 5394 3201 
Q 5691 2819 5691 2113 
L 5691 0 
L 5113 0 
L 5113 2094 
Q 5113 2597 4934 2840 
Q 4756 3084 4391 3084 
Q 3944 3084 3684 2787 
Q 3425 2491 3425 1978 
L 3425 0 
L 2847 0 
L 2847 2094 
Q 2847 2600 2669 2842 
Q 2491 3084 2119 3084 
Q 1678 3084 1418 2786 
Q 1159 2488 1159 1978 
L 1159 0 
L 581 0 
L 581 3500 
L 1159 3500 
L 1159 2956 
Q 1356 3278 1631 3431 
Q 1906 3584 2284 3584 
Q 2666 3584 2933 3390 
Q 3200 3197 3328 2828 
z
" transform="scale(0.015625)"/>
       <path id="DejaVuSans-65" d="M 3597 1894 
L 3597 1613 
L 953 1613 
Q 991 1019 1311 708 
Q 1631 397 2203 397 
Q 2534 397 2845 478 
Q 3156 559 3463 722 
L 3463 178 
Q 3153 47 2828 -22 
Q 2503 -91 2169 -91 
Q 1331 -91 842 396 
Q 353 884 353 1716 
Q 353 2575 817 3079 
Q 1281 3584 2069 3584 
Q 2775 3584 3186 3129 
Q 3597 2675 3597 1894 
z
M 3022 2063 
Q 3016 2534 2758 2815 
Q 2500 3097 2075 3097 
Q 1594 3097 1305 2825 
Q 1016 2553 972 2059 
L 3022 2063 
z
" transform="scale(0.015625)"/>
      </defs>
      <use xlink:href="#DejaVuSans-54"/>
      <use xlink:href="#DejaVuSans-69" x="57.958984"/>
      <use xlink:href="#DejaVuSans-6d" x="85.742188"/>
      <use xlink:href="#DejaVuSans-65" x="183.154297"/>
     </g>
    </g>
   </g>
   <g id="matplotlib.axis_2">
    <g id="ytick_1">
     <g id="line2d_13">
      <path d="M 42.620313 307.71227 
L 993.180313 307.71227 
" clip-path="url(#pc13ea32cc0)" style="fill: none; stroke: #b0b0b0; stroke-opacity: 0.3; stroke-width: 0.8; stroke-linecap: square"/>
     </g>
     <g id="line2d_14">
      <defs>
       <path id="m059f0172eb" d="M 0 0 
L -3.5 0 
" style="stroke: #000000; stroke-width: 0.8"/>
      </defs>
      <g>
       <use xlink:href="#m059f0172eb" x="42.620313" y="307.71227" style="stroke: #000000; stroke-width: 0.8"/>
      </g>
     </g>
     <g id="text_8">
      <!-- −1 -->
      <g transform="translate(20.878125 311.511488) scale(0.1 -0.1)">
       <defs>
        <path id="DejaVuSans-2212" d="M 678 2272 
L 4684 2272 
L 4684 1741 
L 678 1741 
L 678 2272 
z
" transform="scale(0.015625)"/>
       </defs>
       <use xlink:href="#DejaVuSans-2212"/>
       <use xlink:href="#DejaVuSans-31" x="83.789062"/>
      </g>
     </g>
    </g>
    <g id="ytick_2">
     <g id="line2d_15">
      <path d="M 42.620313 253.579373 
L 993.180313 253.579373 
" clip-path="url(#pc13ea32cc0)" style="fill: none; stroke: #b0b0b0; stroke-opacity: 0.3; stroke-width: 0.8; stroke-linecap: square"/>
     </g>
     <g id="line2d_16">
      <g>
       <use xlink:href="#m059f0172eb" x="42.620313" y="253.579373" style="stroke: #000000; stroke-width: 0.8"/>
      </g>
     </g>
     <g id="text_9">
      <!-- 0 -->
      <g transform="translate(29.257813 257.378592) scale(0.1 -0.1)">
       <use xlink:href="#DejaVuSans-30"/>
      </g>
     </g>
    </g>
    <g id="ytick_3">
     <g id="line2d_17">
      <path d="M 42.620313 199.446477 
L 993.180313 199.446477 
" clip-path="url(#pc13ea32cc0)" style="fill: none; stroke: #b0b0b0; stroke-opacity: 0.3; stroke-width: 0.8; stroke-linecap: square"/>
     </g>
     <g id="line2d_18">
      <g>
       <use xlink:href="#m059f0172eb" x="42.620313" y="199.446477" style="stroke: #000000; stroke-width: 0.8"/>
      </g>
     </g>
     <g id="text_10">
      <!-- 1 -->
      <g transform="translate(29.257813 203.245695) scale(0.1 -0.1)">
       <use xlink:href="#DejaVuSans-31"/>
      </g>
     </g>
    </g>
    <g id="ytick_4">
     <g id="line2d_19">
      <path d="M 42.620313 145.31358 
L 993.180313 145.31358 
" clip-path="url(#pc13ea32cc0)" style="fill: none; stroke: #b0b0b0; stroke-opacity: 0.3; stroke-width: 0.8; stroke-linecap: square"/>
     </g>
     <g id="line2d_20">
      <g>
       <use xlink:href="#m059f0172eb" x="42.620313" y="145.31358" style="stroke: #000000; stroke-width: 0.8"/>
      </g>
     </g>
     <g id="text_11">
      <!-- 2 -->
      <g transform="translate(29.257813 149.112799) scale(0.1 -0.1)">
       <use xlink:href="#DejaVuSans-32"/>
      </g>
     </g>
    </g>
    <g id="ytick_5">
     <g id="line2d_21">
      <path d="M 42.620313 91.180684 
L 993.180313 91.180684 
" clip-path="url(#pc13ea32cc0)" style="fill: none; stroke: #b0b0b0; stroke-opacity: 0.3; stroke-width: 0.8; stroke-linecap: square"/>
     </g>
     <g id="line2d_22">
      <g>
       <use xlink:href="#m059f0172eb" x="42.620313" y="91.180684" style="stroke: #000000; stroke-width: 0.8"/>
      </g>
     </g>
     <g id="text_12">
      <!-- 3 -->
      <g transform="translate(29.257813 94.979902) scale(0.1 -0.1)">
       <defs>
        <path id="DejaVuSans-33" d="M 2597 2516 
Q 3050 2419 3304 2112 
Q 3559 1806 3559 1356 
Q 3559 666 3084 287 
Q 2609 -91 1734 -91 
Q 1441 -91 1130 -33 
Q 819 25 488 141 
L 488 750 
Q 750 597 1062 519 
Q 1375 441 1716 441 
Q 2309 441 2620 675 
Q 2931 909 2931 1356 
Q 2931 1769 2642 2001 
Q 2353 2234 1838 2234 
L 1294 2234 
L 1294 2753 
L 1863 2753 
Q 2328 2753 2575 2939 
Q 2822 3125 2822 3475 
Q 2822 3834 2567 4026 
Q 2313 4219 1838 4219 
Q 1578 4219 1281 4162 
Q 984 4106 628 3988 
L 628 4550 
Q 988 4650 1302 4700 
Q 1616 4750 1894 4750 
Q 2613 4750 3031 4423 
Q 3450 4097 3450 3541 
Q 3450 3153 3228 2886 
Q 3006 2619 2597 2516 
z
" transform="scale(0.015625)"/>
       </defs>
       <use xlink:href="#DejaVuSans-33"/>
      </g>
     </g>
    </g>
    <g id="ytick_6">
     <g id="line2d_23">
      <path d="M 42.620313 37.047787 
L 993.180313 37.047787 
" clip-path="url(#pc13ea32cc0)" style="fill: none; stroke: #b0b0b0; stroke-opacity: 0.3; stroke-width: 0.8; stroke-linecap: square"/>
     </g>
     <g id="line2d_24">
      <g>
       <use xlink:href="#m059f0172eb" x="42.620313" y="37.047787" style="stroke: #000000; stroke-width: 0.8"/>
      </g>
     </g>
     <g id="text_13">
      <!-- 4 -->
      <g transform="translate(29.257813 40.847006) scale(0.1 -0.1)">
       <use xlink:href="#DejaVuSans-34"/>
      </g>
     </g>
    </g>
    <g id="text_14">
     <!-- Value -->
     <g transform="translate(14.798438 187.700875) rotate(-90) scale(0.1 -0.1)">
      <defs>
       <path id="DejaVuSans-56" d="M 1831 0 
L 50 4666 
L 709 4666 
L 2188 738 
L 3669 4666 
L 4325 4666 
L 2547 0 
L 1831 0 
z
" transform="scale(0.015625)"/>
       <path id="DejaVuSans-61" d="M 2194 1759 
Q 1497 1759 1228 1600 
Q 959 1441 959 1056 
Q 959 750 1161 570 
Q 1363 391 1709 391 
Q 2188 391 2477 730 
Q 2766 1069 2766 1631 
L 2766 1759 
L 2194 1759 
z
M 3341 1997 
L 3341 0 
L 2766 0 
L 2766 531 
Q 2569 213 2275 61 
Q 1981 -91 1556 -91 
Q 1019 -91 701 211 
Q 384 513 384 1019 
Q 384 1609 779 1909 
Q 1175 2209 1959 2209 
L 2766 2209 
L 2766 2266 
Q 2766 2663 2505 2880 
Q 2244 3097 1772 3097 
Q 1472 3097 1187 3025 
Q 903 2953 641 2809 
L 641 3341 
Q 956 3463 1253 3523 
Q 1550 3584 1831 3584 
Q 2591 3584 2966 3190 
Q 3341 2797 3341 1997 
z
" transform="scale(0.015625)"/>
       <path id="DejaVuSans-6c" d="M 603 4863 
L 1178 4863 
L 1178 0 
L 603 0 
L 603 4863 
z
" transform="scale(0.015625)"/>
       <path id="DejaVuSans-75" d="M 544 1381 
L 544 3500 
L 1119 3500 
L 1119 1403 
Q 1119 906 1312 657 
Q 1506 409 1894 409 
Q 2359 409 2629 706 
Q 2900 1003 2900 1516 
L 2900 3500 
L 3475 3500 
L 3475 0 
L 2900 0 
L 2900 538 
Q 2691 219 2414 64 
Q 2138 -91 1772 -91 
Q 1169 -91 856 284 
Q 544 659 544 1381 
z
M 1991 3584 
L 1991 3584 
z
" transform="scale(0.015625)"/>
      </defs>
      <use xlink:href="#DejaVuSans-56"/>
      <use xlink:href="#DejaVuSans-61" x="60.658203"/>
      <use xlink:href="#DejaVuSans-6c" x="121.9375"/>
      <use xlink:href="#DejaVuSans-75" x="149.720703"/>
      <use xlink:href="#DejaVuSans-65" x="213.099609"/>
     </g>
    </g>
   </g>
   <g id="line2d_25">
    <path d="M 85.827585 234.183096 
L 86.692596 230.989368 
L 87.557606 237.738055 
L 88.422617 226.728098 
L 89.287627 246.535683 
L 90.152638 237.082764 
L 91.017648 246.049867 
L 91.882658 246.556311 
L 92.747669 251.612746 
L 93.612679 250.637315 
L 94.47769 262.287925 
L 95.3427 262.510269 
L 96.207711 260.756201 
L 97.072721 265.052706 
L 97.937732 281.533817 
L 98.802742 276.405366 
L 99.667753 278.646145 
L 100.532763 284.755079 
L 101.397774 285.436562 
L 102.262784 288.493993 
L 103.127795 283.518869 
L 103.992805 287.578596 
L 104.857815 301.264752 
L 105.722826 301.27508 
L 106.587836 299.008383 
L 107.452847 276.492398 
L 108.317857 296.216734 
L 109.182868 290.449364 
L 110.047878 294.35601 
L 110.912889 285.00496 
L 111.777899 286.907508 
L 112.64291 288.509855 
L 113.50792 278.823687 
L 114.372931 292.080693 
L 115.237941 273.44524 
L 116.102952 272.910506 
L 116.967962 275.27726 
L 117.832972 263.864573 
L 118.697983 250.75785 
L 119.562993 263.153676 
L 120.428004 248.992552 
L 121.293014 249.017525 
L 122.158025 249.854678 
L 123.023035 243.109689 
L 123.888046 246.242184 
L 124.753056 228.72876 
L 125.618067 229.92876 
L 127.348088 221.525674 
L 128.213098 221.802619 
L 129.078108 227.310645 
L 129.943119 212.165882 
L 130.808129 215.267099 
L 131.67314 219.285585 
L 132.53815 217.373321 
L 133.403161 209.008038 
L 134.268171 212.173754 
L 135.133182 208.725987 
L 135.998192 211.601456 
L 136.863203 221.203614 
L 137.728213 212.148851 
L 138.593224 219.737157 
L 139.458234 215.128878 
L 140.323245 221.356994 
L 141.188255 216.43967 
L 142.053265 219.3938 
L 142.918276 242.776933 
L 143.783286 230.463972 
L 144.648297 231.981481 
L 145.513307 246.088281 
L 146.378318 245.529591 
L 147.243328 247.086385 
L 148.108339 243.320673 
L 148.973349 253.893535 
L 149.83836 249.66847 
L 150.70337 264.281884 
L 151.568381 272.332666 
L 152.433391 272.367752 
L 153.298401 276.904453 
L 154.163412 275.246395 
L 155.028422 273.005054 
L 155.893433 287.521045 
L 156.758443 277.075512 
L 157.623454 290.817135 
L 158.488464 278.314524 
L 159.353475 285.557467 
L 160.218485 299.104823 
L 161.083496 298.408232 
L 161.948506 299.269011 
L 162.813517 284.829129 
L 163.678527 295.505198 
L 164.543538 298.391011 
L 165.408548 292.030727 
L 166.273558 288.667268 
L 167.138569 279.141113 
L 168.003579 284.603549 
L 168.86859 282.783189 
L 169.7336 268.644759 
L 170.598611 271.232297 
L 171.463621 274.600133 
L 172.328632 253.642784 
L 173.193642 260.825921 
L 174.058653 252.447866 
L 174.923663 262.899588 
L 175.788674 249.303971 
L 176.653684 242.23523 
L 177.518695 254.437473 
L 178.383705 241.369449 
L 179.248715 226.068415 
L 180.113726 227.686062 
L 180.978736 217.223421 
L 181.843747 226.541607 
L 182.708757 216.71268 
L 183.573768 216.611779 
L 184.438778 213.714742 
L 185.303789 217.564159 
L 186.168799 213.678716 
L 187.03381 218.375993 
L 187.89882 209.53094 
L 188.763831 216.395625 
L 189.628841 213.497423 
L 190.493851 212.602166 
L 191.358862 218.882698 
L 192.223872 210.847613 
L 193.088883 210.339004 
L 193.953893 216.772627 
L 194.818904 228.175369 
L 195.683914 220.732464 
L 196.548925 222.270755 
L 197.413935 224.29692 
L 198.278946 233.151659 
L 199.143956 231.459825 
L 200.008967 225.379933 
L 200.873977 245.581291 
L 201.738988 245.388563 
L 202.603998 251.466713 
L 203.469008 264.211324 
L 204.334019 246.818341 
L 205.199029 248.077425 
L 206.06404 271.808367 
L 206.92905 264.227404 
L 207.794061 269.062596 
L 208.659071 284.657893 
L 209.524082 270.95531 
L 210.389092 281.39524 
L 211.254103 283.232725 
L 212.119113 284.432321 
L 212.984124 280.414782 
L 213.849134 287.996259 
L 214.714145 291.911081 
L 215.579155 297.133985 
L 216.444165 290.773745 
L 217.309176 299.020715 
L 218.174186 288.535248 
L 219.039197 284.802818 
L 219.904207 288.282891 
L 220.769218 290.034212 
L 221.634228 289.857749 
L 222.499239 280.20348 
L 223.364249 280.318726 
L 224.22926 263.688073 
L 225.09427 273.846783 
L 225.959281 276.529266 
L 226.824291 262.696941 
L 227.689301 266.049838 
L 228.554312 264.831682 
L 229.419322 250.435555 
L 230.284333 258.513234 
L 231.149343 241.81628 
L 232.014354 246.133245 
L 232.879364 245.24155 
L 233.744375 236.96701 
L 234.609385 225.602787 
L 235.474396 235.656327 
L 236.339406 223.263111 
L 237.204417 226.590802 
L 238.069427 228.089557 
L 238.934438 212.276293 
L 239.799448 219.302305 
L 240.664458 205.810358 
L 241.529469 218.769082 
L 242.394479 202.414259 
L 243.25949 204.578051 
L 244.1245 219.412182 
L 244.989511 214.016263 
L 245.854521 216.420899 
L 246.719532 213.327514 
L 247.584542 210.760831 
L 248.449553 204.19408 
L 249.314563 204.025008 
L 250.179574 212.830796 
L 251.044584 214.789258 
L 251.909595 226.311062 
L 252.774605 216.803386 
L 253.639615 220.630027 
L 254.504626 218.72669 
L 255.369636 221.994906 
L 256.234647 234.350971 
L 257.099657 229.643707 
L 257.964668 245.640756 
L 258.829678 240.624788 
L 259.694689 253.291061 
L 260.559699 256.224618 
L 261.42471 258.702301 
L 263.154731 260.619749 
L 264.019741 260.7502 
L 264.884751 271.648746 
L 265.749762 290.195539 
L 266.614772 280.50482 
L 267.479783 280.164102 
L 268.344793 295.392074 
L 269.209804 277.266735 
L 270.074814 287.93152 
L 270.939825 288.741808 
L 271.804835 278.745085 
L 272.669846 283.102562 
L 273.534856 280.711889 
L 274.399867 285.845681 
L 275.264877 285.703905 
L 276.129888 279.224144 
L 276.994898 277.592156 
L 277.859908 270.601263 
L 278.724919 277.896834 
L 279.589929 274.456975 
L 280.45494 270.037067 
L 281.31995 256.175793 
L 282.184961 260.271435 
L 283.049971 259.853177 
L 283.914982 256.827914 
L 284.779992 253.397638 
L 285.645003 249.44468 
L 286.510013 243.259298 
L 287.375024 230.848108 
L 288.240034 230.643381 
L 289.105045 219.178273 
L 289.970055 235.036689 
L 290.835065 221.392218 
L 291.700076 214.701339 
L 292.565086 215.092294 
L 293.430097 204.336533 
L 294.295107 210.725898 
L 295.160118 207.377953 
L 296.025128 206.349986 
L 296.890139 198.381009 
L 297.755149 196.656556 
L 298.62016 199.708743 
L 299.48517 200.233457 
L 300.350181 204.746805 
L 302.080201 194.344712 
L 303.810222 210.686066 
L 304.675233 212.792566 
L 305.540243 210.732734 
L 306.405254 211.135496 
L 307.270264 214.062044 
L 308.135275 213.988866 
L 309.000285 232.39306 
L 309.865296 235.518931 
L 310.730306 233.193277 
L 311.595317 225.819863 
L 312.460327 231.99385 
L 313.325338 237.187694 
L 314.190348 232.191214 
L 315.055358 244.176905 
L 315.920369 252.395746 
L 316.785379 258.957529 
L 317.65039 255.462467 
L 318.5154 261.195811 
L 319.380411 262.853731 
L 320.245421 260.470083 
L 321.110432 273.253258 
L 321.975442 277.464956 
L 322.840453 270.622066 
L 323.705463 285.482944 
L 324.570474 285.208888 
L 325.435484 286.386362 
L 326.300495 275.413831 
L 327.165505 279.624355 
L 328.030515 277.026232 
L 328.895526 280.189246 
L 329.760536 282.347257 
L 330.625547 271.309049 
L 331.490557 270.972625 
L 332.355568 281.849032 
L 333.220578 270.736193 
L 334.085589 276.156189 
L 334.950599 255.512842 
L 335.81561 258.676148 
L 336.68062 255.078208 
L 337.545631 250.659216 
L 338.410641 245.029639 
L 339.275651 244.125788 
L 340.140662 242.483826 
L 341.005672 231.584428 
L 341.870683 236.190274 
L 342.735693 221.12092 
L 343.600704 227.824723 
L 344.465714 220.171367 
L 345.330725 224.115531 
L 346.195735 212.174699 
L 347.060746 214.244109 
L 347.925756 207.640494 
L 348.790767 211.664785 
L 349.655777 201.071465 
L 350.520788 198.844407 
L 351.385798 203.761733 
L 352.250808 200.011666 
L 353.115819 199.569314 
L 353.980829 194.361742 
L 354.84584 192.291586 
L 355.71085 198.120491 
L 356.575861 190.313241 
L 357.440871 196.019037 
L 359.170892 199.543074 
L 360.035903 204.541567 
L 360.900913 203.350217 
L 361.765924 208.278481 
L 362.630934 210.707847 
L 363.495944 204.656869 
L 364.360955 227.351293 
L 365.225965 220.512491 
L 366.090976 220.809046 
L 366.955986 229.258563 
L 367.820997 234.981222 
L 368.686007 244.37266 
L 369.551018 240.622018 
L 370.416028 253.859365 
L 371.281039 241.73533 
L 372.146049 249.469564 
L 373.01106 254.697662 
L 373.87607 252.52368 
L 374.741081 250.905917 
L 375.606091 259.107399 
L 376.471101 263.48201 
L 377.336112 271.673646 
L 378.201122 281.221618 
L 379.066133 269.994007 
L 379.931143 267.685351 
L 380.796154 265.866094 
L 381.661164 272.317113 
L 382.526175 259.473354 
L 383.391185 278.103558 
L 384.256196 266.228463 
L 385.121206 263.05436 
L 385.986217 268.983444 
L 386.851227 268.08139 
L 387.716238 270.508672 
L 388.581248 264.443945 
L 389.446258 251.489339 
L 390.311269 250.870791 
L 391.176279 252.214316 
L 392.04129 250.924071 
L 392.9063 252.321511 
L 393.771311 254.469344 
L 395.501332 240.721853 
L 396.366342 230.09172 
L 397.231353 227.706232 
L 398.096363 220.308963 
L 398.961374 217.581638 
L 399.826384 219.799833 
L 400.691394 204.090092 
L 401.556405 209.253013 
L 402.421415 204.208866 
L 403.286426 201.997607 
L 404.151436 198.063453 
L 405.881457 191.470509 
L 406.746468 192.236474 
L 407.611478 190.478427 
L 408.476489 196.955356 
L 409.341499 184.812442 
L 410.20651 179.36562 
L 411.07152 179.034123 
L 411.936531 192.959825 
L 412.801541 186.395904 
L 413.666551 194.326335 
L 414.531562 192.783358 
L 415.396572 199.172882 
L 416.261583 195.559444 
L 417.126593 201.687154 
L 417.991604 205.252078 
L 418.856614 197.728791 
L 419.721625 206.628643 
L 420.586635 220.465475 
L 421.451646 218.722062 
L 422.316656 223.203365 
L 423.181667 230.965176 
L 424.046677 231.731097 
L 424.911688 238.498743 
L 425.776698 237.683946 
L 426.641708 236.026032 
L 427.506719 243.449659 
L 428.371729 239.168398 
L 429.23674 241.889216 
L 430.10175 253.807198 
L 430.966761 255.404113 
L 431.831771 252.918613 
L 432.696782 272.285355 
L 433.561792 260.086176 
L 434.426803 260.08812 
L 435.291813 259.096728 
L 436.156824 264.012951 
L 437.021834 267.220574 
L 437.886844 261.423705 
L 438.751855 261.820969 
L 439.616865 268.030913 
L 440.481876 256.830784 
L 441.346886 250.135904 
L 442.211897 244.685171 
L 443.076907 253.76921 
L 443.941918 240.894099 
L 444.806928 252.19988 
L 445.671939 246.32978 
L 446.536949 249.424544 
L 447.40196 240.670524 
L 448.26697 250.361138 
L 449.131981 239.929819 
L 449.996991 231.112199 
L 450.862001 218.032668 
L 451.727012 225.625744 
L 452.592022 216.093661 
L 453.457033 211.920582 
L 454.322043 200.671026 
L 455.187054 208.051895 
L 456.052064 203.878746 
L 457.782085 182.252026 
L 458.647096 199.302474 
L 459.512106 182.556926 
L 460.377117 188.442675 
L 461.242127 186.368582 
L 462.107138 165.145687 
L 462.972148 179.808037 
L 463.837158 177.328718 
L 464.702169 180.077714 
L 465.567179 172.638173 
L 466.43219 185.947785 
L 467.2972 171.912525 
L 468.162211 179.134512 
L 469.027221 184.408804 
L 469.892232 181.670535 
L 470.757242 187.560308 
L 471.622253 196.686507 
L 472.487263 194.672818 
L 473.352274 188.789264 
L 474.217284 199.616455 
L 475.082294 199.282211 
L 475.947305 195.960728 
L 476.812315 207.231246 
L 477.677326 211.316781 
L 478.542336 221.55739 
L 479.407347 215.184849 
L 480.272357 218.576401 
L 481.137368 227.051147 
L 482.002378 224.959235 
L 482.867389 226.020075 
L 483.732399 235.071673 
L 484.59741 234.404774 
L 485.46242 247.334714 
L 486.327431 247.982192 
L 487.192441 245.177897 
L 488.057451 248.408447 
L 488.922462 253.01723 
L 489.787472 253.654392 
L 490.652483 241.424096 
L 491.517493 251.019305 
L 492.382504 258.746131 
L 493.247514 249.796864 
L 494.112525 260.647547 
L 494.977535 244.204529 
L 495.842546 256.540727 
L 496.707556 252.473449 
L 497.572567 250.494642 
L 498.437577 250.329367 
L 499.302588 236.657816 
L 500.167598 238.547986 
L 501.897619 234.137383 
L 502.762629 229.34516 
L 503.62764 221.845159 
L 504.49265 217.442495 
L 505.357661 228.166285 
L 506.222671 218.608691 
L 507.952692 204.850096 
L 508.817703 209.691677 
L 509.682713 196.165253 
L 510.547724 191.344826 
L 512.277744 173.656083 
L 513.142755 183.177288 
L 514.007765 186.121314 
L 514.872776 175.932366 
L 515.737786 183.265558 
L 516.602797 173.695634 
L 517.467807 167.743381 
L 518.332818 172.857733 
L 519.197828 169.143818 
L 520.062839 162.786529 
L 520.927849 173.651813 
L 521.79286 170.996217 
L 522.65787 171.944823 
L 523.522881 174.800299 
L 524.387891 175.297729 
L 525.252901 167.174336 
L 526.117912 174.566463 
L 526.982922 175.93402 
L 527.847933 181.374366 
L 528.712943 190.432676 
L 529.577954 186.109729 
L 530.442964 187.964006 
L 531.307975 187.675849 
L 532.172985 185.359191 
L 533.037996 199.370947 
L 533.903006 205.92795 
L 534.768017 206.928083 
L 535.633027 214.691159 
L 536.498037 217.347399 
L 537.363048 224.201412 
L 538.228058 226.228363 
L 539.093069 233.945584 
L 539.958079 230.618922 
L 540.82309 235.602216 
L 541.6881 226.517094 
L 542.553111 239.643136 
L 543.418121 237.235419 
L 544.283132 237.995797 
L 545.148142 244.543585 
L 546.013153 244.686824 
L 546.878163 252.033266 
L 547.743174 246.170707 
L 548.608184 241.193667 
L 549.473194 238.986158 
L 550.338205 242.204932 
L 551.203215 237.919435 
L 552.068226 239.578064 
L 552.933236 242.691994 
L 553.798247 238.185811 
L 554.663257 232.287389 
L 555.528268 223.522399 
L 556.393278 228.187732 
L 557.258289 223.853653 
L 558.123299 212.608893 
L 558.98831 207.337758 
L 559.85332 213.803418 
L 560.718331 205.092974 
L 561.583341 206.056899 
L 563.313362 188.411916 
L 564.178372 196.445626 
L 565.043383 179.65104 
L 565.908393 178.261489 
L 566.773404 174.991737 
L 567.638414 175.221789 
L 568.503425 171.925625 
L 569.368435 165.671553 
L 570.233446 174.257595 
L 571.098456 157.792556 
L 571.963467 164.660092 
L 572.828477 155.351111 
L 573.693487 166.087273 
L 574.558498 158.618551 
L 575.423508 155.193648 
L 576.288519 159.965302 
L 577.153529 153.045066 
L 578.01854 166.936715 
L 578.88355 153.447968 
L 579.748561 154.147652 
L 580.613571 166.724458 
L 581.478582 161.700451 
L 582.343592 174.233463 
L 583.208603 161.932819 
L 584.073613 165.107521 
L 584.938624 174.307115 
L 585.803634 171.444427 
L 587.533655 189.330008 
L 588.398665 194.075937 
L 589.263676 192.801877 
L 590.128686 189.649032 
L 590.993697 203.916937 
L 591.858707 196.48721 
L 592.723718 203.876697 
L 593.588728 216.407467 
L 594.453739 200.775796 
L 595.318749 216.497469 
L 596.18376 221.658162 
L 597.04877 225.753131 
L 597.913781 219.224057 
L 598.778791 223.403303 
L 599.643801 233.280925 
L 600.508812 226.202461 
L 601.373822 233.579084 
L 602.238833 230.651972 
L 603.103843 222.225787 
L 603.968854 220.863312 
L 604.833864 232.205985 
L 605.698875 237.759769 
L 606.563885 223.842404 
L 607.428896 212.341155 
L 608.293906 224.182325 
L 609.158917 219.466602 
L 610.023927 212.701995 
L 610.888937 212.158739 
L 611.753948 204.337797 
L 612.618958 204.343018 
L 613.483969 200.371498 
L 614.348979 199.420375 
L 615.21399 195.523225 
L 616.079 191.037311 
L 616.944011 181.553768 
L 617.809021 190.860947 
L 618.674032 187.521383 
L 619.539042 168.527127 
L 620.404053 183.328941 
L 621.269063 165.750572 
L 622.134074 157.850643 
L 622.999084 155.494073 
L 623.864094 163.342326 
L 624.729105 165.359503 
L 625.594115 150.495334 
L 626.459126 140.895162 
L 627.324136 155.876643 
L 628.189147 156.368668 
L 629.054157 135.954214 
L 629.919168 140.224394 
L 630.784178 142.566096 
L 631.649189 147.354876 
L 632.514199 140.841945 
L 633.37921 142.306465 
L 634.24422 148.606924 
L 635.109231 143.666105 
L 635.974241 151.125842 
L 636.839251 154.943793 
L 637.704262 140.109767 
L 638.569272 154.449784 
L 639.434283 152.581611 
L 640.299293 163.105175 
L 641.164304 159.410807 
L 642.029314 163.035676 
L 642.894325 178.070771 
L 643.759335 169.685764 
L 644.624346 179.604393 
L 645.489356 179.714291 
L 646.354367 187.658788 
L 647.219377 187.473135 
L 648.084387 186.725062 
L 648.949398 191.278524 
L 649.814408 190.23635 
L 650.679419 208.096455 
L 652.40944 200.676487 
L 653.27445 216.837572 
L 654.139461 202.481799 
L 655.004471 215.25107 
L 655.869482 211.451168 
L 656.734492 212.710335 
L 657.599503 210.272128 
L 658.464513 214.69855 
L 659.329524 203.185512 
L 660.194534 210.831347 
L 661.059544 211.851568 
L 661.924555 217.730486 
L 662.789565 198.08154 
L 663.654576 208.505333 
L 664.519586 203.795533 
L 665.384597 206.011271 
L 666.249607 200.223344 
L 667.114618 203.762813 
L 667.979628 189.294698 
L 668.844639 194.088659 
L 669.709649 176.703586 
L 670.57466 171.922273 
L 671.43967 170.596246 
L 672.304681 169.727241 
L 673.169691 171.675828 
L 674.034701 169.519682 
L 674.899712 157.563631 
L 675.764722 160.070046 
L 676.629733 148.793496 
L 677.494743 145.248365 
L 678.359754 152.232827 
L 679.224764 139.603761 
L 680.089775 132.595804 
L 680.954785 129.550772 
L 681.819796 142.118093 
L 682.684806 129.858275 
L 683.549817 132.126403 
L 684.414827 115.949874 
L 685.279837 131.457632 
L 686.144848 132.577763 
L 687.009858 127.119966 
L 687.874869 130.396791 
L 688.739879 132.161179 
L 689.60489 123.055037 
L 690.4699 133.963386 
L 691.334911 132.997936 
L 692.199921 128.160567 
L 693.064932 140.093592 
L 693.929942 139.722692 
L 694.794953 147.157131 
L 695.659963 149.228383 
L 696.524974 158.511722 
L 697.389984 150.580835 
L 698.254994 152.795395 
L 699.120005 151.886765 
L 699.985015 161.186123 
L 700.850026 166.298976 
L 701.715036 177.083315 
L 702.580047 173.533125 
L 703.445057 181.550614 
L 704.310068 181.616617 
L 705.175078 178.751534 
L 706.905099 187.323963 
L 707.77011 194.756136 
L 708.63512 204.852425 
L 709.50013 194.564348 
L 711.230151 206.189219 
L 712.095162 199.975497 
L 712.960172 197.554608 
L 713.825183 200.075777 
L 714.690193 204.716502 
L 715.555204 200.141542 
L 716.420214 201.895809 
L 717.285225 192.994406 
L 718.150235 201.609159 
L 719.015246 191.409712 
L 719.880256 192.605221 
L 720.745267 179.975117 
L 721.610277 183.912172 
L 722.475287 175.827212 
L 723.340298 177.077781 
L 724.205308 175.029334 
L 725.070319 156.888241 
L 725.935329 159.762658 
L 726.80034 157.39509 
L 727.66535 157.70791 
L 728.530361 143.83264 
L 729.395371 145.320629 
L 730.260382 142.155845 
L 731.125392 131.618338 
L 731.990403 135.402509 
L 732.855413 123.554641 
L 733.720424 123.668629 
L 734.585434 127.355324 
L 735.450444 118.926637 
L 736.315455 118.874743 
L 737.180465 115.894504 
L 738.045476 104.702215 
L 738.910486 108.440873 
L 739.775497 104.001406 
L 740.640507 112.051343 
L 741.505518 113.669303 
L 742.370528 95.940369 
L 743.235539 109.600505 
L 744.100549 110.002816 
L 744.96556 128.94677 
L 745.83057 111.058596 
L 746.69558 121.296485 
L 747.560591 123.99064 
L 748.425601 122.643782 
L 749.290612 124.534511 
L 750.155622 128.677983 
L 751.020633 127.135462 
L 751.885643 135.301423 
L 752.750654 135.343099 
L 753.615664 144.428871 
L 754.480675 130.502359 
L 755.345685 146.662358 
L 756.210696 148.230492 
L 757.075706 152.42887 
L 757.940717 163.062862 
L 758.805727 168.577999 
L 759.670737 164.172576 
L 760.535748 158.430006 
L 761.400758 172.233265 
L 762.265769 177.619329 
L 763.130779 176.363188 
L 763.99579 179.468317 
L 764.8608 183.675532 
L 765.725811 177.458387 
L 766.590821 182.192239 
L 767.455832 175.15547 
L 768.320842 184.5502 
L 770.915874 171.009417 
L 771.780884 186.091663 
L 773.510905 172.181627 
L 774.375915 176.756481 
L 775.240926 171.968391 
L 776.105936 171.948662 
L 776.970947 165.771622 
L 777.835957 171.28594 
L 778.700968 156.328992 
L 779.565978 164.323124 
L 780.430989 149.78983 
L 781.295999 137.833133 
L 782.16101 143.983666 
L 783.02602 134.736133 
L 783.89103 144.807234 
L 784.756041 127.912367 
L 785.621051 115.029697 
L 786.486062 108.897969 
L 787.351072 119.248994 
L 788.216083 113.29122 
L 789.081093 105.93168 
L 789.946104 104.353221 
L 790.811114 98.354902 
L 792.541135 90.813665 
L 793.406146 95.582413 
L 794.271156 86.313942 
L 795.136167 98.070708 
L 796.001177 83.025402 
L 796.866187 89.030265 
L 797.731198 88.309356 
L 798.596208 90.135991 
L 799.461219 91.484925 
L 800.326229 96.128684 
L 801.19124 99.65901 
L 802.05625 94.264415 
L 802.921261 97.320158 
L 803.786271 105.738403 
L 804.651282 99.305728 
L 805.516292 102.662797 
L 806.381303 110.185463 
L 807.246313 108.592045 
L 808.111324 118.100896 
L 808.976334 130.559936 
L 809.841344 128.130518 
L 810.706355 122.420669 
L 811.571365 135.730933 
L 812.436376 137.730866 
L 813.301386 136.189514 
L 814.166397 138.30724 
L 815.031407 161.654117 
L 815.896418 148.246108 
L 816.761428 148.737956 
L 817.626439 156.907382 
L 818.491449 154.456259 
L 819.35646 150.350974 
L 820.22147 158.97638 
L 821.08648 160.267998 
L 821.951491 168.056327 
L 822.816501 171.653256 
L 823.681512 161.430852 
L 824.546522 165.514627 
L 825.411533 162.894828 
L 826.276543 171.487649 
L 827.141554 159.252922 
L 828.006564 163.212405 
L 828.871575 154.239307 
L 829.736585 151.375442 
L 830.601596 157.179451 
L 831.466606 144.516886 
L 832.331617 137.162749 
L 833.196627 138.887889 
L 834.061637 142.322644 
L 834.926648 143.098981 
L 835.791658 126.082335 
L 836.656669 125.919468 
L 837.521679 127.001053 
L 838.38669 110.932137 
L 839.2517 107.707638 
L 840.116711 102.706843 
L 840.981721 103.125718 
L 841.846732 99.246212 
L 842.711742 94.389793 
L 843.576753 96.534375 
L 844.441763 78.382061 
L 845.306774 71.835742 
L 846.171784 77.483969 
L 847.036794 79.285122 
L 847.901805 75.338492 
L 848.766815 75.488931 
L 849.631826 75.17949 
L 850.496836 84.779252 
L 851.361847 76.328265 
L 852.226857 78.648008 
L 853.091868 70.090848 
L 853.956878 71.130507 
L 854.821889 79.446597 
L 855.686899 68.883619 
L 856.55191 82.102672 
L 857.41692 73.28401 
L 858.28193 75.335574 
L 859.146941 87.148686 
L 860.011951 84.942856 
L 860.876962 85.810772 
L 862.606983 107.429074 
L 864.337004 98.799489 
L 865.202014 107.936022 
L 866.067025 105.2614 
L 866.932035 115.625672 
L 867.797046 115.965195 
L 868.662056 126.146485 
L 869.527067 118.894033 
L 870.392077 130.862093 
L 871.257087 130.840665 
L 872.122098 139.470217 
L 872.987108 132.66098 
L 873.852119 143.829205 
L 874.717129 138.790734 
L 875.58214 138.104111 
L 876.44715 147.674518 
L 877.312161 148.36141 
L 878.177171 147.014936 
L 879.042182 149.18269 
L 879.907192 149.94058 
L 880.772203 140.750544 
L 881.637213 142.009823 
L 882.502224 131.504269 
L 883.367234 132.833659 
L 885.097255 141.204887 
L 885.962265 130.88514 
L 886.827276 115.579979 
L 887.692286 115.081293 
L 888.557297 121.460784 
L 890.287318 113.358955 
L 891.152328 96.808422 
L 892.017339 107.575341 
L 894.61237 84.132869 
L 895.47738 79.841746 
L 896.342391 77.619181 
L 897.207401 70.834923 
L 898.072412 76.499307 
L 898.937422 58.843692 
L 899.802433 57.711044 
L 900.667443 61.049911 
L 901.532454 63.548186 
L 902.397464 68.573208 
L 903.262475 50.859248 
L 904.127485 56.064866 
L 904.992496 47.053995 
L 905.857506 62.001178 
L 906.722517 46.66417 
L 907.587527 58.308434 
L 908.452537 47.567969 
L 909.317548 51.965919 
L 910.182558 55.099865 
L 911.047569 55.117433 
L 911.912579 53.177323 
L 912.77759 58.823579 
L 913.6426 55.446705 
L 914.507611 62.532983 
L 915.372621 62.46789 
L 916.237632 59.093224 
L 917.102642 72.617062 
L 917.967653 70.561385 
L 918.832663 85.651768 
L 920.562684 74.540362 
L 921.427694 90.146744 
L 922.292705 96.305569 
L 923.157715 90.204241 
L 924.022726 115.144515 
L 924.887736 105.223308 
L 925.752747 104.872473 
L 926.617757 106.201103 
L 927.482768 102.226019 
L 928.347778 114.592667 
L 929.212789 116.351739 
L 930.077799 133.742258 
L 930.94281 129.58455 
L 932.67283 117.637782 
L 933.537841 119.353369 
L 934.402851 116.24522 
L 935.267862 118.05008 
L 936.132872 120.441575 
L 936.997883 126.525502 
L 937.862893 113.850444 
L 938.727904 118.275329 
L 939.592914 113.131967 
L 940.457925 103.723324 
L 941.322935 104.533039 
L 942.187946 101.169491 
L 943.052956 100.971878 
L 943.917967 108.982505 
L 944.782977 90.998144 
L 945.647987 94.706686 
L 946.512998 89.436849 
L 947.378008 81.659074 
L 948.243019 74.954617 
L 949.108029 75.802633 
L 949.97304 58.403369 
L 949.97304 58.403369 
" clip-path="url(#pc13ea32cc0)" style="fill: none; stroke: #4682b4; stroke-linecap: square"/>
   </g>
   <g id="line2d_26">
    <path d="M 42.620313 203.836115 
L 993.180313 203.836115 
" clip-path="url(#pc13ea32cc0)" style="fill: none; stroke: #ffa500; stroke-opacity: 0.7; stroke-width: 1.5; stroke-linecap: square"/>
   </g>
   <g id="line2d_27">
    <path d="M 42.620313 253.343004 
L 993.180313 253.343004 
" clip-path="url(#pc13ea32cc0)" style="fill: none; stroke-dasharray: 5.55,2.4; stroke-dashoffset: 0; stroke: #008000; stroke-opacity: 0.7; stroke-width: 1.5"/>
   </g>
   <g id="patch_3">
    <path d="M 42.620313 314.005625 
L 42.620313 33.933625 
" style="fill: none; stroke: #000000; stroke-width: 0.8; stroke-linejoin: miter; stroke-linecap: square"/>
   </g>
   <g id="patch_4">
    <path d="M 993.180313 314.005625 
L 993.180313 33.933625 
" style="fill: none; stroke: #000000; stroke-width: 0.8; stroke-linejoin: miter; stroke-linecap: square"/>
   </g>
   <g id="patch_5">
    <path d="M 42.620313 314.005625 
L 993.180312 314.005625 
" style="fill: none; stroke: #000000; stroke-width: 0.8; stroke-linejoin: miter; stroke-linecap: square"/>
   </g>
   <g id="patch_6">
    <path d="M 42.620313 33.933625 
L 993.180312 33.933625 
" style="fill: none; stroke: #000000; stroke-width: 0.8; stroke-linejoin: miter; stroke-linecap: square"/>
   </g>
   <g id="text_15">
    <!-- Series 5 -->
    <g transform="translate(495.73875 15.558281) scale(0.11 -0.11)">
     <defs>
      <path id="DejaVuSans-53" d="M 3425 4513 
L 3425 3897 
Q 3066 4069 2747 4153 
Q 2428 4238 2131 4238 
Q 1616 4238 1336 4038 
Q 1056 3838 1056 3469 
Q 1056 3159 1242 3001 
Q 1428 2844 1947 2747 
L 2328 2669 
Q 3034 2534 3370 2195 
Q 3706 1856 3706 1288 
Q 3706 609 3251 259 
Q 2797 -91 1919 -91 
Q 1588 -91 1214 -16 
Q 841 59 441 206 
L 441 856 
Q 825 641 1194 531 
Q 1563 422 1919 422 
Q 2459 422 2753 634 
Q 3047 847 3047 1241 
Q 3047 1584 2836 1778 
Q 2625 1972 2144 2069 
L 1759 2144 
Q 1053 2284 737 2584 
Q 422 2884 422 3419 
Q 422 4038 858 4394 
Q 1294 4750 2059 4750 
Q 2388 4750 2728 4690 
Q 3069 4631 3425 4513 
z
" transform="scale(0.015625)"/>
      <path id="DejaVuSans-72" d="M 2631 2963 
Q 2534 3019 2420 3045 
Q 2306 3072 2169 3072 
Q 1681 3072 1420 2755 
Q 1159 2438 1159 1844 
L 1159 0 
L 581 0 
L 581 3500 
L 1159 3500 
L 1159 2956 
Q 1341 3275 1631 3429 
Q 1922 3584 2338 3584 
Q 2397 3584 2469 3576 
Q 2541 3569 2628 3553 
L 2631 2963 
z
" transform="scale(0.015625)"/>
      <path id="DejaVuSans-73" d="M 2834 3397 
L 2834 2853 
Q 2591 2978 2328 3040 
Q 2066 3103 1784 3103 
Q 1356 3103 1142 2972 
Q 928 2841 928 2578 
Q 928 2378 1081 2264 
Q 1234 2150 1697 2047 
L 1894 2003 
Q 2506 1872 2764 1633 
Q 3022 1394 3022 966 
Q 3022 478 2636 193 
Q 2250 -91 1575 -91 
Q 1294 -91 989 -36 
Q 684 19 347 128 
L 347 722 
Q 666 556 975 473 
Q 1284 391 1588 391 
Q 1994 391 2212 530 
Q 2431 669 2431 922 
Q 2431 1156 2273 1281 
Q 2116 1406 1581 1522 
L 1381 1569 
Q 847 1681 609 1914 
Q 372 2147 372 2553 
Q 372 3047 722 3315 
Q 1072 3584 1716 3584 
Q 2034 3584 2315 3537 
Q 2597 3491 2834 3397 
z
" transform="scale(0.015625)"/>
      <path id="DejaVuSans-20" transform="scale(0.015625)"/>
      <path id="DejaVuSans-35" d="M 691 4666 
L 3169 4666 
L 3169 4134 
L 1269 4134 
L 1269 2991 
Q 1406 3038 1543 3061 
Q 1681 3084 1819 3084 
Q 2600 3084 3056 2656 
Q 3513 2228 3513 1497 
Q 3513 744 3044 326 
Q 2575 -91 1722 -91 
Q 1428 -91 1123 -41 
Q 819 9 494 109 
L 494 744 
Q 775 591 1075 516 
Q 1375 441 1709 441 
Q 2250 441 2565 725 
Q 2881 1009 2881 1497 
Q 2881 1984 2565 2268 
Q 2250 2553 1709 2553 
Q 1456 2553 1204 2497 
Q 953 2441 691 2322 
L 691 4666 
z
" transform="scale(0.015625)"/>
     </defs>
     <use xlink:href="#DejaVuSans-53"/>
     <use xlink:href="#DejaVuSans-65" x="63.476562"/>
     <use xlink:href="#DejaVuSans-72" x="125"/>
     <use xlink:href="#DejaVuSans-69" x="166.113281"/>
     <use xlink:href="#DejaVuSans-65" x="193.896484"/>
     <use xlink:href="#DejaVuSans-73" x="255.419922"/>
     <use xlink:href="#DejaVuSans-20" x="307.519531"/>
     <use xlink:href="#DejaVuSans-35" x="339.306641"/>
    </g>
    <!-- TREND | POINT ANOMALY (1) -->
    <g transform="translate(439.106797 27.933625) scale(0.11 -0.11)">
     <defs>
      <path id="DejaVuSans-52" d="M 2841 2188 
Q 3044 2119 3236 1894 
Q 3428 1669 3622 1275 
L 4263 0 
L 3584 0 
L 2988 1197 
Q 2756 1666 2539 1819 
Q 2322 1972 1947 1972 
L 1259 1972 
L 1259 0 
L 628 0 
L 628 4666 
L 2053 4666 
Q 2853 4666 3247 4331 
Q 3641 3997 3641 3322 
Q 3641 2881 3436 2590 
Q 3231 2300 2841 2188 
z
M 1259 4147 
L 1259 2491 
L 2053 2491 
Q 2509 2491 2742 2702 
Q 2975 2913 2975 3322 
Q 2975 3731 2742 3939 
Q 2509 4147 2053 4147 
L 1259 4147 
z
" transform="scale(0.015625)"/>
      <path id="DejaVuSans-45" d="M 628 4666 
L 3578 4666 
L 3578 4134 
L 1259 4134 
L 1259 2753 
L 3481 2753 
L 3481 2222 
L 1259 2222 
L 1259 531 
L 3634 531 
L 3634 0 
L 628 0 
L 628 4666 
z
" transform="scale(0.015625)"/>
      <path id="DejaVuSans-4e" d="M 628 4666 
L 1478 4666 
L 3547 763 
L 3547 4666 
L 4159 4666 
L 4159 0 
L 3309 0 
L 1241 3903 
L 1241 0 
L 628 0 
L 628 4666 
z
" transform="scale(0.015625)"/>
      <path id="DejaVuSans-44" d="M 1259 4147 
L 1259 519 
L 2022 519 
Q 2988 519 3436 956 
Q 3884 1394 3884 2338 
Q 3884 3275 3436 3711 
Q 2988 4147 2022 4147 
L 1259 4147 
z
M 628 4666 
L 1925 4666 
Q 3281 4666 3915 4102 
Q 4550 3538 4550 2338 
Q 4550 1131 3912 565 
Q 3275 0 1925 0 
L 628 0 
L 628 4666 
z
" transform="scale(0.015625)"/>
      <path id="DejaVuSans-7c" d="M 1344 4891 
L 1344 -1509 
L 813 -1509 
L 813 4891 
L 1344 4891 
z
" transform="scale(0.015625)"/>
      <path id="DejaVuSans-50" d="M 1259 4147 
L 1259 2394 
L 2053 2394 
Q 2494 2394 2734 2622 
Q 2975 2850 2975 3272 
Q 2975 3691 2734 3919 
Q 2494 4147 2053 4147 
L 1259 4147 
z
M 628 4666 
L 2053 4666 
Q 2838 4666 3239 4311 
Q 3641 3956 3641 3272 
Q 3641 2581 3239 2228 
Q 2838 1875 2053 1875 
L 1259 1875 
L 1259 0 
L 628 0 
L 628 4666 
z
" transform="scale(0.015625)"/>
      <path id="DejaVuSans-4f" d="M 2522 4238 
Q 1834 4238 1429 3725 
Q 1025 3213 1025 2328 
Q 1025 1447 1429 934 
Q 1834 422 2522 422 
Q 3209 422 3611 934 
Q 4013 1447 4013 2328 
Q 4013 3213 3611 3725 
Q 3209 4238 2522 4238 
z
M 2522 4750 
Q 3503 4750 4090 4092 
Q 4678 3434 4678 2328 
Q 4678 1225 4090 567 
Q 3503 -91 2522 -91 
Q 1538 -91 948 565 
Q 359 1222 359 2328 
Q 359 3434 948 4092 
Q 1538 4750 2522 4750 
z
" transform="scale(0.015625)"/>
      <path id="DejaVuSans-49" d="M 628 4666 
L 1259 4666 
L 1259 0 
L 628 0 
L 628 4666 
z
" transform="scale(0.015625)"/>
      <path id="DejaVuSans-41" d="M 2188 4044 
L 1331 1722 
L 3047 1722 
L 2188 4044 
z
M 1831 4666 
L 2547 4666 
L 4325 0 
L 3669 0 
L 3244 1197 
L 1141 1197 
L 716 0 
L 50 0 
L 1831 4666 
z
" transform="scale(0.015625)"/>
      <path id="DejaVuSans-4d" d="M 628 4666 
L 1569 4666 
L 2759 1491 
L 3956 4666 
L 4897 4666 
L 4897 0 
L 4281 0 
L 4281 4097 
L 3078 897 
L 2444 897 
L 1241 4097 
L 1241 0 
L 628 0 
L 628 4666 
z
" transform="scale(0.015625)"/>
      <path id="DejaVuSans-4c" d="M 628 4666 
L 1259 4666 
L 1259 531 
L 3531 531 
L 3531 0 
L 628 0 
L 628 4666 
z
" transform="scale(0.015625)"/>
      <path id="DejaVuSans-59" d="M -13 4666 
L 666 4666 
L 1959 2747 
L 3244 4666 
L 3922 4666 
L 2272 2222 
L 2272 0 
L 1638 0 
L 1638 2222 
L -13 4666 
z
" transform="scale(0.015625)"/>
      <path id="DejaVuSans-28" d="M 1984 4856 
Q 1566 4138 1362 3434 
Q 1159 2731 1159 2009 
Q 1159 1288 1364 580 
Q 1569 -128 1984 -844 
L 1484 -844 
Q 1016 -109 783 600 
Q 550 1309 550 2009 
Q 550 2706 781 3412 
Q 1013 4119 1484 4856 
L 1984 4856 
z
" transform="scale(0.015625)"/>
      <path id="DejaVuSans-29" d="M 513 4856 
L 1013 4856 
Q 1481 4119 1714 3412 
Q 1947 2706 1947 2009 
Q 1947 1309 1714 600 
Q 1481 -109 1013 -844 
L 513 -844 
Q 928 -128 1133 580 
Q 1338 1288 1338 2009 
Q 1338 2731 1133 3434 
Q 928 4138 513 4856 
z
" transform="scale(0.015625)"/>
     </defs>
     <use xlink:href="#DejaVuSans-54"/>
     <use xlink:href="#DejaVuSans-52" x="61.083984"/>
     <use xlink:href="#DejaVuSans-45" x="130.566406"/>
     <use xlink:href="#DejaVuSans-4e" x="193.75"/>
     <use xlink:href="#DejaVuSans-44" x="268.554688"/>
     <use xlink:href="#DejaVuSans-20" x="345.556641"/>
     <use xlink:href="#DejaVuSans-7c" x="377.34375"/>
     <use xlink:href="#DejaVuSans-20" x="411.035156"/>
     <use xlink:href="#DejaVuSans-50" x="442.822266"/>
     <use xlink:href="#DejaVuSans-4f" x="503.125"/>
     <use xlink:href="#DejaVuSans-49" x="581.835938"/>
     <use xlink:href="#DejaVuSans-4e" x="611.328125"/>
     <use xlink:href="#DejaVuSans-54" x="686.132812"/>
     <use xlink:href="#DejaVuSans-20" x="747.216797"/>
     <use xlink:href="#DejaVuSans-41" x="779.003906"/>
     <use xlink:href="#DejaVuSans-4e" x="847.412109"/>
     <use xlink:href="#DejaVuSans-4f" x="922.216797"/>
     <use xlink:href="#DejaVuSans-4d" x="1000.927734"/>
     <use xlink:href="#DejaVuSans-41" x="1087.207031"/>
     <use xlink:href="#DejaVuSans-4c" x="1155.615234"/>
     <use xlink:href="#DejaVuSans-59" x="1198.078125"/>
     <use xlink:href="#DejaVuSans-20" x="1259.162109"/>
     <use xlink:href="#DejaVuSans-28" x="1290.949219"/>
     <use xlink:href="#DejaVuSans-31" x="1329.962891"/>
     <use xlink:href="#DejaVuSans-29" x="1393.585938"/>
    </g>
   </g>
   <g id="PathCollection_1">
    <defs>
     <path id="mb74c428024" d="M 0 5 
C 1.326016 5 2.597899 4.473168 3.535534 3.535534 
C 4.473168 2.597899 5 1.326016 5 0 
C 5 -1.326016 4.473168 -2.597899 3.535534 -3.535534 
C 2.597899 -4.473168 1.326016 -5 0 -5 
C -1.326016 -5 -2.597899 -4.473168 -3.535534 -3.535534 
C -4.473168 -2.597899 -5 -1.326016 -5 0 
C -5 1.326016 -4.473168 2.597899 -3.535534 3.535534 
C -2.597899 4.473168 -1.326016 5 0 5 
z
" style="stroke: #ff0000"/>
    </defs>
    <g clip-path="url(#pc13ea32cc0)">
     <use xlink:href="#mb74c428024" x="949.97304" y="58.403369" style="fill: #ff0000; stroke: #ff0000"/>
    </g>
   </g>
   <g id="legend_1">
    <g id="patch_7">
     <path d="M 868.520313 87.303625 
L 987.580313 87.303625 
Q 989.180313 87.303625 989.180313 85.703625 
L 989.180313 39.533625 
Q 989.180313 37.933625 987.580313 37.933625 
L 868.520313 37.933625 
Q 866.920313 37.933625 866.920313 39.533625 
L 866.920313 85.703625 
Q 866.920313 87.303625 868.520313 87.303625 
z
" style="fill: #ffffff; opacity: 0.8; stroke: #cccccc; stroke-linejoin: miter"/>
    </g>
    <g id="line2d_28">
     <path d="M 870.120313 44.412375 
L 878.120313 44.412375 
L 886.120313 44.412375 
" style="fill: none; stroke: #4682b4; stroke-linecap: square"/>
    </g>
    <g id="text_16">
     <!-- Series -->
     <g transform="translate(892.520313 47.212375) scale(0.08 -0.08)">
      <use xlink:href="#DejaVuSans-53"/>
      <use xlink:href="#DejaVuSans-65" x="63.476562"/>
      <use xlink:href="#DejaVuSans-72" x="125"/>
      <use xlink:href="#DejaVuSans-69" x="166.113281"/>
      <use xlink:href="#DejaVuSans-65" x="193.896484"/>
      <use xlink:href="#DejaVuSans-73" x="255.419922"/>
     </g>
    </g>
    <g id="PathCollection_2">
     <g>
      <use xlink:href="#mb74c428024" x="878.120313" y="56.854875" style="fill: #ff0000; stroke: #ff0000"/>
     </g>
    </g>
    <g id="text_17">
     <!-- Point anomalies (1) -->
     <g transform="translate(892.520313 58.954875) scale(0.08 -0.08)">
      <defs>
       <path id="DejaVuSans-6f" d="M 1959 3097 
Q 1497 3097 1228 2736 
Q 959 2375 959 1747 
Q 959 1119 1226 758 
Q 1494 397 1959 397 
Q 2419 397 2687 759 
Q 2956 1122 2956 1747 
Q 2956 2369 2687 2733 
Q 2419 3097 1959 3097 
z
M 1959 3584 
Q 2709 3584 3137 3096 
Q 3566 2609 3566 1747 
Q 3566 888 3137 398 
Q 2709 -91 1959 -91 
Q 1206 -91 779 398 
Q 353 888 353 1747 
Q 353 2609 779 3096 
Q 1206 3584 1959 3584 
z
" transform="scale(0.015625)"/>
       <path id="DejaVuSans-6e" d="M 3513 2113 
L 3513 0 
L 2938 0 
L 2938 2094 
Q 2938 2591 2744 2837 
Q 2550 3084 2163 3084 
Q 1697 3084 1428 2787 
Q 1159 2491 1159 1978 
L 1159 0 
L 581 0 
L 581 3500 
L 1159 3500 
L 1159 2956 
Q 1366 3272 1645 3428 
Q 1925 3584 2291 3584 
Q 2894 3584 3203 3211 
Q 3513 2838 3513 2113 
z
" transform="scale(0.015625)"/>
       <path id="DejaVuSans-74" d="M 1172 4494 
L 1172 3500 
L 2356 3500 
L 2356 3053 
L 1172 3053 
L 1172 1153 
Q 1172 725 1289 603 
Q 1406 481 1766 481 
L 2356 481 
L 2356 0 
L 1766 0 
Q 1100 0 847 248 
Q 594 497 594 1153 
L 594 3053 
L 172 3053 
L 172 3500 
L 594 3500 
L 594 4494 
L 1172 4494 
z
" transform="scale(0.015625)"/>
      </defs>
      <use xlink:href="#DejaVuSans-50"/>
      <use xlink:href="#DejaVuSans-6f" x="56.677734"/>
      <use xlink:href="#DejaVuSans-69" x="117.859375"/>
      <use xlink:href="#DejaVuSans-6e" x="145.642578"/>
      <use xlink:href="#DejaVuSans-74" x="209.021484"/>
      <use xlink:href="#DejaVuSans-20" x="248.230469"/>
      <use xlink:href="#DejaVuSans-61" x="280.017578"/>
      <use xlink:href="#DejaVuSans-6e" x="341.296875"/>
      <use xlink:href="#DejaVuSans-6f" x="404.675781"/>
      <use xlink:href="#DejaVuSans-6d" x="465.857422"/>
      <use xlink:href="#DejaVuSans-61" x="563.269531"/>
      <use xlink:href="#DejaVuSans-6c" x="624.548828"/>
      <use xlink:href="#DejaVuSans-69" x="652.332031"/>
      <use xlink:href="#DejaVuSans-65" x="680.115234"/>
      <use xlink:href="#DejaVuSans-73" x="741.638672"/>
      <use xlink:href="#DejaVuSans-20" x="793.738281"/>
      <use xlink:href="#DejaVuSans-28" x="825.525391"/>
      <use xlink:href="#DejaVuSans-31" x="864.539062"/>
      <use xlink:href="#DejaVuSans-29" x="928.162109"/>
     </g>
    </g>
    <g id="line2d_29">
     <path d="M 870.120313 67.897375 
L 878.120313 67.897375 
L 886.120313 67.897375 
" style="fill: none; stroke: #ffa500; stroke-opacity: 0.7; stroke-width: 1.5; stroke-linecap: square"/>
    </g>
    <g id="text_18">
     <!-- Baseline = 0.92 -->
     <g transform="translate(892.520313 70.697375) scale(0.08 -0.08)">
      <defs>
       <path id="DejaVuSans-42" d="M 1259 2228 
L 1259 519 
L 2272 519 
Q 2781 519 3026 730 
Q 3272 941 3272 1375 
Q 3272 1813 3026 2020 
Q 2781 2228 2272 2228 
L 1259 2228 
z
M 1259 4147 
L 1259 2741 
L 2194 2741 
Q 2656 2741 2882 2914 
Q 3109 3088 3109 3444 
Q 3109 3797 2882 3972 
Q 2656 4147 2194 4147 
L 1259 4147 
z
M 628 4666 
L 2241 4666 
Q 2963 4666 3353 4366 
Q 3744 4066 3744 3513 
Q 3744 3084 3544 2831 
Q 3344 2578 2956 2516 
Q 3422 2416 3680 2098 
Q 3938 1781 3938 1306 
Q 3938 681 3513 340 
Q 3088 0 2303 0 
L 628 0 
L 628 4666 
z
" transform="scale(0.015625)"/>
       <path id="DejaVuSans-3d" d="M 678 2906 
L 4684 2906 
L 4684 2381 
L 678 2381 
L 678 2906 
z
M 678 1631 
L 4684 1631 
L 4684 1100 
L 678 1100 
L 678 1631 
z
" transform="scale(0.015625)"/>
       <path id="DejaVuSans-2e" d="M 684 794 
L 1344 794 
L 1344 0 
L 684 0 
L 684 794 
z
" transform="scale(0.015625)"/>
       <path id="DejaVuSans-39" d="M 703 97 
L 703 672 
Q 941 559 1184 500 
Q 1428 441 1663 441 
Q 2288 441 2617 861 
Q 2947 1281 2994 2138 
Q 2813 1869 2534 1725 
Q 2256 1581 1919 1581 
Q 1219 1581 811 2004 
Q 403 2428 403 3163 
Q 403 3881 828 4315 
Q 1253 4750 1959 4750 
Q 2769 4750 3195 4129 
Q 3622 3509 3622 2328 
Q 3622 1225 3098 567 
Q 2575 -91 1691 -91 
Q 1453 -91 1209 -44 
Q 966 3 703 97 
z
M 1959 2075 
Q 2384 2075 2632 2365 
Q 2881 2656 2881 3163 
Q 2881 3666 2632 3958 
Q 2384 4250 1959 4250 
Q 1534 4250 1286 3958 
Q 1038 3666 1038 3163 
Q 1038 2656 1286 2365 
Q 1534 2075 1959 2075 
z
" transform="scale(0.015625)"/>
      </defs>
      <use xlink:href="#DejaVuSans-42"/>
      <use xlink:href="#DejaVuSans-61" x="68.603516"/>
      <use xlink:href="#DejaVuSans-73" x="129.882812"/>
      <use xlink:href="#DejaVuSans-65" x="181.982422"/>
      <use xlink:href="#DejaVuSans-6c" x="243.505859"/>
      <use xlink:href="#DejaVuSans-69" x="271.289062"/>
      <use xlink:href="#DejaVuSans-6e" x="299.072266"/>
      <use xlink:href="#DejaVuSans-65" x="362.451172"/>
      <use xlink:href="#DejaVuSans-20" x="423.974609"/>
      <use xlink:href="#DejaVuSans-3d" x="455.761719"/>
      <use xlink:href="#DejaVuSans-20" x="539.550781"/>
      <use xlink:href="#DejaVuSans-30" x="571.337891"/>
      <use xlink:href="#DejaVuSans-2e" x="634.960938"/>
      <use xlink:href="#DejaVuSans-39" x="666.748047"/>
      <use xlink:href="#DejaVuSans-32" x="730.371094"/>
     </g>
    </g>
    <g id="line2d_30">
     <path d="M 870.120313 79.639875 
L 878.120313 79.639875 
L 886.120313 79.639875 
" style="fill: none; stroke-dasharray: 5.55,2.4; stroke-dashoffset: 0; stroke: #008000; stroke-opacity: 0.7; stroke-width: 1.5"/>
    </g>
    <g id="text_19">
     <!-- Dataset median = 0.00 -->
     <g transform="translate(892.520313 82.439875) scale(0.08 -0.08)">
      <defs>
       <path id="DejaVuSans-64" d="M 2906 2969 
L 2906 4863 
L 3481 4863 
L 3481 0 
L 2906 0 
L 2906 525 
Q 2725 213 2448 61 
Q 2172 -91 1784 -91 
Q 1150 -91 751 415 
Q 353 922 353 1747 
Q 353 2572 751 3078 
Q 1150 3584 1784 3584 
Q 2172 3584 2448 3432 
Q 2725 3281 2906 2969 
z
M 947 1747 
Q 947 1113 1208 752 
Q 1469 391 1925 391 
Q 2381 391 2643 752 
Q 2906 1113 2906 1747 
Q 2906 2381 2643 2742 
Q 2381 3103 1925 3103 
Q 1469 3103 1208 2742 
Q 947 2381 947 1747 
z
" transform="scale(0.015625)"/>
      </defs>
      <use xlink:href="#DejaVuSans-44"/>
      <use xlink:href="#DejaVuSans-61" x="77.001953"/>
      <use xlink:href="#DejaVuSans-74" x="138.28125"/>
      <use xlink:href="#DejaVuSans-61" x="177.490234"/>
      <use xlink:href="#DejaVuSans-73" x="238.769531"/>
      <use xlink:href="#DejaVuSans-65" x="290.869141"/>
      <use xlink:href="#DejaVuSans-74" x="352.392578"/>
      <use xlink:href="#DejaVuSans-20" x="391.601562"/>
      <use xlink:href="#DejaVuSans-6d" x="423.388672"/>
      <use xlink:href="#DejaVuSans-65" x="520.800781"/>
      <use xlink:href="#DejaVuSans-64" x="582.324219"/>
      <use xlink:href="#DejaVuSans-69" x="645.800781"/>
      <use xlink:href="#DejaVuSans-61" x="673.583984"/>
      <use xlink:href="#DejaVuSans-6e" x="734.863281"/>
      <use xlink:href="#DejaVuSans-20" x="798.242188"/>
      <use xlink:href="#DejaVuSans-3d" x="830.029297"/>
      <use xlink:href="#DejaVuSans-20" x="913.818359"/>
      <use xlink:href="#DejaVuSans-30" x="945.605469"/>
      <use xlink:href="#DejaVuSans-2e" x="1009.228516"/>
      <use xlink:href="#DejaVuSans-30" x="1041.015625"/>
      <use xlink:href="#DejaVuSans-30" x="1104.638672"/>
     </g>
    </g>
   </g>
  </g>
 </g>
 <defs>
  <clipPath id="pc13ea32cc0">
   <rect x="42.620313" y="33.933625" width="950.56" height="280.072"/>
  </clipPath>
 </defs>
</svg>
