<?xml version="1.0" encoding="utf-8" standalone="no"?>
<!DOCTYPE svg PUBLIC "-//W3C//DTD SVG 1.1//EN"
  "http://www.w3.org/Graphics/SVG/1.1/DTD/svg11.dtd">
<svg xmlns:xlink="http://www.w3.org/1999/xlink" width="856.442812pt" height="565.55875pt" viewBox="0 0 856.442812 565.55875" xmlns="http://www.w3.org/2000/svg" version="1.1">
 <metadata>
  <rdf:RDF xmlns:dc="http://purl.org/dc/elements/1.1/" xmlns:cc="http://creativecommons.org/ns#" xmlns:rdf="http://www.w3.org/1999/02/22-rdf-syntax-ns#">
   <cc:Work>
    <dc:type rdf:resource="http://purl.org/dc/dcmitype/StillImage"/>
    <dc:date>2025-12-14T19:11:12.526528</dc:date>
    <dc:format>image/svg+xml</dc:format>
    <dc:creator>
     <cc:Agent>
      <dc:title>Matplotlib v3.8.4, https://matplotlib.org/</dc:title>
     </cc:Agent>
    </dc:creator>
   </cc:Work>
  </rdf:RDF>
 </metadata>
 <defs>
  <style type="text/css">*{stroke-linejoin: round; stroke-linecap: butt}</style>
 </defs>
 <g id="figure_1">
  <g id="patch_1">
   <path d="M -0 565.55875 
L 856.442812 565.55875 
L 856.442812 0 
L -0 0 
z
" style="fill: #ffffff"/>
  </g>
  <g id="axes_1">
   <g id="patch_2">
    <path d="M 48.982813 245.4025 
L 849.242813 245.4025 
L 849.242813 35.8185 
L 48.982813 35.8185 
z
" style="fill: #ffffff"/>
   </g>
   <g id="matplotlib.axis_1">
    <g id="xtick_1">
     <g id="line2d_1">
      <path d="M 85.358267 245.4025 
L 85.358267 35.8185 
" clip-path="url(#p0d35ea28e5)" style="fill: none; stroke: #b0b0b0; stroke-opacity: 0.3; stroke-width: 0.8; stroke-linecap: square"/>
     </g>
     <g id="line2d_2">
      <defs>
       <path id="m885143cb66" d="M 0 0 
L 0 3.5 
" style="stroke: #000000; stroke-width: 0.8"/>
      </defs>
      <g>
       <use xlink:href="#m885143cb66" x="85.358267" y="245.4025" style="stroke: #000000; stroke-width: 0.8"/>
      </g>
     </g>
     <g id="text_1">
      <!-- 0 -->
      <g transform="translate(82.177017 260.000938) scale(0.1 -0.1)">
       <defs>
        <path id="DejaVuSans-30" d="M 2034 4250 
Q 1547 4250 1301 3770 
Q 1056 3291 1056 2328 
Q 1056 1369 1301 889 
Q 1547 409 2034 409 
Q 2525 409 2770 889 
Q 3016 1369 3016 2328 
Q 3016 3291 2770 3770 
Q 2525 4250 2034 4250 
z
M 2034 4750 
Q 2819 4750 3233 4129 
Q 3647 3509 3647 2328 
Q 3647 1150 3233 529 
Q 2819 -91 2034 -91 
Q 1250 -91 836 529 
Q 422 1150 422 2328 
Q 422 3509 836 4129 
Q 1250 4750 2034 4750 
z
" transform="scale(0.015625)"/>
       </defs>
       <use xlink:href="#DejaVuSans-30"/>
      </g>
     </g>
    </g>
    <g id="xtick_2">
     <g id="line2d_3">
      <path d="M 230.860085 245.4025 
L 230.860085 35.8185 
" clip-path="url(#p0d35ea28e5)" style="fill: none; stroke: #b0b0b0; stroke-opacity: 0.3; stroke-width: 0.8; stroke-linecap: square"/>
     </g>
     <g id="line2d_4">
      <g>
       <use xlink:href="#m885143cb66" x="230.860085" y="245.4025" style="stroke: #000000; stroke-width: 0.8"/>
      </g>
     </g>
     <g id="text_2">
      <!-- 20 -->
      <g transform="translate(224.497585 260.000938) scale(0.1 -0.1)">
       <defs>
        <path id="DejaVuSans-32" d="M 1228 531 
L 3431 531 
L 3431 0 
L 469 0 
L 469 531 
Q 828 903 1448 1529 
Q 2069 2156 2228 2338 
Q 2531 2678 2651 2914 
Q 2772 3150 2772 3378 
Q 2772 3750 2511 3984 
Q 2250 4219 1831 4219 
Q 1534 4219 1204 4116 
Q 875 4013 500 3803 
L 500 4441 
Q 881 4594 1212 4672 
Q 1544 4750 1819 4750 
Q 2544 4750 2975 4387 
Q 3406 4025 3406 3419 
Q 3406 3131 3298 2873 
Q 3191 2616 2906 2266 
Q 2828 2175 2409 1742 
Q 1991 1309 1228 531 
z
" transform="scale(0.015625)"/>
       </defs>
       <use xlink:href="#DejaVuSans-32"/>
       <use xlink:href="#DejaVuSans-30" x="63.623047"/>
      </g>
     </g>
    </g>
    <g id="xtick_3">
     <g id="line2d_5">
      <path d="M 376.361903 245.4025 
L 376.361903 35.8185 
" clip-path="url(#p0d35ea28e5)" style="fill: none; stroke: #b0b0b0; stroke-opacity: 0.3; stroke-width: 0.8; stroke-linecap: square"/>
     </g>
     <g id="line2d_6">
      <g>
       <use xlink:href="#m885143cb66" x="376.361903" y="245.4025" style="stroke: #000000; stroke-width: 0.8"/>
      </g>
     </g>
     <g id="text_3">
      <!-- 40 -->
      <g transform="translate(369.999403 260.000938) scale(0.1 -0.1)">
       <defs>
        <path id="DejaVuSans-34" d="M 2419 4116 
L 825 1625 
L 2419 1625 
L 2419 4116 
z
M 2253 4666 
L 3047 4666 
L 3047 1625 
L 3713 1625 
L 3713 1100 
L 3047 1100 
L 3047 0 
L 2419 0 
L 2419 1100 
L 313 1100 
L 313 1709 
L 2253 4666 
z
" transform="scale(0.015625)"/>
       </defs>
       <use xlink:href="#DejaVuSans-34"/>
       <use xlink:href="#DejaVuSans-30" x="63.623047"/>
      </g>
     </g>
    </g>
    <g id="xtick_4">
     <g id="line2d_7">
      <path d="M 521.863722 245.4025 
L 521.863722 35.8185 
" clip-path="url(#p0d35ea28e5)" style="fill: none; stroke: #b0b0b0; stroke-opacity: 0.3; stroke-width: 0.8; stroke-linecap: square"/>
     </g>
     <g id="line2d_8">
      <g>
       <use xlink:href="#m885143cb66" x="521.863722" y="245.4025" style="stroke: #000000; stroke-width: 0.8"/>
      </g>
     </g>
     <g id="text_4">
      <!-- 60 -->
      <g transform="translate(515.501222 260.000938) scale(0.1 -0.1)">
       <defs>
        <path id="DejaVuSans-36" d="M 2113 2584 
Q 1688 2584 1439 2293 
Q 1191 2003 1191 1497 
Q 1191 994 1439 701 
Q 1688 409 2113 409 
Q 2538 409 2786 701 
Q 3034 994 3034 1497 
Q 3034 2003 2786 2293 
Q 2538 2584 2113 2584 
z
M 3366 4563 
L 3366 3988 
Q 3128 4100 2886 4159 
Q 2644 4219 2406 4219 
Q 1781 4219 1451 3797 
Q 1122 3375 1075 2522 
Q 1259 2794 1537 2939 
Q 1816 3084 2150 3084 
Q 2853 3084 3261 2657 
Q 3669 2231 3669 1497 
Q 3669 778 3244 343 
Q 2819 -91 2113 -91 
Q 1303 -91 875 529 
Q 447 1150 447 2328 
Q 447 3434 972 4092 
Q 1497 4750 2381 4750 
Q 2619 4750 2861 4703 
Q 3103 4656 3366 4563 
z
" transform="scale(0.015625)"/>
       </defs>
       <use xlink:href="#DejaVuSans-36"/>
       <use xlink:href="#DejaVuSans-30" x="63.623047"/>
      </g>
     </g>
    </g>
    <g id="xtick_5">
     <g id="line2d_9">
      <path d="M 667.36554 245.4025 
L 667.36554 35.8185 
" clip-path="url(#p0d35ea28e5)" style="fill: none; stroke: #b0b0b0; stroke-opacity: 0.3; stroke-width: 0.8; stroke-linecap: square"/>
     </g>
     <g id="line2d_10">
      <g>
       <use xlink:href="#m885143cb66" x="667.36554" y="245.4025" style="stroke: #000000; stroke-width: 0.8"/>
      </g>
     </g>
     <g id="text_5">
      <!-- 80 -->
      <g transform="translate(661.00304 260.000938) scale(0.1 -0.1)">
       <defs>
        <path id="DejaVuSans-38" d="M 2034 2216 
Q 1584 2216 1326 1975 
Q 1069 1734 1069 1313 
Q 1069 891 1326 650 
Q 1584 409 2034 409 
Q 2484 409 2743 651 
Q 3003 894 3003 1313 
Q 3003 1734 2745 1975 
Q 2488 2216 2034 2216 
z
M 1403 2484 
Q 997 2584 770 2862 
Q 544 3141 544 3541 
Q 544 4100 942 4425 
Q 1341 4750 2034 4750 
Q 2731 4750 3128 4425 
Q 3525 4100 3525 3541 
Q 3525 3141 3298 2862 
Q 3072 2584 2669 2484 
Q 3125 2378 3379 2068 
Q 3634 1759 3634 1313 
Q 3634 634 3220 271 
Q 2806 -91 2034 -91 
Q 1263 -91 848 271 
Q 434 634 434 1313 
Q 434 1759 690 2068 
Q 947 2378 1403 2484 
z
M 1172 3481 
Q 1172 3119 1398 2916 
Q 1625 2713 2034 2713 
Q 2441 2713 2670 2916 
Q 2900 3119 2900 3481 
Q 2900 3844 2670 4047 
Q 2441 4250 2034 4250 
Q 1625 4250 1398 4047 
Q 1172 3844 1172 3481 
z
" transform="scale(0.015625)"/>
       </defs>
       <use xlink:href="#DejaVuSans-38"/>
       <use xlink:href="#DejaVuSans-30" x="63.623047"/>
      </g>
     </g>
    </g>
    <g id="xtick_6">
     <g id="line2d_11">
      <path d="M 812.867358 245.4025 
L 812.867358 35.8185 
" clip-path="url(#p0d35ea28e5)" style="fill: none; stroke: #b0b0b0; stroke-opacity: 0.3; stroke-width: 0.8; stroke-linecap: square"/>
     </g>
     <g id="line2d_12">
      <g>
       <use xlink:href="#m885143cb66" x="812.867358" y="245.4025" style="stroke: #000000; stroke-width: 0.8"/>
      </g>
     </g>
     <g id="text_6">
      <!-- 100 -->
      <g transform="translate(803.323608 260.000938) scale(0.1 -0.1)">
       <defs>
        <path id="DejaVuSans-31" d="M 794 531 
L 1825 531 
L 1825 4091 
L 703 3866 
L 703 4441 
L 1819 4666 
L 2450 4666 
L 2450 531 
L 3481 531 
L 3481 0 
L 794 0 
L 794 531 
z
" transform="scale(0.015625)"/>
       </defs>
       <use xlink:href="#DejaVuSans-31"/>
       <use xlink:href="#DejaVuSans-30" x="63.623047"/>
       <use xlink:href="#DejaVuSans-30" x="127.246094"/>
      </g>
     </g>
    </g>
    <g id="text_7">
     <!-- Time -->
     <g transform="translate(436.879219 273.679063) scale(0.1 -0.1)">
      <defs>
       <path id="DejaVuSans-54" d="M -19 4666 
L 3928 4666 
L 3928 4134 
L 2272 4134 
L 2272 0 
L 1638 0 
L 1638 4134 
L -19 4134 
L -19 4666 
z
" transform="scale(0.015625)"/>
       <path id="DejaVuSans-69" d="M 603 3500 
L 1178 3500 
L 1178 0 
L 603 0 
L 603 3500 
z
M 603 4863 
L 1178 4863 
L 1178 4134 
L 603 4134 
L 603 4863 
z
" transform="scale(0.015625)"/>
       <path id="DejaVuSans-6d" d="M 3328 2828 
Q 3544 3216 3844 3400 
Q 4144 3584 4550 3584 
Q 5097 3584 5394 3201 
Q 5691 2819 5691 2113 
L 5691 0 
L 5113 0 
L 5113 2094 
Q 5113 2597 4934 2840 
Q 4756 3084 4391 3084 
Q 3944 3084 3684 2787 
Q 3425 2491 3425 1978 
L 3425 0 
L 2847 0 
L 2847 2094 
Q 2847 2600 2669 2842 
Q 2491 3084 2119 3084 
Q 1678 3084 1418 2786 
Q 1159 2488 1159 1978 
L 1159 0 
L 581 0 
L 581 3500 
L 1159 3500 
L 1159 2956 
Q 1356 3278 1631 3431 
Q 1906 3584 2284 3584 
Q 2666 3584 2933 3390 
Q 3200 3197 3328 2828 
z
" transform="scale(0.015625)"/>
       <path id="DejaVuSans-65" d="M 3597 1894 
L 3597 1613 
L 953 1613 
Q 991 1019 1311 708 
Q 1631 397 2203 397 
Q 2534 397 2845 478 
Q 3156 559 3463 722 
L 3463 178 
Q 3153 47 2828 -22 
Q 2503 -91 2169 -91 
Q 1331 -91 842 396 
Q 353 884 353 1716 
Q 353 2575 817 3079 
Q 1281 3584 2069 3584 
Q 2775 3584 3186 3129 
Q 3597 2675 3597 1894 
z
M 3022 2063 
Q 3016 2534 2758 2815 
Q 2500 3097 2075 3097 
Q 1594 3097 1305 2825 
Q 1016 2553 972 2059 
L 3022 2063 
z
" transform="scale(0.015625)"/>
      </defs>
      <use xlink:href="#DejaVuSans-54"/>
      <use xlink:href="#DejaVuSans-69" x="57.958984"/>
      <use xlink:href="#DejaVuSans-6d" x="85.742188"/>
      <use xlink:href="#DejaVuSans-65" x="183.154297"/>
     </g>
    </g>
   </g>
   <g id="matplotlib.axis_2">
    <g id="ytick_1">
     <g id="line2d_13">
      <path d="M 48.982813 235.896282 
L 849.242813 235.896282 
" clip-path="url(#p0d35ea28e5)" style="fill: none; stroke: #b0b0b0; stroke-opacity: 0.3; stroke-width: 0.8; stroke-linecap: square"/>
     </g>
     <g id="line2d_14">
      <defs>
       <path id="m114ea1cea1" d="M 0 0 
L -3.5 0 
" style="stroke: #000000; stroke-width: 0.8"/>
      </defs>
      <g>
       <use xlink:href="#m114ea1cea1" x="48.982813" y="235.896282" style="stroke: #000000; stroke-width: 0.8"/>
      </g>
     </g>
     <g id="text_8">
      <!-- 0 -->
      <g transform="translate(35.620312 239.695501) scale(0.1 -0.1)">
       <use xlink:href="#DejaVuSans-30"/>
      </g>
     </g>
    </g>
    <g id="ytick_2">
     <g id="line2d_15">
      <path d="M 48.982813 206.833676 
L 849.242813 206.833676 
" clip-path="url(#p0d35ea28e5)" style="fill: none; stroke: #b0b0b0; stroke-opacity: 0.3; stroke-width: 0.8; stroke-linecap: square"/>
     </g>
     <g id="line2d_16">
      <g>
       <use xlink:href="#m114ea1cea1" x="48.982813" y="206.833676" style="stroke: #000000; stroke-width: 0.8"/>
      </g>
     </g>
     <g id="text_9">
      <!-- 10 -->
      <g transform="translate(29.257812 210.632895) scale(0.1 -0.1)">
       <use xlink:href="#DejaVuSans-31"/>
       <use xlink:href="#DejaVuSans-30" x="63.623047"/>
      </g>
     </g>
    </g>
    <g id="ytick_3">
     <g id="line2d_17">
      <path d="M 48.982813 177.77107 
L 849.242813 177.77107 
" clip-path="url(#p0d35ea28e5)" style="fill: none; stroke: #b0b0b0; stroke-opacity: 0.3; stroke-width: 0.8; stroke-linecap: square"/>
     </g>
     <g id="line2d_18">
      <g>
       <use xlink:href="#m114ea1cea1" x="48.982813" y="177.77107" style="stroke: #000000; stroke-width: 0.8"/>
      </g>
     </g>
     <g id="text_10">
      <!-- 20 -->
      <g transform="translate(29.257812 181.570289) scale(0.1 -0.1)">
       <use xlink:href="#DejaVuSans-32"/>
       <use xlink:href="#DejaVuSans-30" x="63.623047"/>
      </g>
     </g>
    </g>
    <g id="ytick_4">
     <g id="line2d_19">
      <path d="M 48.982813 148.708464 
L 849.242813 148.708464 
" clip-path="url(#p0d35ea28e5)" style="fill: none; stroke: #b0b0b0; stroke-opacity: 0.3; stroke-width: 0.8; stroke-linecap: square"/>
     </g>
     <g id="line2d_20">
      <g>
       <use xlink:href="#m114ea1cea1" x="48.982813" y="148.708464" style="stroke: #000000; stroke-width: 0.8"/>
      </g>
     </g>
     <g id="text_11">
      <!-- 30 -->
      <g transform="translate(29.257812 152.507683) scale(0.1 -0.1)">
       <defs>
        <path id="DejaVuSans-33" d="M 2597 2516 
Q 3050 2419 3304 2112 
Q 3559 1806 3559 1356 
Q 3559 666 3084 287 
Q 2609 -91 1734 -91 
Q 1441 -91 1130 -33 
Q 819 25 488 141 
L 488 750 
Q 750 597 1062 519 
Q 1375 441 1716 441 
Q 2309 441 2620 675 
Q 2931 909 2931 1356 
Q 2931 1769 2642 2001 
Q 2353 2234 1838 2234 
L 1294 2234 
L 1294 2753 
L 1863 2753 
Q 2328 2753 2575 2939 
Q 2822 3125 2822 3475 
Q 2822 3834 2567 4026 
Q 2313 4219 1838 4219 
Q 1578 4219 1281 4162 
Q 984 4106 628 3988 
L 628 4550 
Q 988 4650 1302 4700 
Q 1616 4750 1894 4750 
Q 2613 4750 3031 4423 
Q 3450 4097 3450 3541 
Q 3450 3153 3228 2886 
Q 3006 2619 2597 2516 
z
" transform="scale(0.015625)"/>
       </defs>
       <use xlink:href="#DejaVuSans-33"/>
       <use xlink:href="#DejaVuSans-30" x="63.623047"/>
      </g>
     </g>
    </g>
    <g id="ytick_5">
     <g id="line2d_21">
      <path d="M 48.982813 119.645858 
L 849.242813 119.645858 
" clip-path="url(#p0d35ea28e5)" style="fill: none; stroke: #b0b0b0; stroke-opacity: 0.3; stroke-width: 0.8; stroke-linecap: square"/>
     </g>
     <g id="line2d_22">
      <g>
       <use xlink:href="#m114ea1cea1" x="48.982813" y="119.645858" style="stroke: #000000; stroke-width: 0.8"/>
      </g>
     </g>
     <g id="text_12">
      <!-- 40 -->
      <g transform="translate(29.257812 123.445077) scale(0.1 -0.1)">
       <use xlink:href="#DejaVuSans-34"/>
       <use xlink:href="#DejaVuSans-30" x="63.623047"/>
      </g>
     </g>
    </g>
    <g id="ytick_6">
     <g id="line2d_23">
      <path d="M 48.982813 90.583252 
L 849.242813 90.583252 
" clip-path="url(#p0d35ea28e5)" style="fill: none; stroke: #b0b0b0; stroke-opacity: 0.3; stroke-width: 0.8; stroke-linecap: square"/>
     </g>
     <g id="line2d_24">
      <g>
       <use xlink:href="#m114ea1cea1" x="48.982813" y="90.583252" style="stroke: #000000; stroke-width: 0.8"/>
      </g>
     </g>
     <g id="text_13">
      <!-- 50 -->
      <g transform="translate(29.257812 94.382471) scale(0.1 -0.1)">
       <defs>
        <path id="DejaVuSans-35" d="M 691 4666 
L 3169 4666 
L 3169 4134 
L 1269 4134 
L 1269 2991 
Q 1406 3038 1543 3061 
Q 1681 3084 1819 3084 
Q 2600 3084 3056 2656 
Q 3513 2228 3513 1497 
Q 3513 744 3044 326 
Q 2575 -91 1722 -91 
Q 1428 -91 1123 -41 
Q 819 9 494 109 
L 494 744 
Q 775 591 1075 516 
Q 1375 441 1709 441 
Q 2250 441 2565 725 
Q 2881 1009 2881 1497 
Q 2881 1984 2565 2268 
Q 2250 2553 1709 2553 
Q 1456 2553 1204 2497 
Q 953 2441 691 2322 
L 691 4666 
z
" transform="scale(0.015625)"/>
       </defs>
       <use xlink:href="#DejaVuSans-35"/>
       <use xlink:href="#DejaVuSans-30" x="63.623047"/>
      </g>
     </g>
    </g>
    <g id="ytick_7">
     <g id="line2d_25">
      <path d="M 48.982813 61.520646 
L 849.242813 61.520646 
" clip-path="url(#p0d35ea28e5)" style="fill: none; stroke: #b0b0b0; stroke-opacity: 0.3; stroke-width: 0.8; stroke-linecap: square"/>
     </g>
     <g id="line2d_26">
      <g>
       <use xlink:href="#m114ea1cea1" x="48.982813" y="61.520646" style="stroke: #000000; stroke-width: 0.8"/>
      </g>
     </g>
     <g id="text_14">
      <!-- 60 -->
      <g transform="translate(29.257812 65.319865) scale(0.1 -0.1)">
       <use xlink:href="#DejaVuSans-36"/>
       <use xlink:href="#DejaVuSans-30" x="63.623047"/>
      </g>
     </g>
    </g>
    <g id="text_15">
     <!-- Value -->
     <g transform="translate(23.178125 154.34175) rotate(-90) scale(0.1 -0.1)">
      <defs>
       <path id="DejaVuSans-56" d="M 1831 0 
L 50 4666 
L 709 4666 
L 2188 738 
L 3669 4666 
L 4325 4666 
L 2547 0 
L 1831 0 
z
" transform="scale(0.015625)"/>
       <path id="DejaVuSans-61" d="M 2194 1759 
Q 1497 1759 1228 1600 
Q 959 1441 959 1056 
Q 959 750 1161 570 
Q 1363 391 1709 391 
Q 2188 391 2477 730 
Q 2766 1069 2766 1631 
L 2766 1759 
L 2194 1759 
z
M 3341 1997 
L 3341 0 
L 2766 0 
L 2766 531 
Q 2569 213 2275 61 
Q 1981 -91 1556 -91 
Q 1019 -91 701 211 
Q 384 513 384 1019 
Q 384 1609 779 1909 
Q 1175 2209 1959 2209 
L 2766 2209 
L 2766 2266 
Q 2766 2663 2505 2880 
Q 2244 3097 1772 3097 
Q 1472 3097 1187 3025 
Q 903 2953 641 2809 
L 641 3341 
Q 956 3463 1253 3523 
Q 1550 3584 1831 3584 
Q 2591 3584 2966 3190 
Q 3341 2797 3341 1997 
z
" transform="scale(0.015625)"/>
       <path id="DejaVuSans-6c" d="M 603 4863 
L 1178 4863 
L 1178 0 
L 603 0 
L 603 4863 
z
" transform="scale(0.015625)"/>
       <path id="DejaVuSans-75" d="M 544 1381 
L 544 3500 
L 1119 3500 
L 1119 1403 
Q 1119 906 1312 657 
Q 1506 409 1894 409 
Q 2359 409 2629 706 
Q 2900 1003 2900 1516 
L 2900 3500 
L 3475 3500 
L 3475 0 
L 2900 0 
L 2900 538 
Q 2691 219 2414 64 
Q 2138 -91 1772 -91 
Q 1169 -91 856 284 
Q 544 659 544 1381 
z
M 1991 3584 
L 1991 3584 
z
" transform="scale(0.015625)"/>
      </defs>
      <use xlink:href="#DejaVuSans-56"/>
      <use xlink:href="#DejaVuSans-61" x="60.658203"/>
      <use xlink:href="#DejaVuSans-6c" x="121.9375"/>
      <use xlink:href="#DejaVuSans-75" x="149.720703"/>
      <use xlink:href="#DejaVuSans-65" x="213.099609"/>
     </g>
    </g>
   </g>
   <g id="line2d_27">
    <path d="M 85.358267 49.148268 
L 86.814742 50.100887 
L 87.542979 50.464403 
L 88.271216 50.234576 
L 88.999454 50.625984 
L 89.727691 50.60624 
L 90.455928 50.95172 
L 91.184166 51.459659 
L 91.912403 51.038087 
L 94.097115 51.918989 
L 94.825352 51.682548 
L 95.55359 52.333546 
L 96.281827 52.426372 
L 97.010064 52.202078 
L 97.738302 52.151688 
L 98.466539 52.773954 
L 99.194776 52.436967 
L 99.923014 52.702156 
L 100.651251 52.630861 
L 101.379488 51.881815 
L 102.107726 52.286854 
L 103.5642 51.610055 
L 104.292438 51.931603 
L 105.020675 51.927857 
L 105.748912 51.254547 
L 106.47715 51.722926 
L 107.205387 51.350065 
L 107.933624 51.274436 
L 108.661862 50.86166 
L 109.390099 50.865249 
L 110.846574 50.39324 
L 111.574811 49.859039 
L 112.303048 49.741724 
L 113.031286 50.075989 
L 113.759523 49.38499 
L 114.48776 49.34718 
L 115.215998 48.932943 
L 115.944235 48.996297 
L 116.672472 48.598319 
L 117.400709 48.025046 
L 118.128947 48.339813 
L 119.585421 47.239895 
L 120.313659 46.901267 
L 123.226608 46.561035 
L 123.954845 46.081323 
L 124.683083 46.264448 
L 126.139557 45.994737 
L 126.867795 45.441761 
L 127.596032 46.009813 
L 128.324269 45.449594 
L 129.052507 45.883886 
L 129.780744 45.982489 
L 130.508981 45.850528 
L 131.237219 45.345045 
L 131.965456 45.55943 
L 132.693693 46.075472 
L 134.150168 45.804391 
L 135.606643 46.093839 
L 136.33488 46.071648 
L 137.063117 46.385079 
L 137.791355 46.831436 
L 138.519592 46.946659 
L 139.247829 46.729266 
L 139.976067 46.988902 
L 140.704304 46.929935 
L 141.432541 47.884695 
L 142.160779 47.636141 
L 142.889016 47.875584 
L 143.617253 48.46413 
L 144.345491 48.381567 
L 145.073728 48.424665 
L 145.801965 48.71096 
L 146.530203 49.216597 
L 147.25844 49.320868 
L 147.986677 49.855741 
L 148.714915 49.725497 
L 149.443152 50.38081 
L 150.899627 50.387961 
L 151.627864 51.108473 
L 153.084339 51.065113 
L 154.540813 51.517006 
L 155.269051 51.378057 
L 155.997288 51.691855 
L 156.725525 52.143915 
L 158.182 52.130178 
L 158.910237 51.793951 
L 160.366712 52.526627 
L 161.094949 52.254589 
L 161.823187 52.355415 
L 162.551424 52.727503 
L 163.279661 51.823552 
L 164.007898 52.480675 
L 164.736136 52.705711 
L 165.464373 51.680865 
L 166.920848 51.91418 
L 167.649085 51.44686 
L 168.377322 51.857835 
L 169.10556 51.400795 
L 169.833797 51.312204 
L 170.562034 50.889672 
L 171.290272 51.355791 
L 172.018509 50.904401 
L 172.746746 51.12251 
L 173.474984 50.566761 
L 174.203221 50.238876 
L 174.931458 50.177489 
L 176.387933 48.815411 
L 177.11617 49.159166 
L 177.844408 49.078627 
L 178.572645 48.510575 
L 179.300882 48.437828 
L 180.02912 47.567497 
L 180.757357 47.753385 
L 181.485594 47.501361 
L 182.942069 47.251534 
L 183.670306 47.088763 
L 184.398544 46.483635 
L 185.855018 46.697471 
L 186.583256 46.224437 
L 187.311493 46.654667 
L 188.03973 46.404677 
L 188.767968 45.677719 
L 189.496205 46.217814 
L 190.224442 45.599769 
L 190.95268 45.687991 
L 191.680917 45.356275 
L 193.137392 45.733688 
L 193.865629 45.476336 
L 195.322104 46.13699 
L 196.050341 45.668201 
L 196.778578 45.846201 
L 197.506816 46.255037 
L 198.235053 46.274777 
L 198.96329 46.022167 
L 199.691528 46.111805 
L 200.419765 46.96014 
L 201.148002 46.611025 
L 201.87624 46.469595 
L 202.604477 47.219217 
L 203.332714 46.959985 
L 204.060952 47.105208 
L 204.789189 47.597781 
L 205.517426 48.474858 
L 206.245664 48.491688 
L 206.973901 48.319857 
L 207.702138 49.255514 
L 208.430376 49.440911 
L 209.158613 49.156525 
L 209.88685 49.503483 
L 210.615088 50.239093 
L 211.343325 50.546886 
L 212.071562 50.126784 
L 212.799799 50.67015 
L 213.528037 50.94407 
L 214.256274 50.538169 
L 214.984511 51.047241 
L 215.712749 51.097496 
L 216.440986 50.944473 
L 217.169223 51.130985 
L 217.897461 51.51145 
L 218.625698 51.762304 
L 219.353935 52.195917 
L 220.082173 51.79559 
L 220.81041 52.738512 
L 222.266885 51.877786 
L 222.995122 52.511874 
L 223.723359 52.604699 
L 224.451597 51.772703 
L 225.179834 52.166431 
L 227.364546 52.521133 
L 228.092783 52.072056 
L 229.549258 52.069558 
L 230.277495 51.53502 
L 231.005733 51.893496 
L 231.73397 51.712976 
L 232.462207 51.291454 
L 233.190445 51.927159 
L 233.918682 51.330468 
L 234.646919 50.460463 
L 235.375157 50.85196 
L 236.831631 49.95164 
L 237.559869 49.672448 
L 238.288106 49.681561 
L 239.016343 49.894882 
L 240.472818 48.971724 
L 241.201055 48.826243 
L 241.929293 48.185941 
L 242.65753 48.815525 
L 243.385767 47.830407 
L 244.114005 47.382836 
L 244.842242 47.595698 
L 245.570479 47.569386 
L 246.298717 47.247609 
L 248.483429 46.683237 
L 249.211666 46.239402 
L 249.939903 46.35742 
L 250.668141 45.871906 
L 251.396378 46.021666 
L 252.124615 45.515603 
L 252.852853 45.406581 
L 253.58109 45.772509 
L 254.309327 45.842275 
L 255.037565 46.312283 
L 255.765802 45.700182 
L 256.494039 46.033848 
L 257.222277 45.744695 
L 257.950514 46.052258 
L 258.678751 45.781693 
L 260.135226 45.872928 
L 260.863463 46.20631 
L 261.5917 45.878544 
L 262.319938 46.774397 
L 263.048175 47.200868 
L 264.50465 47.40599 
L 265.232887 47.310168 
L 266.689362 48.166988 
L 267.417599 48.071453 
L 268.145836 48.528504 
L 268.874074 48.503667 
L 269.602311 49.509996 
L 270.330548 48.9131 
L 271.058786 49.256294 
L 271.787023 49.909045 
L 272.51526 49.710012 
L 273.243498 49.868168 
L 274.699972 50.844171 
L 275.42821 50.423991 
L 276.156447 51.061236 
L 276.884684 51.163994 
L 277.612922 51.472752 
L 278.341159 51.45333 
L 279.069396 52.306864 
L 280.525871 51.85692 
L 281.254108 52.609719 
L 281.982346 52.325008 
L 282.710583 52.322797 
L 283.43882 53.044515 
L 284.895295 52.690876 
L 286.35177 52.48338 
L 287.080007 51.951137 
L 287.808244 52.850101 
L 288.536482 52.484818 
L 289.264719 52.815082 
L 290.721194 52.220245 
L 291.449431 52.826471 
L 292.177668 52.015002 
L 292.905906 51.881767 
L 293.634143 52.157124 
L 294.36238 51.127886 
L 295.090618 51.392984 
L 295.818855 51.404365 
L 296.547092 51.542562 
L 297.27533 50.580675 
L 298.003567 50.802952 
L 298.731804 50.775918 
L 300.188279 49.573637 
L 300.916516 50.07272 
L 301.644754 49.453986 
L 302.372991 50.045227 
L 303.101228 48.947019 
L 304.557703 48.761299 
L 305.28594 48.422566 
L 306.014178 48.670476 
L 306.742415 48.32908 
L 307.470652 47.431933 
L 308.198889 47.598807 
L 308.927127 46.918788 
L 311.111839 47.204651 
L 312.568313 46.81624 
L 314.024788 46.556352 
L 314.753025 46.150313 
L 315.481263 46.437548 
L 316.2095 46.042311 
L 316.937737 46.458008 
L 317.665975 46.136941 
L 318.394212 46.273698 
L 319.122449 45.833813 
L 319.850687 46.155195 
L 320.578924 46.003899 
L 321.307161 46.139334 
L 322.035399 46.097142 
L 322.763636 46.761782 
L 323.491873 47.184502 
L 324.220111 46.933168 
L 324.948348 47.096842 
L 326.404823 47.039442 
L 327.13306 48.032424 
L 327.861297 47.771234 
L 328.589535 48.33074 
L 330.046009 48.772567 
L 330.774247 48.761544 
L 331.502484 49.370395 
L 332.958959 49.511307 
L 333.687196 49.327605 
L 334.415433 50.109565 
L 335.143671 49.682117 
L 335.871908 51.164775 
L 336.600145 50.876973 
L 338.05662 51.036516 
L 338.784857 51.171839 
L 339.513095 51.565302 
L 340.241332 51.739272 
L 340.969569 52.203915 
L 341.697807 51.460102 
L 343.154281 52.586247 
L 343.882519 52.723207 
L 344.610756 52.524831 
L 345.338993 52.845725 
L 346.067231 53.490897 
L 346.795468 52.898619 
L 347.523705 53.189367 
L 348.251943 52.502138 
L 348.98018 53.378065 
L 349.708417 52.659439 
L 350.436655 52.965079 
L 351.164892 52.890799 
L 351.893129 52.671208 
L 352.621367 53.289644 
L 353.349604 52.496848 
L 354.077841 52.847637 
L 354.806078 52.973523 
L 355.534316 52.781628 
L 356.262553 52.355688 
L 356.99079 52.569266 
L 357.719028 51.585136 
L 358.447265 51.762237 
L 359.175502 51.421579 
L 359.90374 51.619078 
L 360.631977 50.714529 
L 361.360214 50.701383 
L 362.088452 50.870283 
L 362.816689 50.597699 
L 363.544926 49.804702 
L 364.273164 50.122892 
L 365.001401 50.000071 
L 365.729638 49.537412 
L 366.457876 49.250762 
L 367.186113 49.511464 
L 369.370825 48.293566 
L 370.099062 48.733309 
L 370.8273 48.121117 
L 372.283774 47.534906 
L 373.012012 48.050299 
L 373.740249 47.7309 
L 374.468486 47.886314 
L 375.196724 47.46583 
L 375.924961 47.695143 
L 376.653198 47.656397 
L 377.381436 47.120064 
L 378.83791 46.803994 
L 379.566148 47.1969 
L 380.294385 46.902516 
L 381.022622 46.824043 
L 381.75086 46.898479 
L 382.479097 47.43978 
L 383.207334 46.933663 
L 383.935572 46.73275 
L 384.663809 47.026537 
L 385.392046 47.874114 
L 386.120284 47.510457 
L 387.576758 47.408318 
L 388.304996 48.153274 
L 389.033233 47.909449 
L 389.76147 48.458053 
L 390.489708 48.163595 
L 391.217945 49.05344 
L 391.946182 49.037962 
L 392.67442 49.595957 
L 393.402657 49.919371 
L 394.130894 49.673316 
L 395.587369 50.803865 
L 396.315606 50.714711 
L 397.043844 50.411185 
L 397.772081 50.845575 
L 398.500318 51.653818 
L 399.228556 51.498014 
L 399.956793 51.91941 
L 400.68503 51.878283 
L 401.413268 52.543772 
L 402.869742 52.972703 
L 403.597979 53.168701 
L 406.510929 52.845115 
L 407.239166 54.00373 
L 407.967403 53.809086 
L 408.695641 53.191329 
L 409.423878 53.49362 
L 410.152115 54.25573 
L 410.880353 53.465305 
L 411.60859 53.864489 
L 412.336827 54.033347 
L 413.065065 53.797106 
L 413.793302 53.683812 
L 414.521539 53.998425 
L 415.249777 53.631879 
L 415.978014 53.436911 
L 416.706251 53.822162 
L 417.434489 52.807686 
L 418.162726 53.585764 
L 418.890963 53.299476 
L 419.619201 52.585844 
L 421.075675 52.368528 
L 422.53215 52.589443 
L 423.260387 51.65986 
L 423.988625 52.223019 
L 424.716862 51.549943 
L 425.445099 51.475387 
L 426.173337 50.801734 
L 427.629811 51.082795 
L 428.358049 50.751323 
L 429.086286 50.01276 
L 429.814523 50.242723 
L 430.542761 49.645368 
L 431.270998 49.356326 
L 431.999235 49.294836 
L 432.727473 49.864531 
L 433.45571 48.540951 
L 434.183947 48.959629 
L 434.912185 48.293054 
L 435.640422 48.996938 
L 436.368659 48.23787 
L 437.096897 48.867487 
L 437.825134 47.619767 
L 439.281609 47.763315 
L 440.009846 47.644276 
L 440.738083 48.197388 
L 441.466321 47.492831 
L 442.194558 47.427011 
L 442.922795 47.666717 
L 443.651033 47.730948 
L 444.37927 47.63423 
L 445.107507 48.252899 
L 445.835745 48.131291 
L 446.563982 47.833207 
L 447.292219 48.058366 
L 448.020457 48.476669 
L 449.476931 48.94018 
L 450.205168 48.67409 
L 450.933406 49.368454 
L 451.661643 49.500582 
L 452.38988 49.939243 
L 453.118118 49.828473 
L 453.846355 50.091151 
L 454.574592 49.771508 
L 455.30283 50.478196 
L 456.031067 50.451803 
L 456.759304 51.02361 
L 457.487542 50.890134 
L 458.215779 51.022213 
L 458.944016 51.545472 
L 459.672254 51.689465 
L 460.400491 52.060948 
L 461.128728 52.85818 
L 461.856966 52.815311 
L 463.31344 53.259652 
L 464.041678 53.802235 
L 465.498152 53.344292 
L 466.22639 54.250181 
L 466.954627 54.058565 
L 467.682864 54.462838 
L 468.411102 54.253305 
L 469.139339 54.606354 
L 469.867576 54.591463 
L 470.595814 54.767698 
L 471.324051 54.692442 
L 473.508763 55.235596 
L 474.237 55.21211 
L 474.965238 54.667943 
L 475.693475 55.020009 
L 477.878187 54.692321 
L 479.334662 54.916633 
L 480.791136 53.86876 
L 481.519374 54.219137 
L 482.975848 53.690397 
L 483.704086 53.820595 
L 484.432323 53.832399 
L 485.16056 53.414611 
L 485.888798 53.557726 
L 486.617035 52.951677 
L 487.345272 52.964851 
L 488.07351 52.355346 
L 488.801747 52.206391 
L 489.529984 52.313633 
L 490.258222 52.250746 
L 490.986459 51.769229 
L 491.714696 51.120556 
L 492.442934 51.1112 
L 493.171171 51.398256 
L 493.899408 50.613489 
L 494.627646 50.616709 
L 496.08412 49.849315 
L 496.812357 49.660672 
L 497.540595 50.334835 
L 498.268832 49.743195 
L 498.997069 49.53604 
L 499.725307 48.895672 
L 500.453544 48.763115 
L 501.181781 49.220985 
L 502.638256 49.26373 
L 504.094731 48.735653 
L 504.822968 49.395156 
L 505.551205 49.137375 
L 507.00768 49.024034 
L 507.735917 49.470793 
L 508.464155 49.187565 
L 509.920629 49.629682 
L 510.648867 49.574845 
L 511.377104 49.842416 
L 512.105341 49.920884 
L 513.561816 50.312094 
L 514.290053 50.841147 
L 515.018291 50.837117 
L 515.746528 51.306318 
L 516.474765 51.170097 
L 517.203003 52.13579 
L 517.93124 51.7483 
L 518.659477 52.512319 
L 519.387715 52.267054 
L 520.115952 52.556283 
L 520.844189 52.443416 
L 521.572427 53.256535 
L 522.300664 53.129739 
L 523.028901 53.637257 
L 523.757139 54.722285 
L 524.485376 54.120927 
L 525.213613 54.292232 
L 525.941851 55.170044 
L 526.670088 54.678804 
L 527.398325 55.171745 
L 528.126563 55.177743 
L 528.8548 55.575505 
L 529.583037 55.5878 
L 530.311275 55.75496 
L 531.039512 55.705225 
L 531.767749 55.506013 
L 532.495987 56.176959 
L 533.224224 56.079397 
L 533.952461 56.387156 
L 536.137173 56.671627 
L 537.593648 56.922696 
L 538.321885 56.733988 
L 539.050123 56.822761 
L 539.77836 56.53049 
L 541.963072 56.113681 
L 542.691309 56.733916 
L 543.419547 55.89585 
L 544.147784 55.898671 
L 544.876021 55.524613 
L 545.604258 55.831741 
L 546.332496 55.324138 
L 547.060733 54.958109 
L 548.517208 54.847516 
L 549.245445 54.527974 
L 549.973682 54.62436 
L 550.70192 53.984852 
L 552.158394 53.477524 
L 552.886632 53.402602 
L 553.614869 52.716458 
L 554.343106 53.162789 
L 555.071344 52.835875 
L 555.799581 52.714769 
L 556.527818 52.10876 
L 558.71253 51.86758 
L 559.440768 52.000443 
L 560.169005 51.448975 
L 560.897242 51.457025 
L 561.62548 51.328932 
L 562.353717 51.082217 
L 563.081954 51.114058 
L 563.810192 50.829483 
L 564.538429 50.854437 
L 565.266666 51.323152 
L 565.994904 50.425439 
L 566.723141 51.204359 
L 567.451378 51.411027 
L 568.179616 50.537091 
L 569.63609 51.63689 
L 570.364328 50.971159 
L 571.092565 51.006397 
L 571.820802 51.192432 
L 572.54904 51.737997 
L 573.277277 51.374087 
L 574.005514 51.516636 
L 574.733752 51.336114 
L 575.461989 52.905764 
L 576.190226 52.286895 
L 576.918464 52.39552 
L 578.374938 53.377187 
L 579.103176 53.184682 
L 579.831413 53.875162 
L 580.55965 54.116413 
L 582.016125 53.877306 
L 582.744362 54.514821 
L 583.4726 54.43134 
L 584.929074 55.916814 
L 585.657312 55.89711 
L 586.385549 56.087635 
L 587.113786 56.099804 
L 587.842024 56.353379 
L 588.570261 57.007979 
L 589.298498 56.829353 
L 590.026736 57.317937 
L 590.754973 57.618009 
L 591.48321 57.731738 
L 592.939685 57.753156 
L 593.667922 57.529136 
L 595.852634 58.479998 
L 596.580871 58.170766 
L 597.309109 59.308504 
L 598.037346 58.597487 
L 598.765583 58.274183 
L 599.493821 58.955001 
L 601.678533 58.435832 
L 603.135007 58.796489 
L 603.863245 57.966321 
L 604.591482 58.35432 
L 605.319719 58.326116 
L 606.047957 57.919978 
L 606.776194 58.269963 
L 607.504431 57.471674 
L 608.232669 57.298823 
L 608.960906 57.95906 
L 609.689143 57.243676 
L 610.417381 56.898236 
L 611.145618 56.856682 
L 611.873855 56.513532 
L 612.602093 56.612807 
L 613.33033 56.453329 
L 614.058567 55.83662 
L 614.786805 55.631354 
L 616.243279 54.88604 
L 617.699754 54.44376 
L 618.427991 54.889611 
L 619.156229 54.794422 
L 619.884466 53.946898 
L 620.612703 54.37792 
L 621.340941 53.473088 
L 622.069178 53.505184 
L 622.797415 53.788662 
L 624.25389 53.252315 
L 624.982127 53.531289 
L 625.710365 53.211684 
L 626.438602 52.642892 
L 627.166839 52.867126 
L 628.623314 53.175802 
L 629.351551 53.43998 
L 630.079789 53.249036 
L 630.808026 53.221024 
L 631.536263 53.341149 
L 632.264501 53.071574 
L 632.992738 53.29709 
L 633.720975 53.693984 
L 634.449213 53.389469 
L 635.17745 53.564163 
L 636.633925 54.392623 
L 637.362162 54.382392 
L 638.090399 54.715711 
L 638.818637 54.578533 
L 639.546874 55.19331 
L 640.275111 54.71097 
L 641.003348 56.015326 
L 641.731586 55.469414 
L 642.459823 56.412374 
L 643.18806 56.174467 
L 643.916298 56.635077 
L 644.644535 56.841772 
L 645.372772 57.912682 
L 646.10101 57.349165 
L 647.557484 57.91556 
L 649.013959 58.262029 
L 649.742196 58.792682 
L 650.470434 59.747071 
L 651.198671 59.558426 
L 651.926908 59.534408 
L 652.655146 59.815196 
L 653.383383 59.688986 
L 654.839858 60.144971 
L 655.568095 60.766455 
L 656.296332 60.439492 
L 657.02457 60.78435 
L 657.752807 60.968578 
L 658.481044 61.344923 
L 659.209282 60.946908 
L 660.665756 61.196011 
L 661.393994 61.205721 
L 662.122231 60.828097 
L 662.850468 61.183936 
L 663.578706 61.036649 
L 664.306943 61.77807 
L 665.03518 61.48179 
L 665.763418 60.901365 
L 666.491655 61.090618 
L 667.219892 60.684857 
L 667.94813 60.850321 
L 670.132842 60.293274 
L 670.861079 60.259115 
L 671.589316 59.869111 
L 672.317554 59.838281 
L 673.045791 59.617076 
L 673.774028 59.177452 
L 676.686978 58.64267 
L 677.415215 58.439919 
L 678.143452 57.955238 
L 678.87169 57.987949 
L 679.599927 58.183546 
L 680.328164 57.147574 
L 681.056402 57.177328 
L 681.784639 57.511452 
L 682.512876 57.231427 
L 683.241114 56.742252 
L 683.969351 57.002873 
L 684.697588 56.394565 
L 685.425826 56.654466 
L 686.154063 55.971379 
L 687.610537 56.294735 
L 689.067012 55.780131 
L 690.523487 56.52023 
L 691.251724 56.266118 
L 691.979961 56.235646 
L 692.708199 55.781377 
L 693.436436 56.522724 
L 694.164673 56.396772 
L 694.892911 56.549156 
L 695.621148 56.21884 
L 696.349385 56.726633 
L 697.077623 56.488334 
L 698.534097 56.665981 
L 699.262335 57.940289 
L 699.990572 57.648374 
L 700.718809 58.268583 
L 701.447047 58.405698 
L 702.175284 58.006478 
L 702.903521 58.690274 
L 703.631759 58.424287 
L 705.088233 59.1696 
L 705.816471 59.31239 
L 706.544708 59.84279 
L 707.272945 60.127583 
L 708.001183 60.632037 
L 708.72942 60.486699 
L 709.457657 60.548098 
L 710.914132 60.900187 
L 711.642369 61.96471 
L 712.370607 62.285075 
L 713.098844 62.389753 
L 714.555319 62.815957 
L 715.283556 62.285058 
L 716.011793 63.534735 
L 716.740031 63.329857 
L 717.468268 63.68348 
L 718.196505 63.901192 
L 718.924743 63.605818 
L 719.65298 63.964322 
L 720.381217 63.683695 
L 721.837692 64.677865 
L 722.565929 64.371936 
L 723.294167 64.559476 
L 724.022404 63.774561 
L 724.750641 64.390642 
L 725.478879 64.502893 
L 726.935353 64.380572 
L 727.663591 63.921283 
L 728.391828 64.526167 
L 729.120065 63.808664 
L 729.848303 63.87559 
L 730.57654 64.473031 
L 731.304777 64.724872 
L 732.033015 63.833808 
L 732.761252 63.95158 
L 733.489489 63.901806 
L 734.217727 62.96374 
L 734.945964 63.023902 
L 735.674201 62.654193 
L 736.402438 62.680571 
L 737.130676 62.502279 
L 737.858913 62.877792 
L 738.58715 62.444598 
L 739.315388 61.85017 
L 740.043625 61.678175 
L 740.771862 61.234773 
L 741.5001 61.503472 
L 742.228337 61.302592 
L 742.956574 60.319625 
L 743.684812 61.065517 
L 745.141286 60.293463 
L 746.597761 60.342967 
L 747.325998 59.866405 
L 748.054236 59.678191 
L 748.782473 60.04626 
L 749.51071 59.666974 
L 750.238948 60.263712 
L 750.967185 59.64104 
L 751.695422 59.524105 
L 752.42366 59.675764 
L 754.608372 59.527215 
L 755.336609 59.809909 
L 756.064846 59.665765 
L 756.793084 60.048047 
L 758.249558 59.943286 
L 758.977796 60.244936 
L 760.43427 60.082405 
L 761.890745 61.118574 
L 762.618982 60.588062 
L 763.34722 61.263676 
L 764.803694 62.031558 
L 766.260169 62.512342 
L 766.988406 62.503122 
L 767.716644 62.339257 
L 768.444881 63.557222 
L 769.173118 63.871295 
L 769.901356 64.390561 
L 770.629593 63.540103 
L 771.35783 64.560042 
L 772.814305 65.049859 
L 773.542542 65.459735 
L 774.27078 66.113402 
L 774.999017 65.190774 
L 775.727254 66.657692 
L 776.455492 66.351534 
L 777.183729 66.932473 
L 777.911966 66.854319 
L 778.640204 67.400093 
L 779.368441 66.940952 
L 780.096678 67.333573 
L 780.824916 67.44681 
L 781.553153 68.601884 
L 782.28139 68.152209 
L 783.009627 68.458991 
L 783.737865 68.257782 
L 785.194339 68.444456 
L 785.922577 67.857874 
L 786.650814 68.38038 
L 787.379051 68.317308 
L 788.107289 68.796104 
L 789.563763 68.275472 
L 790.292001 68.750581 
L 791.020238 67.793682 
L 791.748475 68.145524 
L 792.476713 68.365174 
L 793.20495 68.291788 
L 793.933187 67.652268 
L 794.661425 67.826718 
L 795.389662 67.035157 
L 796.117899 67.142869 
L 796.846137 67.424171 
L 798.302611 66.744051 
L 799.030849 66.673172 
L 799.759086 66.370128 
L 800.487323 66.271076 
L 801.943798 65.643387 
L 802.672035 65.839656 
L 803.400273 65.177634 
L 804.12851 65.657116 
L 804.856747 65.158799 
L 805.584985 65.209605 
L 806.313222 64.883428 
L 807.041459 65.290261 
L 807.769697 64.765539 
L 808.497934 64.919096 
L 809.226171 64.529333 
L 810.682646 64.349473 
L 811.410883 63.816847 
L 812.139121 64.285958 
L 812.867358 64.005645 
L 812.867358 64.005645 
" clip-path="url(#p0d35ea28e5)" style="fill: none; stroke: #4682b4; stroke-width: 0.8; stroke-linecap: square"/>
   </g>
   <g id="line2d_28">
    <path d="M 48.982813 52.26936 
L 849.242813 52.26936 
" clip-path="url(#p0d35ea28e5)" style="fill: none; stroke: #ff0000; stroke-width: 2; stroke-linecap: square"/>
   </g>
   <g id="line2d_29">
    <path d="M 48.982813 235.875955 
L 849.242813 235.875955 
" clip-path="url(#p0d35ea28e5)" style="fill: none; stroke-dasharray: 7.4,3.2; stroke-dashoffset: 0; stroke: #008000; stroke-width: 2"/>
   </g>
   <g id="patch_3">
    <path d="M 48.982813 245.4025 
L 48.982813 35.8185 
" style="fill: none; stroke: #000000; stroke-width: 0.8; stroke-linejoin: miter; stroke-linecap: square"/>
   </g>
   <g id="patch_4">
    <path d="M 849.242813 245.4025 
L 849.242813 35.8185 
" style="fill: none; stroke: #000000; stroke-width: 0.8; stroke-linejoin: miter; stroke-linecap: square"/>
   </g>
   <g id="patch_5">
    <path d="M 48.982812 245.4025 
L 849.242813 245.4025 
" style="fill: none; stroke: #000000; stroke-width: 0.8; stroke-linejoin: miter; stroke-linecap: square"/>
   </g>
   <g id="patch_6">
    <path d="M 48.982812 35.8185 
L 849.242813 35.8185 
" style="fill: none; stroke: #000000; stroke-width: 0.8; stroke-linejoin: miter; stroke-linecap: square"/>
   </g>
   <g id="text_16">
    <!-- Series 62 -->
    <g transform="translate(421.119063 16.318125) scale(0.12 -0.12)">
     <defs>
      <path id="DejaVuSans-53" d="M 3425 4513 
L 3425 3897 
Q 3066 4069 2747 4153 
Q 2428 4238 2131 4238 
Q 1616 4238 1336 4038 
Q 1056 3838 1056 3469 
Q 1056 3159 1242 3001 
Q 1428 2844 1947 2747 
L 2328 2669 
Q 3034 2534 3370 2195 
Q 3706 1856 3706 1288 
Q 3706 609 3251 259 
Q 2797 -91 1919 -91 
Q 1588 -91 1214 -16 
Q 841 59 441 206 
L 441 856 
Q 825 641 1194 531 
Q 1563 422 1919 422 
Q 2459 422 2753 634 
Q 3047 847 3047 1241 
Q 3047 1584 2836 1778 
Q 2625 1972 2144 2069 
L 1759 2144 
Q 1053 2284 737 2584 
Q 422 2884 422 3419 
Q 422 4038 858 4394 
Q 1294 4750 2059 4750 
Q 2388 4750 2728 4690 
Q 3069 4631 3425 4513 
z
" transform="scale(0.015625)"/>
      <path id="DejaVuSans-72" d="M 2631 2963 
Q 2534 3019 2420 3045 
Q 2306 3072 2169 3072 
Q 1681 3072 1420 2755 
Q 1159 2438 1159 1844 
L 1159 0 
L 581 0 
L 581 3500 
L 1159 3500 
L 1159 2956 
Q 1341 3275 1631 3429 
Q 1922 3584 2338 3584 
Q 2397 3584 2469 3576 
Q 2541 3569 2628 3553 
L 2631 2963 
z
" transform="scale(0.015625)"/>
      <path id="DejaVuSans-73" d="M 2834 3397 
L 2834 2853 
Q 2591 2978 2328 3040 
Q 2066 3103 1784 3103 
Q 1356 3103 1142 2972 
Q 928 2841 928 2578 
Q 928 2378 1081 2264 
Q 1234 2150 1697 2047 
L 1894 2003 
Q 2506 1872 2764 1633 
Q 3022 1394 3022 966 
Q 3022 478 2636 193 
Q 2250 -91 1575 -91 
Q 1294 -91 989 -36 
Q 684 19 347 128 
L 347 722 
Q 666 556 975 473 
Q 1284 391 1588 391 
Q 1994 391 2212 530 
Q 2431 669 2431 922 
Q 2431 1156 2273 1281 
Q 2116 1406 1581 1522 
L 1381 1569 
Q 847 1681 609 1914 
Q 372 2147 372 2553 
Q 372 3047 722 3315 
Q 1072 3584 1716 3584 
Q 2034 3584 2315 3537 
Q 2597 3491 2834 3397 
z
" transform="scale(0.015625)"/>
      <path id="DejaVuSans-20" transform="scale(0.015625)"/>
     </defs>
     <use xlink:href="#DejaVuSans-53"/>
     <use xlink:href="#DejaVuSans-65" x="63.476562"/>
     <use xlink:href="#DejaVuSans-72" x="125"/>
     <use xlink:href="#DejaVuSans-69" x="166.113281"/>
     <use xlink:href="#DejaVuSans-65" x="193.896484"/>
     <use xlink:href="#DejaVuSans-73" x="255.419922"/>
     <use xlink:href="#DejaVuSans-20" x="307.519531"/>
     <use xlink:href="#DejaVuSans-36" x="339.306641"/>
     <use xlink:href="#DejaVuSans-32" x="402.929688"/>
    </g>
    <!-- DATASET-LEVEL ANOMALY | z=4.64 -->
    <g transform="translate(344.310625 29.8185) scale(0.12 -0.12)">
     <defs>
      <path id="DejaVuSans-44" d="M 1259 4147 
L 1259 519 
L 2022 519 
Q 2988 519 3436 956 
Q 3884 1394 3884 2338 
Q 3884 3275 3436 3711 
Q 2988 4147 2022 4147 
L 1259 4147 
z
M 628 4666 
L 1925 4666 
Q 3281 4666 3915 4102 
Q 4550 3538 4550 2338 
Q 4550 1131 3912 565 
Q 3275 0 1925 0 
L 628 0 
L 628 4666 
z
" transform="scale(0.015625)"/>
      <path id="DejaVuSans-41" d="M 2188 4044 
L 1331 1722 
L 3047 1722 
L 2188 4044 
z
M 1831 4666 
L 2547 4666 
L 4325 0 
L 3669 0 
L 3244 1197 
L 1141 1197 
L 716 0 
L 50 0 
L 1831 4666 
z
" transform="scale(0.015625)"/>
      <path id="DejaVuSans-45" d="M 628 4666 
L 3578 4666 
L 3578 4134 
L 1259 4134 
L 1259 2753 
L 3481 2753 
L 3481 2222 
L 1259 2222 
L 1259 531 
L 3634 531 
L 3634 0 
L 628 0 
L 628 4666 
z
" transform="scale(0.015625)"/>
      <path id="DejaVuSans-2d" d="M 313 2009 
L 1997 2009 
L 1997 1497 
L 313 1497 
L 313 2009 
z
" transform="scale(0.015625)"/>
      <path id="DejaVuSans-4c" d="M 628 4666 
L 1259 4666 
L 1259 531 
L 3531 531 
L 3531 0 
L 628 0 
L 628 4666 
z
" transform="scale(0.015625)"/>
      <path id="DejaVuSans-4e" d="M 628 4666 
L 1478 4666 
L 3547 763 
L 3547 4666 
L 4159 4666 
L 4159 0 
L 3309 0 
L 1241 3903 
L 1241 0 
L 628 0 
L 628 4666 
z
" transform="scale(0.015625)"/>
      <path id="DejaVuSans-4f" d="M 2522 4238 
Q 1834 4238 1429 3725 
Q 1025 3213 1025 2328 
Q 1025 1447 1429 934 
Q 1834 422 2522 422 
Q 3209 422 3611 934 
Q 4013 1447 4013 2328 
Q 4013 3213 3611 3725 
Q 3209 4238 2522 4238 
z
M 2522 4750 
Q 3503 4750 4090 4092 
Q 4678 3434 4678 2328 
Q 4678 1225 4090 567 
Q 3503 -91 2522 -91 
Q 1538 -91 948 565 
Q 359 1222 359 2328 
Q 359 3434 948 4092 
Q 1538 4750 2522 4750 
z
" transform="scale(0.015625)"/>
      <path id="DejaVuSans-4d" d="M 628 4666 
L 1569 4666 
L 2759 1491 
L 3956 4666 
L 4897 4666 
L 4897 0 
L 4281 0 
L 4281 4097 
L 3078 897 
L 2444 897 
L 1241 4097 
L 1241 0 
L 628 0 
L 628 4666 
z
" transform="scale(0.015625)"/>
      <path id="DejaVuSans-59" d="M -13 4666 
L 666 4666 
L 1959 2747 
L 3244 4666 
L 3922 4666 
L 2272 2222 
L 2272 0 
L 1638 0 
L 1638 2222 
L -13 4666 
z
" transform="scale(0.015625)"/>
      <path id="DejaVuSans-7c" d="M 1344 4891 
L 1344 -1509 
L 813 -1509 
L 813 4891 
L 1344 4891 
z
" transform="scale(0.015625)"/>
      <path id="DejaVuSans-7a" d="M 353 3500 
L 3084 3500 
L 3084 2975 
L 922 459 
L 3084 459 
L 3084 0 
L 275 0 
L 275 525 
L 2438 3041 
L 353 3041 
L 353 3500 
z
" transform="scale(0.015625)"/>
      <path id="DejaVuSans-3d" d="M 678 2906 
L 4684 2906 
L 4684 2381 
L 678 2381 
L 678 2906 
z
M 678 1631 
L 4684 1631 
L 4684 1100 
L 678 1100 
L 678 1631 
z
" transform="scale(0.015625)"/>
      <path id="DejaVuSans-2e" d="M 684 794 
L 1344 794 
L 1344 0 
L 684 0 
L 684 794 
z
" transform="scale(0.015625)"/>
     </defs>
     <use xlink:href="#DejaVuSans-44"/>
     <use xlink:href="#DejaVuSans-41" x="75.251953"/>
     <use xlink:href="#DejaVuSans-54" x="135.910156"/>
     <use xlink:href="#DejaVuSans-41" x="189.244141"/>
     <use xlink:href="#DejaVuSans-53" x="257.652344"/>
     <use xlink:href="#DejaVuSans-45" x="321.128906"/>
     <use xlink:href="#DejaVuSans-54" x="384.3125"/>
     <use xlink:href="#DejaVuSans-2d" x="436.271484"/>
     <use xlink:href="#DejaVuSans-4c" x="472.355469"/>
     <use xlink:href="#DejaVuSans-45" x="528.068359"/>
     <use xlink:href="#DejaVuSans-56" x="591.251953"/>
     <use xlink:href="#DejaVuSans-45" x="659.660156"/>
     <use xlink:href="#DejaVuSans-4c" x="722.84375"/>
     <use xlink:href="#DejaVuSans-20" x="778.556641"/>
     <use xlink:href="#DejaVuSans-41" x="810.34375"/>
     <use xlink:href="#DejaVuSans-4e" x="878.751953"/>
     <use xlink:href="#DejaVuSans-4f" x="953.556641"/>
     <use xlink:href="#DejaVuSans-4d" x="1032.267578"/>
     <use xlink:href="#DejaVuSans-41" x="1118.546875"/>
     <use xlink:href="#DejaVuSans-4c" x="1186.955078"/>
     <use xlink:href="#DejaVuSans-59" x="1229.417969"/>
     <use xlink:href="#DejaVuSans-20" x="1290.501953"/>
     <use xlink:href="#DejaVuSans-7c" x="1322.289062"/>
     <use xlink:href="#DejaVuSans-20" x="1355.980469"/>
     <use xlink:href="#DejaVuSans-7a" x="1387.767578"/>
     <use xlink:href="#DejaVuSans-3d" x="1440.257812"/>
     <use xlink:href="#DejaVuSans-34" x="1524.046875"/>
     <use xlink:href="#DejaVuSans-2e" x="1587.669922"/>
     <use xlink:href="#DejaVuSans-36" x="1619.457031"/>
     <use xlink:href="#DejaVuSans-34" x="1683.080078"/>
    </g>
   </g>
   <g id="legend_1">
    <g id="patch_7">
     <path d="M 691.061563 87.852875 
L 842.242813 87.852875 
Q 844.242813 87.852875 844.242813 85.852875 
L 844.242813 42.8185 
Q 844.242813 40.8185 842.242813 40.8185 
L 691.061563 40.8185 
Q 689.061563 40.8185 689.061563 42.8185 
L 689.061563 85.852875 
Q 689.061563 87.852875 691.061563 87.852875 
z
" style="fill: #ffffff; opacity: 0.8; stroke: #cccccc; stroke-linejoin: miter"/>
    </g>
    <g id="line2d_30">
     <path d="M 693.061563 48.916938 
L 703.061563 48.916938 
L 713.061563 48.916938 
" style="fill: none; stroke: #4682b4; stroke-width: 0.8; stroke-linecap: square"/>
    </g>
    <g id="text_17">
     <!-- Series -->
     <g transform="translate(721.061563 52.416938) scale(0.1 -0.1)">
      <use xlink:href="#DejaVuSans-53"/>
      <use xlink:href="#DejaVuSans-65" x="63.476562"/>
      <use xlink:href="#DejaVuSans-72" x="125"/>
      <use xlink:href="#DejaVuSans-69" x="166.113281"/>
      <use xlink:href="#DejaVuSans-65" x="193.896484"/>
      <use xlink:href="#DejaVuSans-73" x="255.419922"/>
     </g>
    </g>
    <g id="line2d_31">
     <path d="M 693.061563 63.595063 
L 703.061563 63.595063 
L 713.061563 63.595063 
" style="fill: none; stroke: #ff0000; stroke-width: 2; stroke-linecap: square"/>
    </g>
    <g id="text_18">
     <!-- Series baseline = 63.18 -->
     <g transform="translate(721.061563 67.095063) scale(0.1 -0.1)">
      <defs>
       <path id="DejaVuSans-62" d="M 3116 1747 
Q 3116 2381 2855 2742 
Q 2594 3103 2138 3103 
Q 1681 3103 1420 2742 
Q 1159 2381 1159 1747 
Q 1159 1113 1420 752 
Q 1681 391 2138 391 
Q 2594 391 2855 752 
Q 3116 1113 3116 1747 
z
M 1159 2969 
Q 1341 3281 1617 3432 
Q 1894 3584 2278 3584 
Q 2916 3584 3314 3078 
Q 3713 2572 3713 1747 
Q 3713 922 3314 415 
Q 2916 -91 2278 -91 
Q 1894 -91 1617 61 
Q 1341 213 1159 525 
L 1159 0 
L 581 0 
L 581 4863 
L 1159 4863 
L 1159 2969 
z
" transform="scale(0.015625)"/>
       <path id="DejaVuSans-6e" d="M 3513 2113 
L 3513 0 
L 2938 0 
L 2938 2094 
Q 2938 2591 2744 2837 
Q 2550 3084 2163 3084 
Q 1697 3084 1428 2787 
Q 1159 2491 1159 1978 
L 1159 0 
L 581 0 
L 581 3500 
L 1159 3500 
L 1159 2956 
Q 1366 3272 1645 3428 
Q 1925 3584 2291 3584 
Q 2894 3584 3203 3211 
Q 3513 2838 3513 2113 
z
" transform="scale(0.015625)"/>
      </defs>
      <use xlink:href="#DejaVuSans-53"/>
      <use xlink:href="#DejaVuSans-65" x="63.476562"/>
      <use xlink:href="#DejaVuSans-72" x="125"/>
      <use xlink:href="#DejaVuSans-69" x="166.113281"/>
      <use xlink:href="#DejaVuSans-65" x="193.896484"/>
      <use xlink:href="#DejaVuSans-73" x="255.419922"/>
      <use xlink:href="#DejaVuSans-20" x="307.519531"/>
      <use xlink:href="#DejaVuSans-62" x="339.306641"/>
      <use xlink:href="#DejaVuSans-61" x="402.783203"/>
      <use xlink:href="#DejaVuSans-73" x="464.0625"/>
      <use xlink:href="#DejaVuSans-65" x="516.162109"/>
      <use xlink:href="#DejaVuSans-6c" x="577.685547"/>
      <use xlink:href="#DejaVuSans-69" x="605.46875"/>
      <use xlink:href="#DejaVuSans-6e" x="633.251953"/>
      <use xlink:href="#DejaVuSans-65" x="696.630859"/>
      <use xlink:href="#DejaVuSans-20" x="758.154297"/>
      <use xlink:href="#DejaVuSans-3d" x="789.941406"/>
      <use xlink:href="#DejaVuSans-20" x="873.730469"/>
      <use xlink:href="#DejaVuSans-36" x="905.517578"/>
      <use xlink:href="#DejaVuSans-33" x="969.140625"/>
      <use xlink:href="#DejaVuSans-2e" x="1032.763672"/>
      <use xlink:href="#DejaVuSans-31" x="1064.550781"/>
      <use xlink:href="#DejaVuSans-38" x="1128.173828"/>
     </g>
    </g>
    <g id="line2d_32">
     <path d="M 693.061563 78.273188 
L 703.061563 78.273188 
L 713.061563 78.273188 
" style="fill: none; stroke-dasharray: 7.4,3.2; stroke-dashoffset: 0; stroke: #008000; stroke-width: 2"/>
    </g>
    <g id="text_19">
     <!-- Dataset median = 0.01 -->
     <g transform="translate(721.061563 81.773188) scale(0.1 -0.1)">
      <defs>
       <path id="DejaVuSans-74" d="M 1172 4494 
L 1172 3500 
L 2356 3500 
L 2356 3053 
L 1172 3053 
L 1172 1153 
Q 1172 725 1289 603 
Q 1406 481 1766 481 
L 2356 481 
L 2356 0 
L 1766 0 
Q 1100 0 847 248 
Q 594 497 594 1153 
L 594 3053 
L 172 3053 
L 172 3500 
L 594 3500 
L 594 4494 
L 1172 4494 
z
" transform="scale(0.015625)"/>
       <path id="DejaVuSans-64" d="M 2906 2969 
L 2906 4863 
L 3481 4863 
L 3481 0 
L 2906 0 
L 2906 525 
Q 2725 213 2448 61 
Q 2172 -91 1784 -91 
Q 1150 -91 751 415 
Q 353 922 353 1747 
Q 353 2572 751 3078 
Q 1150 3584 1784 3584 
Q 2172 3584 2448 3432 
Q 2725 3281 2906 2969 
z
M 947 1747 
Q 947 1113 1208 752 
Q 1469 391 1925 391 
Q 2381 391 2643 752 
Q 2906 1113 2906 1747 
Q 2906 2381 2643 2742 
Q 2381 3103 1925 3103 
Q 1469 3103 1208 2742 
Q 947 2381 947 1747 
z
" transform="scale(0.015625)"/>
      </defs>
      <use xlink:href="#DejaVuSans-44"/>
      <use xlink:href="#DejaVuSans-61" x="77.001953"/>
      <use xlink:href="#DejaVuSans-74" x="138.28125"/>
      <use xlink:href="#DejaVuSans-61" x="177.490234"/>
      <use xlink:href="#DejaVuSans-73" x="238.769531"/>
      <use xlink:href="#DejaVuSans-65" x="290.869141"/>
      <use xlink:href="#DejaVuSans-74" x="352.392578"/>
      <use xlink:href="#DejaVuSans-20" x="391.601562"/>
      <use xlink:href="#DejaVuSans-6d" x="423.388672"/>
      <use xlink:href="#DejaVuSans-65" x="520.800781"/>
      <use xlink:href="#DejaVuSans-64" x="582.324219"/>
      <use xlink:href="#DejaVuSans-69" x="645.800781"/>
      <use xlink:href="#DejaVuSans-61" x="673.583984"/>
      <use xlink:href="#DejaVuSans-6e" x="734.863281"/>
      <use xlink:href="#DejaVuSans-20" x="798.242188"/>
      <use xlink:href="#DejaVuSans-3d" x="830.029297"/>
      <use xlink:href="#DejaVuSans-20" x="913.818359"/>
      <use xlink:href="#DejaVuSans-30" x="945.605469"/>
      <use xlink:href="#DejaVuSans-2e" x="1009.228516"/>
      <use xlink:href="#DejaVuSans-30" x="1041.015625"/>
      <use xlink:href="#DejaVuSans-31" x="1104.638672"/>
     </g>
    </g>
   </g>
  </g>
  <g id="axes_2">
   <g id="patch_8">
    <path d="M 48.982813 528.0025 
L 849.242813 528.0025 
L 849.242813 318.4185 
L 48.982813 318.4185 
z
" style="fill: #ffffff"/>
   </g>
   <g id="matplotlib.axis_3">
    <g id="xtick_7">
     <g id="line2d_33">
      <path d="M 85.358267 528.0025 
L 85.358267 318.4185 
" clip-path="url(#p1d35dcf098)" style="fill: none; stroke: #b0b0b0; stroke-opacity: 0.3; stroke-width: 0.8; stroke-linecap: square"/>
     </g>
     <g id="line2d_34">
      <g>
       <use xlink:href="#m885143cb66" x="85.358267" y="528.0025" style="stroke: #000000; stroke-width: 0.8"/>
      </g>
     </g>
     <g id="text_20">
      <!-- 0 -->
      <g transform="translate(82.177017 542.600938) scale(0.1 -0.1)">
       <use xlink:href="#DejaVuSans-30"/>
      </g>
     </g>
    </g>
    <g id="xtick_8">
     <g id="line2d_35">
      <path d="M 230.860085 528.0025 
L 230.860085 318.4185 
" clip-path="url(#p1d35dcf098)" style="fill: none; stroke: #b0b0b0; stroke-opacity: 0.3; stroke-width: 0.8; stroke-linecap: square"/>
     </g>
     <g id="line2d_36">
      <g>
       <use xlink:href="#m885143cb66" x="230.860085" y="528.0025" style="stroke: #000000; stroke-width: 0.8"/>
      </g>
     </g>
     <g id="text_21">
      <!-- 20 -->
      <g transform="translate(224.497585 542.600938) scale(0.1 -0.1)">
       <use xlink:href="#DejaVuSans-32"/>
       <use xlink:href="#DejaVuSans-30" x="63.623047"/>
      </g>
     </g>
    </g>
    <g id="xtick_9">
     <g id="line2d_37">
      <path d="M 376.361903 528.0025 
L 376.361903 318.4185 
" clip-path="url(#p1d35dcf098)" style="fill: none; stroke: #b0b0b0; stroke-opacity: 0.3; stroke-width: 0.8; stroke-linecap: square"/>
     </g>
     <g id="line2d_38">
      <g>
       <use xlink:href="#m885143cb66" x="376.361903" y="528.0025" style="stroke: #000000; stroke-width: 0.8"/>
      </g>
     </g>
     <g id="text_22">
      <!-- 40 -->
      <g transform="translate(369.999403 542.600938) scale(0.1 -0.1)">
       <use xlink:href="#DejaVuSans-34"/>
       <use xlink:href="#DejaVuSans-30" x="63.623047"/>
      </g>
     </g>
    </g>
    <g id="xtick_10">
     <g id="line2d_39">
      <path d="M 521.863722 528.0025 
L 521.863722 318.4185 
" clip-path="url(#p1d35dcf098)" style="fill: none; stroke: #b0b0b0; stroke-opacity: 0.3; stroke-width: 0.8; stroke-linecap: square"/>
     </g>
     <g id="line2d_40">
      <g>
       <use xlink:href="#m885143cb66" x="521.863722" y="528.0025" style="stroke: #000000; stroke-width: 0.8"/>
      </g>
     </g>
     <g id="text_23">
      <!-- 60 -->
      <g transform="translate(515.501222 542.600938) scale(0.1 -0.1)">
       <use xlink:href="#DejaVuSans-36"/>
       <use xlink:href="#DejaVuSans-30" x="63.623047"/>
      </g>
     </g>
    </g>
    <g id="xtick_11">
     <g id="line2d_41">
      <path d="M 667.36554 528.0025 
L 667.36554 318.4185 
" clip-path="url(#p1d35dcf098)" style="fill: none; stroke: #b0b0b0; stroke-opacity: 0.3; stroke-width: 0.8; stroke-linecap: square"/>
     </g>
     <g id="line2d_42">
      <g>
       <use xlink:href="#m885143cb66" x="667.36554" y="528.0025" style="stroke: #000000; stroke-width: 0.8"/>
      </g>
     </g>
     <g id="text_24">
      <!-- 80 -->
      <g transform="translate(661.00304 542.600938) scale(0.1 -0.1)">
       <use xlink:href="#DejaVuSans-38"/>
       <use xlink:href="#DejaVuSans-30" x="63.623047"/>
      </g>
     </g>
    </g>
    <g id="xtick_12">
     <g id="line2d_43">
      <path d="M 812.867358 528.0025 
L 812.867358 318.4185 
" clip-path="url(#p1d35dcf098)" style="fill: none; stroke: #b0b0b0; stroke-opacity: 0.3; stroke-width: 0.8; stroke-linecap: square"/>
     </g>
     <g id="line2d_44">
      <g>
       <use xlink:href="#m885143cb66" x="812.867358" y="528.0025" style="stroke: #000000; stroke-width: 0.8"/>
      </g>
     </g>
     <g id="text_25">
      <!-- 100 -->
      <g transform="translate(803.323608 542.600938) scale(0.1 -0.1)">
       <use xlink:href="#DejaVuSans-31"/>
       <use xlink:href="#DejaVuSans-30" x="63.623047"/>
       <use xlink:href="#DejaVuSans-30" x="127.246094"/>
      </g>
     </g>
    </g>
    <g id="text_26">
     <!-- Time -->
     <g transform="translate(436.879219 556.279063) scale(0.1 -0.1)">
      <use xlink:href="#DejaVuSans-54"/>
      <use xlink:href="#DejaVuSans-69" x="57.958984"/>
      <use xlink:href="#DejaVuSans-6d" x="85.742188"/>
      <use xlink:href="#DejaVuSans-65" x="183.154297"/>
     </g>
    </g>
   </g>
   <g id="matplotlib.axis_4">
    <g id="ytick_8">
     <g id="line2d_45">
      <path d="M 48.982813 508.831624 
L 849.242813 508.831624 
" clip-path="url(#p1d35dcf098)" style="fill: none; stroke: #b0b0b0; stroke-opacity: 0.3; stroke-width: 0.8; stroke-linecap: square"/>
     </g>
     <g id="line2d_46">
      <g>
       <use xlink:href="#m114ea1cea1" x="48.982813" y="508.831624" style="stroke: #000000; stroke-width: 0.8"/>
      </g>
     </g>
     <g id="text_27">
      <!-- 50 -->
      <g transform="translate(20.878125 512.630842) scale(0.1 -0.1)">
       <defs>
        <path id="DejaVuSans-2212" d="M 678 2272 
L 4684 2272 
L 4684 1741 
L 678 1741 
L 678 2272 
z
" transform="scale(0.015625)"/>
       </defs>
       <use xlink:href="#DejaVuSans-2212"/>
       <use xlink:href="#DejaVuSans-35" x="83.789062"/>
       <use xlink:href="#DejaVuSans-30" x="147.412109"/>
      </g>
     </g>
    </g>
    <g id="ytick_9">
     <g id="line2d_47">
      <path d="M 48.982813 472.659368 
L 849.242813 472.659368 
" clip-path="url(#p1d35dcf098)" style="fill: none; stroke: #b0b0b0; stroke-opacity: 0.3; stroke-width: 0.8; stroke-linecap: square"/>
     </g>
     <g id="line2d_48">
      <g>
       <use xlink:href="#m114ea1cea1" x="48.982813" y="472.659368" style="stroke: #000000; stroke-width: 0.8"/>
      </g>
     </g>
     <g id="text_28">
      <!-- 40 -->
      <g transform="translate(20.878125 476.458587) scale(0.1 -0.1)">
       <use xlink:href="#DejaVuSans-2212"/>
       <use xlink:href="#DejaVuSans-34" x="83.789062"/>
       <use xlink:href="#DejaVuSans-30" x="147.412109"/>
      </g>
     </g>
    </g>
    <g id="ytick_10">
     <g id="line2d_49">
      <path d="M 48.982813 436.487113 
L 849.242813 436.487113 
" clip-path="url(#p1d35dcf098)" style="fill: none; stroke: #b0b0b0; stroke-opacity: 0.3; stroke-width: 0.8; stroke-linecap: square"/>
     </g>
     <g id="line2d_50">
      <g>
       <use xlink:href="#m114ea1cea1" x="48.982813" y="436.487113" style="stroke: #000000; stroke-width: 0.8"/>
      </g>
     </g>
     <g id="text_29">
      <!-- 30 -->
      <g transform="translate(20.878125 440.286331) scale(0.1 -0.1)">
       <use xlink:href="#DejaVuSans-2212"/>
       <use xlink:href="#DejaVuSans-33" x="83.789062"/>
       <use xlink:href="#DejaVuSans-30" x="147.412109"/>
      </g>
     </g>
    </g>
    <g id="ytick_11">
     <g id="line2d_51">
      <path d="M 48.982813 400.314857 
L 849.242813 400.314857 
" clip-path="url(#p1d35dcf098)" style="fill: none; stroke: #b0b0b0; stroke-opacity: 0.3; stroke-width: 0.8; stroke-linecap: square"/>
     </g>
     <g id="line2d_52">
      <g>
       <use xlink:href="#m114ea1cea1" x="48.982813" y="400.314857" style="stroke: #000000; stroke-width: 0.8"/>
      </g>
     </g>
     <g id="text_30">
      <!-- 20 -->
      <g transform="translate(20.878125 404.114076) scale(0.1 -0.1)">
       <use xlink:href="#DejaVuSans-2212"/>
       <use xlink:href="#DejaVuSans-32" x="83.789062"/>
       <use xlink:href="#DejaVuSans-30" x="147.412109"/>
      </g>
     </g>
    </g>
    <g id="ytick_12">
     <g id="line2d_53">
      <path d="M 48.982813 364.142602 
L 849.242813 364.142602 
" clip-path="url(#p1d35dcf098)" style="fill: none; stroke: #b0b0b0; stroke-opacity: 0.3; stroke-width: 0.8; stroke-linecap: square"/>
     </g>
     <g id="line2d_54">
      <g>
       <use xlink:href="#m114ea1cea1" x="48.982813" y="364.142602" style="stroke: #000000; stroke-width: 0.8"/>
      </g>
     </g>
     <g id="text_31">
      <!-- 10 -->
      <g transform="translate(20.878125 367.94182) scale(0.1 -0.1)">
       <use xlink:href="#DejaVuSans-2212"/>
       <use xlink:href="#DejaVuSans-31" x="83.789062"/>
       <use xlink:href="#DejaVuSans-30" x="147.412109"/>
      </g>
     </g>
    </g>
    <g id="ytick_13">
     <g id="line2d_55">
      <path d="M 48.982813 327.970346 
L 849.242813 327.970346 
" clip-path="url(#p1d35dcf098)" style="fill: none; stroke: #b0b0b0; stroke-opacity: 0.3; stroke-width: 0.8; stroke-linecap: square"/>
     </g>
     <g id="line2d_56">
      <g>
       <use xlink:href="#m114ea1cea1" x="48.982813" y="327.970346" style="stroke: #000000; stroke-width: 0.8"/>
      </g>
     </g>
     <g id="text_32">
      <!-- 0 -->
      <g transform="translate(35.620312 331.769565) scale(0.1 -0.1)">
       <use xlink:href="#DejaVuSans-30"/>
      </g>
     </g>
    </g>
    <g id="text_33">
     <!-- Value -->
     <g transform="translate(14.798438 436.94175) rotate(-90) scale(0.1 -0.1)">
      <use xlink:href="#DejaVuSans-56"/>
      <use xlink:href="#DejaVuSans-61" x="60.658203"/>
      <use xlink:href="#DejaVuSans-6c" x="121.9375"/>
      <use xlink:href="#DejaVuSans-75" x="149.720703"/>
      <use xlink:href="#DejaVuSans-65" x="213.099609"/>
     </g>
    </g>
   </g>
   <g id="line2d_57">
    <path d="M 85.358267 515.566129 
L 86.814742 517.435567 
L 87.542979 517.773663 
L 88.271216 517.832792 
L 88.999454 517.608926 
L 89.727691 517.870809 
L 90.455928 517.38772 
L 91.912403 517.53515 
L 92.64064 516.421177 
L 93.368878 515.866533 
L 94.097115 514.457453 
L 94.825352 514.429221 
L 97.010064 512.250903 
L 98.466539 510.504495 
L 99.194776 510.00384 
L 101.379488 507.768203 
L 102.107726 507.228795 
L 102.835963 506.915354 
L 103.5642 507.265426 
L 104.292438 507.277024 
L 106.47715 507.637504 
L 107.205387 508.432645 
L 107.933624 509.482688 
L 108.661862 509.476973 
L 109.390099 509.838548 
L 110.118336 511.297634 
L 110.846574 511.902995 
L 111.574811 512.276712 
L 112.303048 513.138373 
L 113.031286 514.350086 
L 113.759523 514.760369 
L 114.48776 515.645824 
L 115.215998 515.975401 
L 115.944235 516.095325 
L 116.672472 516.94138 
L 117.400709 517.973172 
L 118.128947 518.109661 
L 118.857184 517.338722 
L 119.585421 517.858902 
L 120.313659 517.645254 
L 121.041896 517.751027 
L 121.770133 517.014446 
L 122.498371 516.599375 
L 123.226608 516.425109 
L 124.683083 513.718402 
L 126.139557 513.127136 
L 126.867795 512.202893 
L 127.596032 511.710707 
L 128.324269 510.326111 
L 129.052507 509.351859 
L 129.780744 508.848295 
L 130.508981 509.10493 
L 131.237219 508.809731 
L 131.965456 507.576834 
L 132.693693 506.870363 
L 133.421931 506.966322 
L 134.150168 507.601959 
L 134.878405 507.380454 
L 135.606643 508.076719 
L 136.33488 508.131425 
L 137.063117 509.016069 
L 137.791355 509.089264 
L 138.519592 509.478175 
L 139.247829 510.244695 
L 139.976067 511.295689 
L 141.432541 512.886603 
L 142.160779 513.325257 
L 142.889016 514.023832 
L 143.617253 514.533463 
L 144.345491 515.464087 
L 145.073728 516.061721 
L 145.801965 517.065383 
L 147.25844 516.925919 
L 147.986677 517.784927 
L 148.714915 517.328824 
L 149.443152 517.658936 
L 150.171389 517.639948 
L 151.627864 516.927162 
L 152.356101 515.767793 
L 153.084339 515.44178 
L 153.812576 514.561795 
L 154.540813 514.992707 
L 155.269051 513.783504 
L 155.997288 513.659489 
L 156.725525 512.429804 
L 157.453763 511.551984 
L 158.182 510.180512 
L 159.638475 508.79865 
L 160.366712 509.287146 
L 161.094949 508.132151 
L 162.551424 508.100442 
L 163.279661 507.228733 
L 164.007898 507.089771 
L 165.464373 507.55002 
L 166.19261 508.365549 
L 166.920848 508.119553 
L 167.649085 509.235154 
L 168.377322 509.279392 
L 169.10556 510.916537 
L 170.562034 511.44594 
L 171.290272 513.035343 
L 172.018509 513.080024 
L 172.746746 514.394165 
L 174.203221 515.492903 
L 174.931458 515.681078 
L 175.659696 516.544533 
L 176.387933 516.789402 
L 177.11617 518.134992 
L 177.844408 518.475955 
L 178.572645 518.00745 
L 179.300882 516.92974 
L 180.02912 518.217813 
L 181.485594 516.64402 
L 182.213832 516.626865 
L 182.942069 516.082806 
L 183.670306 514.597263 
L 184.398544 514.765552 
L 185.126781 513.451419 
L 185.855018 512.98245 
L 186.583256 512.679852 
L 187.311493 511.175086 
L 188.03973 510.321066 
L 188.767968 510.053788 
L 189.496205 509.566146 
L 190.224442 508.072085 
L 190.95268 508.597189 
L 191.680917 507.597471 
L 192.409154 507.632347 
L 193.137392 508.148249 
L 193.865629 507.576212 
L 194.593866 507.74796 
L 195.322104 507.646429 
L 196.050341 507.868624 
L 196.778578 508.650901 
L 197.506816 508.904865 
L 198.235053 510.133043 
L 198.96329 510.576641 
L 199.691528 510.850543 
L 201.148002 512.671155 
L 201.87624 513.088842 
L 202.604477 513.934448 
L 203.332714 515.770188 
L 204.060952 515.787542 
L 204.789189 516.440538 
L 206.245664 517.237757 
L 207.702138 517.480107 
L 208.430376 518.052112 
L 209.158613 517.588006 
L 209.88685 516.973027 
L 210.615088 516.57117 
L 211.343325 516.933975 
L 212.071562 516.644495 
L 213.528037 515.38012 
L 214.256274 514.755583 
L 214.984511 513.377035 
L 215.712749 512.926892 
L 217.169223 511.09522 
L 217.897461 510.414881 
L 218.625698 510.164079 
L 219.353935 508.821637 
L 220.082173 508.575509 
L 221.538647 507.832327 
L 222.266885 506.762709 
L 222.995122 507.706635 
L 223.723359 507.300254 
L 225.179834 507.238356 
L 225.908071 507.060101 
L 226.636309 508.029732 
L 227.364546 508.56855 
L 228.092783 509.986323 
L 228.821021 510.399832 
L 229.549258 510.628852 
L 230.277495 512.031557 
L 231.005733 512.099116 
L 231.73397 513.37792 
L 232.462207 513.469 
L 233.918682 515.368375 
L 234.646919 515.797692 
L 235.375157 516.922193 
L 236.103394 517.601454 
L 237.559869 517.688779 
L 238.288106 517.828326 
L 239.016343 517.352599 
L 239.744581 518.093371 
L 240.472818 518.110607 
L 241.201055 516.261818 
L 241.929293 516.240299 
L 242.65753 515.930148 
L 243.385767 514.919478 
L 244.114005 514.813239 
L 244.842242 513.845024 
L 245.570479 512.432967 
L 246.298717 511.964085 
L 247.755191 510.295856 
L 248.483429 510.104493 
L 249.211666 508.818001 
L 249.939903 509.226749 
L 250.668141 508.085868 
L 251.396378 507.736619 
L 252.124615 507.890198 
L 252.852853 507.796216 
L 253.58109 507.180471 
L 254.309327 507.287197 
L 255.037565 507.065723 
L 255.765802 507.549808 
L 257.222277 509.010594 
L 257.950514 509.44653 
L 260.135226 512.024607 
L 260.863463 512.261517 
L 261.5917 513.614049 
L 262.319938 514.44236 
L 263.048175 515.975183 
L 263.776412 515.81318 
L 264.50465 516.483074 
L 265.232887 516.491182 
L 266.689362 516.835235 
L 267.417599 517.901681 
L 268.145836 517.650698 
L 268.874074 517.760007 
L 269.602311 518.134694 
L 270.330548 517.273739 
L 271.058786 517.214467 
L 271.787023 516.705393 
L 272.51526 515.964059 
L 273.243498 514.88412 
L 274.699972 513.525539 
L 275.42821 513.002103 
L 276.156447 511.826998 
L 276.884684 510.9091 
L 277.612922 510.852299 
L 278.341159 509.516088 
L 279.069396 509.516723 
L 279.797634 508.888415 
L 280.525871 507.727273 
L 281.254108 507.613278 
L 281.982346 507.805873 
L 282.710583 507.284593 
L 283.43882 507.472229 
L 284.895295 507.460146 
L 285.623532 507.570474 
L 286.35177 508.818524 
L 287.080007 509.275047 
L 287.808244 508.833187 
L 288.536482 510.844805 
L 289.992956 512.206952 
L 290.721194 513.038438 
L 291.449431 512.690005 
L 292.177668 514.379781 
L 292.905906 514.611773 
L 293.634143 515.464108 
L 294.36238 516.537321 
L 295.818855 516.804779 
L 296.547092 517.10948 
L 297.27533 517.87526 
L 298.003567 517.800001 
L 298.731804 518.412468 
L 299.460042 517.74374 
L 300.188279 517.589901 
L 301.644754 516.315536 
L 302.372991 515.906314 
L 303.101228 515.660875 
L 303.829466 514.274955 
L 304.557703 513.17664 
L 305.28594 512.875526 
L 306.014178 511.802742 
L 306.742415 511.757033 
L 307.470652 511.439087 
L 308.927127 508.646835 
L 309.655364 508.259397 
L 310.383601 508.598652 
L 311.111839 508.122625 
L 311.840076 507.439649 
L 312.568313 507.136795 
L 313.296551 507.632338 
L 314.024788 507.56868 
L 314.753025 507.729343 
L 315.481263 508.147229 
L 316.2095 508.217457 
L 316.937737 509.508781 
L 317.665975 509.602279 
L 318.394212 509.970466 
L 319.122449 511.294764 
L 319.850687 511.037435 
L 320.578924 513.32032 
L 321.307161 513.676521 
L 322.035399 513.701075 
L 322.763636 515.591495 
L 323.491873 515.005094 
L 324.220111 516.526895 
L 324.948348 517.063187 
L 325.676585 517.000522 
L 326.404823 517.217988 
L 327.13306 517.599297 
L 327.861297 518.425346 
L 328.589535 517.792134 
L 329.317772 518.027885 
L 330.046009 516.786027 
L 330.774247 517.044427 
L 331.502484 516.341606 
L 332.958959 515.259312 
L 334.415433 513.660605 
L 335.143671 513.090031 
L 335.871908 512.017955 
L 336.600145 511.737646 
L 337.328383 510.501194 
L 338.05662 509.600648 
L 338.784857 509.009878 
L 339.513095 508.725301 
L 340.241332 508.676766 
L 340.969569 507.846531 
L 341.697807 507.248749 
L 342.426044 506.841854 
L 343.154281 507.943884 
L 343.882519 507.640856 
L 344.610756 508.134333 
L 345.338993 508.124188 
L 346.067231 508.960408 
L 346.795468 508.403456 
L 347.523705 509.250129 
L 348.251943 510.720015 
L 348.98018 511.544825 
L 349.708417 511.801706 
L 350.436655 512.786718 
L 351.164892 513.499406 
L 352.621367 515.286614 
L 353.349604 515.926924 
L 354.077841 515.730807 
L 354.806078 517.069122 
L 355.534316 517.526209 
L 356.262553 517.798802 
L 356.99079 517.901922 
L 357.719028 517.565216 
L 358.447265 518.0517 
L 359.175502 517.355812 
L 359.90374 517.849926 
L 360.631977 516.499227 
L 361.360214 516.183898 
L 362.088452 516.133091 
L 362.816689 515.214189 
L 363.544926 514.562451 
L 364.273164 484.747985 
L 365.001401 512.601711 
L 365.729638 511.897251 
L 367.186113 510.89651 
L 367.91435 509.360622 
L 368.642588 509.490037 
L 369.370825 508.093967 
L 370.099062 508.133794 
L 370.8273 507.800781 
L 371.555537 507.934507 
L 372.283774 507.290517 
L 373.012012 507.981833 
L 373.740249 507.638187 
L 374.468486 507.483457 
L 375.196724 507.739715 
L 375.924961 509.18452 
L 376.653198 509.647845 
L 377.381436 509.839123 
L 378.109673 510.865706 
L 379.566148 512.001064 
L 380.294385 511.66271 
L 381.022622 513.764652 
L 382.479097 514.663205 
L 383.207334 515.751639 
L 383.935572 515.618491 
L 384.663809 516.253592 
L 385.392046 517.083666 
L 386.120284 517.606747 
L 386.848521 517.867889 
L 387.576758 517.652729 
L 388.304996 517.556581 
L 389.033233 517.782185 
L 389.76147 517.796886 
L 391.217945 516.158417 
L 391.946182 516.228187 
L 392.67442 514.960491 
L 393.402657 514.128946 
L 394.130894 513.642232 
L 394.859132 512.873069 
L 395.587369 512.331381 
L 396.315606 512.013076 
L 397.772081 509.174022 
L 398.500318 509.23535 
L 399.228556 508.957701 
L 399.956793 507.725624 
L 400.68503 507.609868 
L 401.413268 507.118568 
L 402.141505 507.360442 
L 402.869742 507.082791 
L 403.597979 506.973591 
L 404.326217 507.262272 
L 405.782691 509.113925 
L 406.510929 509.053449 
L 407.239166 509.523125 
L 407.967403 510.612679 
L 408.695641 510.112515 
L 409.423878 511.722617 
L 410.152115 512.085192 
L 410.880353 513.775348 
L 412.336827 515.082957 
L 413.065065 515.914776 
L 413.793302 515.472691 
L 414.521539 516.595888 
L 415.249777 517.242803 
L 415.978014 517.603755 
L 416.706251 517.180145 
L 417.434489 516.924218 
L 418.162726 517.479619 
L 419.619201 516.626208 
L 420.347438 516.887736 
L 421.075675 515.601601 
L 422.53215 515.371622 
L 423.260387 514.586503 
L 423.988625 513.48007 
L 424.716862 513.336898 
L 425.445099 512.145881 
L 426.173337 511.278373 
L 426.901574 511.063378 
L 427.629811 510.011247 
L 428.358049 508.7636 
L 429.086286 508.649276 
L 429.814523 508.16659 
L 430.542761 507.120886 
L 431.270998 507.677623 
L 431.999235 507.801386 
L 433.45571 507.285314 
L 434.183947 506.476983 
L 434.912185 507.622333 
L 435.640422 509.161118 
L 436.368659 508.96418 
L 437.096897 509.409013 
L 437.825134 510.305186 
L 438.553371 510.871231 
L 439.281609 511.008353 
L 440.009846 512.892421 
L 440.738083 513.309712 
L 441.466321 514.290459 
L 442.922795 515.871705 
L 443.651033 516.243009 
L 444.37927 516.877567 
L 446.563982 517.446829 
L 447.292219 517.659534 
L 448.020457 517.606453 
L 448.748694 517.735653 
L 449.476931 517.21867 
L 450.205168 516.924123 
L 450.933406 517.095822 
L 451.661643 516.515592 
L 452.38988 514.856807 
L 453.118118 514.496603 
L 453.846355 513.521647 
L 454.574592 512.781663 
L 455.30283 511.823738 
L 456.759304 510.566706 
L 457.487542 510.458397 
L 458.215779 508.990947 
L 458.944016 508.557789 
L 459.672254 508.340734 
L 460.400491 508.386954 
L 461.128728 507.962016 
L 461.856966 507.346481 
L 462.585203 507.219178 
L 463.31344 507.307666 
L 464.041678 507.577765 
L 464.769915 508.283479 
L 465.498152 508.762128 
L 466.954627 509.224518 
L 467.682864 510.133207 
L 468.411102 510.609749 
L 469.139339 511.906412 
L 469.867576 512.76511 
L 470.595814 512.639922 
L 471.324051 513.838179 
L 472.052288 514.781539 
L 472.780526 516.036836 
L 473.508763 516.170779 
L 474.237 517.142327 
L 474.965238 516.208773 
L 475.693475 517.676248 
L 476.421712 517.188049 
L 477.14995 517.268315 
L 477.878187 517.759758 
L 478.606424 517.376724 
L 479.334662 517.130524 
L 480.062899 516.302294 
L 480.791136 516.425103 
L 481.519374 516.188097 
L 482.247611 515.818927 
L 482.975848 514.585849 
L 483.704086 514.110502 
L 484.432323 512.692971 
L 485.16056 512.446558 
L 485.888798 511.194142 
L 486.617035 510.957165 
L 487.345272 509.622033 
L 488.07351 509.315728 
L 488.801747 508.63422 
L 489.529984 508.361074 
L 490.258222 507.917768 
L 491.714696 507.468871 
L 492.442934 507.784362 
L 493.171171 507.072624 
L 493.899408 507.210564 
L 494.627646 507.054176 
L 495.355883 507.535687 
L 496.08412 508.950271 
L 497.540595 510.333959 
L 498.268832 511.066914 
L 498.997069 512.194385 
L 499.725307 512.775523 
L 500.453544 512.979675 
L 501.181781 514.208974 
L 501.910019 514.753825 
L 502.638256 516.426445 
L 503.366493 516.128869 
L 504.094731 516.293595 
L 504.822968 517.460588 
L 505.551205 517.152257 
L 506.279443 517.470702 
L 507.00768 517.459983 
L 507.735917 518.289334 
L 508.464155 517.767612 
L 509.920629 517.06988 
L 510.648867 516.474156 
L 512.105341 514.848823 
L 512.833579 514.716352 
L 513.561816 513.464424 
L 514.290053 512.708376 
L 515.018291 511.399324 
L 515.746528 511.235555 
L 517.203003 509.084465 
L 517.93124 509.211809 
L 518.659477 508.678427 
L 519.387715 507.932958 
L 520.115952 507.421462 
L 520.844189 507.955614 
L 522.300664 506.680471 
L 523.028901 507.105845 
L 524.485376 507.333458 
L 525.941851 509.186171 
L 526.670088 509.394858 
L 527.398325 510.950273 
L 528.126563 510.894773 
L 528.8548 511.756431 
L 529.583037 512.830307 
L 531.039512 513.476484 
L 531.767749 514.862584 
L 533.224224 515.659768 
L 534.680699 517.215701 
L 536.137173 517.231804 
L 537.593648 518.248688 
L 538.321885 517.341127 
L 539.050123 517.661354 
L 539.77836 516.746696 
L 540.506597 516.033742 
L 541.234835 515.02967 
L 541.963072 515.312174 
L 542.691309 514.924795 
L 543.419547 514.298064 
L 544.147784 512.895033 
L 544.876021 511.936418 
L 545.604258 511.632685 
L 546.332496 510.420123 
L 547.060733 509.489931 
L 547.78897 509.610942 
L 549.245445 508.702712 
L 549.973682 508.533033 
L 550.70192 507.281472 
L 551.430157 506.87937 
L 552.158394 507.381821 
L 552.886632 506.795874 
L 553.614869 507.911533 
L 554.343106 508.319605 
L 555.071344 508.319376 
L 555.799581 509.708977 
L 556.527818 508.619036 
L 557.256056 510.28137 
L 557.984293 511.10588 
L 558.71253 511.632686 
L 559.440768 512.598986 
L 560.169005 513.35161 
L 560.897242 513.794675 
L 561.62548 515.073001 
L 562.353717 515.647617 
L 563.081954 516.580642 
L 563.810192 515.991463 
L 564.538429 517.906836 
L 565.266666 517.10817 
L 565.994904 517.952337 
L 566.723141 517.739434 
L 568.179616 517.696449 
L 568.907853 517.447034 
L 569.63609 516.904937 
L 570.364328 516.043622 
L 571.092565 515.673465 
L 571.820802 515.883268 
L 572.54904 514.20939 
L 573.277277 513.937417 
L 574.005514 512.920947 
L 574.733752 512.501584 
L 576.190226 511.298056 
L 576.918464 509.623629 
L 577.646701 508.998014 
L 578.374938 508.867095 
L 579.103176 507.720348 
L 580.55965 507.660217 
L 581.287888 507.606465 
L 582.016125 506.717708 
L 582.744362 507.587043 
L 583.4726 507.315006 
L 584.200837 508.02086 
L 585.657312 509.091309 
L 586.385549 509.439516 
L 587.113786 510.245663 
L 587.842024 511.415673 
L 588.570261 511.461697 
L 590.754973 514.386936 
L 591.48321 514.444778 
L 592.211447 515.552224 
L 592.939685 516.040269 
L 593.667922 517.128731 
L 594.396159 517.025208 
L 595.124397 517.450312 
L 595.852634 517.16855 
L 596.580871 517.65279 
L 597.309109 517.615685 
L 598.037346 517.824476 
L 598.765583 517.051946 
L 599.493821 516.718343 
L 600.222058 516.577042 
L 600.950295 515.308603 
L 601.678533 515.190814 
L 602.40677 514.74116 
L 605.319719 511.471128 
L 606.047957 511.134373 
L 607.504431 508.796331 
L 608.232669 507.834615 
L 608.960906 507.935155 
L 609.689143 507.492115 
L 610.417381 507.464924 
L 611.145618 506.963561 
L 611.873855 507.397637 
L 613.33033 507.603353 
L 614.058567 508.235316 
L 614.786805 507.986958 
L 615.515042 508.651942 
L 616.243279 510.44125 
L 616.971517 509.82179 
L 617.699754 510.892507 
L 618.427991 511.342151 
L 619.156229 512.728399 
L 619.884466 513.49835 
L 620.612703 513.987101 
L 621.340941 515.218571 
L 622.069178 515.711335 
L 622.797415 515.957602 
L 623.525653 517.48946 
L 624.25389 516.748688 
L 624.982127 517.570874 
L 625.710365 517.287161 
L 626.438602 517.329914 
L 627.166839 517.807874 
L 627.895077 517.194631 
L 630.079789 517.057799 
L 630.808026 515.60741 
L 631.536263 514.736314 
L 632.264501 515.148683 
L 632.992738 513.231788 
L 633.720975 513.130987 
L 634.449213 512.202903 
L 635.905687 510.708066 
L 636.633925 510.380732 
L 637.362162 509.558568 
L 638.090399 509.068465 
L 638.818637 507.927878 
L 639.546874 507.239117 
L 640.275111 507.849178 
L 641.731586 507.434629 
L 642.459823 507.565147 
L 643.18806 507.558443 
L 643.916298 508.269203 
L 644.644535 508.289014 
L 645.372772 509.491975 
L 646.10101 508.729719 
L 646.829247 510.647039 
L 647.557484 511.800247 
L 648.285722 511.312815 
L 649.013959 512.54976 
L 649.742196 513.47081 
L 651.198671 514.604266 
L 651.926908 515.988953 
L 652.655146 516.197404 
L 653.383383 516.120103 
L 654.11162 517.041213 
L 654.839858 517.155597 
L 655.568095 517.401771 
L 656.296332 518.18855 
L 657.02457 517.409201 
L 657.752807 517.252628 
L 658.481044 517.562205 
L 659.209282 517.247559 
L 659.937519 517.284584 
L 661.393994 514.897153 
L 662.122231 514.461412 
L 662.850468 513.472031 
L 663.578706 513.7414 
L 665.03518 511.140725 
L 665.763418 511.5621 
L 666.491655 509.630661 
L 667.219892 509.466715 
L 667.94813 507.808773 
L 668.676367 507.419485 
L 669.404604 507.95456 
L 670.132842 507.395834 
L 670.861079 507.975212 
L 671.589316 506.818729 
L 673.045791 507.652672 
L 673.774028 507.570593 
L 674.502266 508.744213 
L 675.230503 508.758003 
L 675.95874 509.777274 
L 676.686978 510.213226 
L 677.415215 511.206603 
L 678.143452 511.138335 
L 678.87169 512.510888 
L 679.599927 512.981336 
L 680.328164 514.354886 
L 681.784639 515.230352 
L 682.512876 516.289882 
L 683.969351 516.393097 
L 686.154063 518.001315 
L 686.8823 518.221303 
L 687.610537 517.756454 
L 688.338775 518.05294 
L 689.067012 516.401984 
L 689.795249 516.342261 
L 691.251724 515.770047 
L 692.708199 513.269107 
L 693.436436 512.838755 
L 694.164673 512.276931 
L 694.892911 511.176572 
L 695.621148 510.90606 
L 696.349385 509.220966 
L 697.077623 509.664353 
L 697.80586 508.273879 
L 698.534097 507.970469 
L 699.262335 507.38961 
L 699.990572 507.320212 
L 700.718809 507.855969 
L 701.447047 507.067583 
L 702.175284 507.881091 
L 702.903521 507.665724 
L 703.631759 507.731475 
L 704.359996 508.263119 
L 705.088233 508.563734 
L 705.816471 510.146045 
L 706.544708 510.288696 
L 707.272945 510.578692 
L 708.001183 511.259634 
L 708.72942 512.484607 
L 709.457657 512.949871 
L 710.185895 514.471165 
L 710.914132 515.014409 
L 711.642369 515.131926 
L 712.370607 516.488258 
L 713.098844 517.038102 
L 713.827081 517.020711 
L 714.555319 517.491707 
L 715.283556 517.769551 
L 716.011793 517.561635 
L 716.740031 517.616581 
L 717.468268 518.094583 
L 718.196505 517.197465 
L 718.924743 516.632334 
L 719.65298 516.666514 
L 720.381217 515.435091 
L 721.109455 515.266365 
L 721.837692 514.346237 
L 722.565929 514.07074 
L 723.294167 512.557703 
L 724.022404 512.557926 
L 724.750641 511.868935 
L 725.478879 510.500446 
L 726.207116 509.559304 
L 726.935353 508.911473 
L 727.663591 507.950207 
L 728.391828 508.0188 
L 729.120065 507.37131 
L 729.848303 507.143752 
L 730.57654 506.748776 
L 731.304777 507.380126 
L 732.033015 507.284364 
L 734.217727 508.522632 
L 734.945964 509.207618 
L 735.674201 509.330673 
L 736.402438 510.305882 
L 737.130676 510.419485 
L 737.858913 511.819693 
L 739.315388 513.744133 
L 740.771862 514.711641 
L 741.5001 514.63364 
L 742.228337 516.266441 
L 742.956574 516.361144 
L 743.684812 517.379152 
L 744.413049 517.816027 
L 745.141286 517.875311 
L 745.869524 517.780318 
L 746.597761 518.042663 
L 747.325998 517.542318 
L 748.782473 516.805942 
L 749.51071 516.757218 
L 750.238948 515.158413 
L 750.967185 514.959952 
L 751.695422 514.638428 
L 752.42366 514.165859 
L 753.151897 513.06431 
L 753.880134 511.735075 
L 754.608372 511.77944 
L 755.336609 510.912632 
L 756.064846 509.624361 
L 756.793084 509.025671 
L 757.521321 507.936221 
L 758.249558 507.88428 
L 758.977796 507.655597 
L 759.706033 507.279707 
L 760.43427 507.3282 
L 761.162508 506.899841 
L 761.890745 507.018795 
L 763.34722 508.640303 
L 764.075457 508.557211 
L 764.803694 508.351535 
L 765.531932 509.370584 
L 766.260169 509.634899 
L 766.988406 511.074158 
L 767.716644 510.847308 
L 768.444881 512.55135 
L 769.173118 513.076768 
L 770.629593 514.646261 
L 771.35783 515.337792 
L 772.086068 516.251565 
L 772.814305 516.228035 
L 773.542542 516.739279 
L 774.27078 517.060318 
L 774.999017 517.690031 
L 775.727254 517.875627 
L 776.455492 518.305384 
L 777.183729 517.256361 
L 777.911966 516.460826 
L 778.640204 516.942564 
L 780.096678 516.184707 
L 780.824916 515.275769 
L 782.28139 514.101727 
L 783.009627 512.88623 
L 783.737865 512.502872 
L 784.466102 511.684651 
L 785.194339 510.436292 
L 785.922577 510.322654 
L 786.650814 509.312488 
L 787.379051 507.96498 
L 788.107289 508.609023 
L 788.835526 508.354403 
L 789.563763 507.670801 
L 790.292001 507.310537 
L 791.020238 506.521073 
L 791.748475 507.15299 
L 792.476713 507.403154 
L 793.20495 508.691382 
L 793.933187 508.004618 
L 794.661425 508.948867 
L 795.389662 509.590892 
L 796.117899 510.532537 
L 796.846137 510.820029 
L 797.574374 511.487024 
L 798.302611 511.564026 
L 799.759086 514.398741 
L 800.487323 514.532655 
L 801.215561 515.63654 
L 801.943798 516.000163 
L 802.672035 517.021948 
L 803.400273 516.822385 
L 804.12851 517.735236 
L 804.856747 516.993841 
L 805.584985 517.416767 
L 806.313222 517.618939 
L 807.041459 518.205781 
L 807.769697 516.816632 
L 809.954409 516.16078 
L 810.682646 515.528109 
L 812.139121 513.697742 
L 812.867358 513.440929 
L 812.867358 513.440929 
" clip-path="url(#p1d35dcf098)" style="fill: none; stroke: #4682b4; stroke-width: 0.8; stroke-linecap: square"/>
   </g>
   <g id="line2d_58">
    <path d="M 48.982813 512.700674 
L 849.242813 512.700674 
" clip-path="url(#p1d35dcf098)" style="fill: none; stroke: #ff0000; stroke-width: 2; stroke-linecap: square"/>
   </g>
   <g id="line2d_59">
    <path d="M 48.982813 327.945045 
L 849.242813 327.945045 
" clip-path="url(#p1d35dcf098)" style="fill: none; stroke-dasharray: 7.4,3.2; stroke-dashoffset: 0; stroke: #008000; stroke-width: 2"/>
   </g>
   <g id="patch_9">
    <path d="M 48.982813 528.0025 
L 48.982813 318.4185 
" style="fill: none; stroke: #000000; stroke-width: 0.8; stroke-linejoin: miter; stroke-linecap: square"/>
   </g>
   <g id="patch_10">
    <path d="M 849.242813 528.0025 
L 849.242813 318.4185 
" style="fill: none; stroke: #000000; stroke-width: 0.8; stroke-linejoin: miter; stroke-linecap: square"/>
   </g>
   <g id="patch_11">
    <path d="M 48.982812 528.0025 
L 849.242813 528.0025 
" style="fill: none; stroke: #000000; stroke-width: 0.8; stroke-linejoin: miter; stroke-linecap: square"/>
   </g>
   <g id="patch_12">
    <path d="M 48.982812 318.4185 
L 849.242813 318.4185 
" style="fill: none; stroke: #000000; stroke-width: 0.8; stroke-linejoin: miter; stroke-linecap: square"/>
   </g>
   <g id="text_34">
    <!-- Series 96 -->
    <g transform="translate(421.119063 298.918125) scale(0.12 -0.12)">
     <defs>
      <path id="DejaVuSans-39" d="M 703 97 
L 703 672 
Q 941 559 1184 500 
Q 1428 441 1663 441 
Q 2288 441 2617 861 
Q 2947 1281 2994 2138 
Q 2813 1869 2534 1725 
Q 2256 1581 1919 1581 
Q 1219 1581 811 2004 
Q 403 2428 403 3163 
Q 403 3881 828 4315 
Q 1253 4750 1959 4750 
Q 2769 4750 3195 4129 
Q 3622 3509 3622 2328 
Q 3622 1225 3098 567 
Q 2575 -91 1691 -91 
Q 1453 -91 1209 -44 
Q 966 3 703 97 
z
M 1959 2075 
Q 2384 2075 2632 2365 
Q 2881 2656 2881 3163 
Q 2881 3666 2632 3958 
Q 2384 4250 1959 4250 
Q 1534 4250 1286 3958 
Q 1038 3666 1038 3163 
Q 1038 2656 1286 2365 
Q 1534 2075 1959 2075 
z
" transform="scale(0.015625)"/>
     </defs>
     <use xlink:href="#DejaVuSans-53"/>
     <use xlink:href="#DejaVuSans-65" x="63.476562"/>
     <use xlink:href="#DejaVuSans-72" x="125"/>
     <use xlink:href="#DejaVuSans-69" x="166.113281"/>
     <use xlink:href="#DejaVuSans-65" x="193.896484"/>
     <use xlink:href="#DejaVuSans-73" x="255.419922"/>
     <use xlink:href="#DejaVuSans-20" x="307.519531"/>
     <use xlink:href="#DejaVuSans-39" x="339.306641"/>
     <use xlink:href="#DejaVuSans-36" x="402.929688"/>
    </g>
    <!-- DATASET-LEVEL ANOMALY | z=-3.64 -->
    <g transform="translate(342.145938 312.4185) scale(0.12 -0.12)">
     <use xlink:href="#DejaVuSans-44"/>
     <use xlink:href="#DejaVuSans-41" x="75.251953"/>
     <use xlink:href="#DejaVuSans-54" x="135.910156"/>
     <use xlink:href="#DejaVuSans-41" x="189.244141"/>
     <use xlink:href="#DejaVuSans-53" x="257.652344"/>
     <use xlink:href="#DejaVuSans-45" x="321.128906"/>
     <use xlink:href="#DejaVuSans-54" x="384.3125"/>
     <use xlink:href="#DejaVuSans-2d" x="436.271484"/>
     <use xlink:href="#DejaVuSans-4c" x="472.355469"/>
     <use xlink:href="#DejaVuSans-45" x="528.068359"/>
     <use xlink:href="#DejaVuSans-56" x="591.251953"/>
     <use xlink:href="#DejaVuSans-45" x="659.660156"/>
     <use xlink:href="#DejaVuSans-4c" x="722.84375"/>
     <use xlink:href="#DejaVuSans-20" x="778.556641"/>
     <use xlink:href="#DejaVuSans-41" x="810.34375"/>
     <use xlink:href="#DejaVuSans-4e" x="878.751953"/>
     <use xlink:href="#DejaVuSans-4f" x="953.556641"/>
     <use xlink:href="#DejaVuSans-4d" x="1032.267578"/>
     <use xlink:href="#DejaVuSans-41" x="1118.546875"/>
     <use xlink:href="#DejaVuSans-4c" x="1186.955078"/>
     <use xlink:href="#DejaVuSans-59" x="1229.417969"/>
     <use xlink:href="#DejaVuSans-20" x="1290.501953"/>
     <use xlink:href="#DejaVuSans-7c" x="1322.289062"/>
     <use xlink:href="#DejaVuSans-20" x="1355.980469"/>
     <use xlink:href="#DejaVuSans-7a" x="1387.767578"/>
     <use xlink:href="#DejaVuSans-3d" x="1440.257812"/>
     <use xlink:href="#DejaVuSans-2d" x="1524.046875"/>
     <use xlink:href="#DejaVuSans-33" x="1560.130859"/>
     <use xlink:href="#DejaVuSans-2e" x="1623.753906"/>
     <use xlink:href="#DejaVuSans-36" x="1655.541016"/>
     <use xlink:href="#DejaVuSans-34" x="1719.164062"/>
    </g>
   </g>
   <g id="legend_2">
    <g id="patch_13">
     <path d="M 687.45375 370.452875 
L 842.242813 370.452875 
Q 844.242813 370.452875 844.242813 368.452875 
L 844.242813 325.4185 
Q 844.242813 323.4185 842.242813 323.4185 
L 687.45375 323.4185 
Q 685.45375 323.4185 685.45375 325.4185 
L 685.45375 368.452875 
Q 685.45375 370.452875 687.45375 370.452875 
z
" style="fill: #ffffff; opacity: 0.8; stroke: #cccccc; stroke-linejoin: miter"/>
    </g>
    <g id="line2d_60">
     <path d="M 689.45375 331.516938 
L 699.45375 331.516938 
L 709.45375 331.516938 
" style="fill: none; stroke: #4682b4; stroke-width: 0.8; stroke-linecap: square"/>
    </g>
    <g id="text_35">
     <!-- Series -->
     <g transform="translate(717.45375 335.016938) scale(0.1 -0.1)">
      <use xlink:href="#DejaVuSans-53"/>
      <use xlink:href="#DejaVuSans-65" x="63.476562"/>
      <use xlink:href="#DejaVuSans-72" x="125"/>
      <use xlink:href="#DejaVuSans-69" x="166.113281"/>
      <use xlink:href="#DejaVuSans-65" x="193.896484"/>
      <use xlink:href="#DejaVuSans-73" x="255.419922"/>
     </g>
    </g>
    <g id="line2d_61">
     <path d="M 689.45375 346.195063 
L 699.45375 346.195063 
L 709.45375 346.195063 
" style="fill: none; stroke: #ff0000; stroke-width: 2; stroke-linecap: square"/>
    </g>
    <g id="text_36">
     <!-- Series baseline = -51.07 -->
     <g transform="translate(717.45375 349.695063) scale(0.1 -0.1)">
      <defs>
       <path id="DejaVuSans-37" d="M 525 4666 
L 3525 4666 
L 3525 4397 
L 1831 0 
L 1172 0 
L 2766 4134 
L 525 4134 
L 525 4666 
z
" transform="scale(0.015625)"/>
      </defs>
      <use xlink:href="#DejaVuSans-53"/>
      <use xlink:href="#DejaVuSans-65" x="63.476562"/>
      <use xlink:href="#DejaVuSans-72" x="125"/>
      <use xlink:href="#DejaVuSans-69" x="166.113281"/>
      <use xlink:href="#DejaVuSans-65" x="193.896484"/>
      <use xlink:href="#DejaVuSans-73" x="255.419922"/>
      <use xlink:href="#DejaVuSans-20" x="307.519531"/>
      <use xlink:href="#DejaVuSans-62" x="339.306641"/>
      <use xlink:href="#DejaVuSans-61" x="402.783203"/>
      <use xlink:href="#DejaVuSans-73" x="464.0625"/>
      <use xlink:href="#DejaVuSans-65" x="516.162109"/>
      <use xlink:href="#DejaVuSans-6c" x="577.685547"/>
      <use xlink:href="#DejaVuSans-69" x="605.46875"/>
      <use xlink:href="#DejaVuSans-6e" x="633.251953"/>
      <use xlink:href="#DejaVuSans-65" x="696.630859"/>
      <use xlink:href="#DejaVuSans-20" x="758.154297"/>
      <use xlink:href="#DejaVuSans-3d" x="789.941406"/>
      <use xlink:href="#DejaVuSans-20" x="873.730469"/>
      <use xlink:href="#DejaVuSans-2d" x="905.517578"/>
      <use xlink:href="#DejaVuSans-35" x="941.601562"/>
      <use xlink:href="#DejaVuSans-31" x="1005.224609"/>
      <use xlink:href="#DejaVuSans-2e" x="1068.847656"/>
      <use xlink:href="#DejaVuSans-30" x="1100.634766"/>
      <use xlink:href="#DejaVuSans-37" x="1164.257812"/>
     </g>
    </g>
    <g id="line2d_62">
     <path d="M 689.45375 360.873188 
L 699.45375 360.873188 
L 709.45375 360.873188 
" style="fill: none; stroke-dasharray: 7.4,3.2; stroke-dashoffset: 0; stroke: #008000; stroke-width: 2"/>
    </g>
    <g id="text_37">
     <!-- Dataset median = 0.01 -->
     <g transform="translate(717.45375 364.373188) scale(0.1 -0.1)">
      <use xlink:href="#DejaVuSans-44"/>
      <use xlink:href="#DejaVuSans-61" x="77.001953"/>
      <use xlink:href="#DejaVuSans-74" x="138.28125"/>
      <use xlink:href="#DejaVuSans-61" x="177.490234"/>
      <use xlink:href="#DejaVuSans-73" x="238.769531"/>
      <use xlink:href="#DejaVuSans-65" x="290.869141"/>
      <use xlink:href="#DejaVuSans-74" x="352.392578"/>
      <use xlink:href="#DejaVuSans-20" x="391.601562"/>
      <use xlink:href="#DejaVuSans-6d" x="423.388672"/>
      <use xlink:href="#DejaVuSans-65" x="520.800781"/>
      <use xlink:href="#DejaVuSans-64" x="582.324219"/>
      <use xlink:href="#DejaVuSans-69" x="645.800781"/>
      <use xlink:href="#DejaVuSans-61" x="673.583984"/>
      <use xlink:href="#DejaVuSans-6e" x="734.863281"/>
      <use xlink:href="#DejaVuSans-20" x="798.242188"/>
      <use xlink:href="#DejaVuSans-3d" x="830.029297"/>
      <use xlink:href="#DejaVuSans-20" x="913.818359"/>
      <use xlink:href="#DejaVuSans-30" x="945.605469"/>
      <use xlink:href="#DejaVuSans-2e" x="1009.228516"/>
      <use xlink:href="#DejaVuSans-30" x="1041.015625"/>
      <use xlink:href="#DejaVuSans-31" x="1104.638672"/>
     </g>
    </g>
   </g>
  </g>
 </g>
 <defs>
  <clipPath id="p0d35ea28e5">
   <rect x="48.982813" y="35.8185" width="800.26" height="209.584"/>
  </clipPath>
  <clipPath id="p1d35dcf098">
   <rect x="48.982813" y="318.4185" width="800.26" height="209.584"/>
  </clipPath>
 </defs>
</svg>
